# Made in Blockbench 4.2.5
mtllib barrel_of_wine_horizontal.mtl

o cylinder
v 0.5 1 0.75
v 0.5 1 0.25
v 0.8314563036811942 0.8627063036811942 0.75
v 0.8314563036811942 0.8627063036811942 0.25
v 0.96875 0.53125 0.75
v 0.96875 0.53125 0.25
v 0.8314563036811942 0.1997936963188059 0.75
v 0.8314563036811942 0.1997936963188059 0.25
v 0.5 0.0625 0.75
v 0.5 0.0625 0.25
v 0.1685436963188059 0.19979369631880578 0.75
v 0.1685436963188059 0.19979369631880578 0.25
v 0.03125 0.5312499999999999 0.75
v 0.03125 0.5312499999999999 0.25
v 0.16854369631880578 0.862706303681194 0.75
v 0.16854369631880578 0.862706303681194 0.25
v 0.125 0.5312499999999999 0
v 0.23483495705504465 0.7964150429449552 0
v 0.5 0.90625 0
v 0.7651650429449552 0.7964150429449552 0
v 0.875 0.53125 0
v 0.7651650429449552 0.26608495705504476 0
v 0.5 0.15625 0
v 0.23483495705504476 0.2660849570550446 0
v 0.875 0.53125 1
v 0.7651650429449554 0.7964150429449554 1
v 0.5 0.90625 1
v 0.2348349570550446 0.7964150429449552 1
v 0.125 0.5312499999999999 1
v 0.2348349570550447 0.2660849570550446 1
v 0.5 0.15625 1
v 0.7651650429449554 0.2660849570550447 1
v 0.5 0.53125 1
v 0.5 0.21875 0
v 0.279029130879204 0.3102791308792038 0
v 0.1875 0.5312499999999999 0
v 0.2790291308792039 0.752220869120796 0
v 0.5 0.84375 0
v 0.7209708691207961 0.7522208691207961 0
v 0.8125 0.53125 0
v 0.7209708691207961 0.31027913087920395 0
v 0.5 0.21875 0.03125
v 0.279029130879204 0.3102791308792038 0.03125
v 0.5 0.53125 0.03125
v 0.1875 0.5312499999999999 0.03125
v 0.2790291308792039 0.752220869120796 0.03125
v 0.5 0.84375 0.03125
v 0.7209708691207961 0.7522208691207961 0.03125
v 0.8125 0.53125 0.03125
v 0.7209708691207961 0.31027913087920395 0.03125
vt 0.453125 0.25
vt 0.796875 0.25
vt 0.796875 0.75
vt 0.453125 0.75
vt 0 0.25
vt 0.34375 0.25
vt 0.34375 0.75
vt 0 0.75
vt 0.125 0.25
vt 0.46875 0.25
vt 0.46875 0.75
vt 0.125 0.75
vt 0.40625 0.25
vt 0.75 0.25
vt 0.75 0.75
vt 0.40625 0.75
vt 0.125 0.25
vt 0.46875 0.25
vt 0.46875 0.75
vt 0.125 0.75
vt 0.5 0.25
vt 0.84375 0.25
vt 0.84375 0.75
vt 0.5 0.75
vt 0 0.25
vt 0.34375 0.25
vt 0.34375 0.75
vt 0 0.75
vt 0.4375 0.25
vt 0.78125 0.25
vt 0.78125 0.75
vt 0.4375 0.75
vt 0.7625011976934601 1
vt 0.48749880230653986 1
vt 0.453125 0.75
vt 0.796875 0.75
vt 0.30937619769346014 1
vt 0.03437380230653986 1
vt 0 0.75
vt 0.34375 0.75
vt 0.43437619769346014 1
vt 0.15937380230653986 1
vt 0.125 0.75
vt 0.46875 0.75
vt 0.7156261976934601 1
vt 0.44062380230653986 1
vt 0.40625 0.75
vt 0.75 0.75
vt 0.43437619769346014 1
vt 0.15937380230653986 1
vt 0.125 0.75
vt 0.46875 0.75
vt 0.8093761976934601 1
vt 0.5343738023065399 1
vt 0.5 0.75
vt 0.84375 0.75
vt 0.3093761976934602 1
vt 0.03437380230653983 1
vt 0 0.75
vt 0.34375 0.75
vt 0.7468761976934601 1
vt 0.47187380230653986 1
vt 0.4375 0.75
vt 0.78125 0.75
vt 0.48749880230653986 0
vt 0.7625011976934599 0
vt 0.796875 0.25
vt 0.453125 0.25
vt 0.03437380230653986 0
vt 0.3093761976934599 0
vt 0.34375 0.25
vt 0 0.25
vt 0.15937380230653986 0
vt 0.4343761976934599 0
vt 0.46875 0.25
vt 0.125 0.25
vt 0.44062380230653986 0
vt 0.7156261976934599 0
vt 0.75 0.25
vt 0.40625 0.25
vt 0.1593738023065398 0
vt 0.43437619769346 0
vt 0.46875 0.25
vt 0.125 0.25
vt 0.5343738023065399 0
vt 0.8093761976934599 0
vt 0.84375 0.25
vt 0.5 0.25
vt 0.0343738023065398 0
vt 0.3093761976934599 0
vt 0.34375 0.25
vt 0 0.25
vt 0.47187380230653986 0
vt 0.7468761976934599 0
vt 0.78125 0.25
vt 0.4375 0.25
vt 0.7651625 0.7651625
vt 0.5 0.875
vt 0.5 0.5
vt 0.5 0.1875
vt 0.7209687499999999 0.27903125000000006
vt 0.5 0.5
vt 0.875 0.5
vt 0.7651625 0.7651625
vt 0.5 0.5
vt 0.7209687499999999 0.27903125000000006
vt 0.8125 0.5
vt 0.5 0.5
vt 0.7651625 0.23483750000000003
vt 0.875 0.5
vt 0.5 0.5
vt 0.8125 0.5
vt 0.7209687499999999 0.7209687499999999
vt 0.5 0.5
vt 0.5 0.125
vt 0.7651625 0.23483750000000003
vt 0.5 0.5
vt 0.7209687499999999 0.7209687499999999
vt 0.5 0.8125
vt 0.5 0.5
vt 0.23483749999999998 0.23483750000000003
vt 0.5 0.125
vt 0.5 0.5
vt 0.5 0.8125
vt 0.27903125000000006 0.7209687499999999
vt 0.5 0.5
vt 0.125 0.5
vt 0.23483749999999998 0.23483750000000003
vt 0.5 0.5
vt 0.27903125000000006 0.7209687499999999
vt 0.1875 0.5
vt 0.5 0.5
vt 0.23483749999999998 0.7651625
vt 0.125 0.5
vt 0.5 0.5
vt 0.1875 0.5
vt 0.27903125000000006 0.27903125000000006
vt 0.5 0.5
vt 0.5 0.875
vt 0.23483749999999998 0.7651625
vt 0.5 0.5
vt 0.27903125000000006 0.27903125000000006
vt 0.5 0.1875
vt 0.5 0.5
vt 0.2734382674052045 0.9375000000000002
vt 0.5078132674052045 0.9375
vt 0.53125 0.9999999999999998
vt 0.25 1
vt 0.4921882674052045 0.9375000000000002
vt 0.7265632674052045 0.9375
vt 0.75 0.9999999999999998
vt 0.46875 1
vt 0.7421882674052045 0.9375000000000002
vt 0.9765632674052045 0.9375
vt 1 0.9999999999999998
vt 0.71875 1
vt 0.023438267405204494 0.9375000000000002
vt 0.2578132674052045 0.9375
vt 0.28125 0.9999999999999998
vt 0 1
vt 0.2734382674052045 0.9375000000000002
vt 0.5078132674052045 0.9375
vt 0.53125 0.9999999999999998
vt 0.25 1
vt 0.4921882674052045 0.9375000000000002
vt 0.7265632674052045 0.9375
vt 0.75 0.9999999999999998
vt 0.46875 1
vt 0.7421882674052045 0.9375000000000002
vt 0.9765632674052045 0.9375
vt 1 0.9999999999999998
vt 0.71875 1
vt 0.023438267405204494 0.9375000000000002
vt 0.2578132674052045 0.9375
vt 0.28125 0.9999999999999998
vt 0 1
vt 0 0.96875
vt 0.234375 0.96875
vt 0.234375 1
vt 0 1
vt 0.75 0.96875
vt 0.984375 0.96875
vt 0.984375 1
vt 0.75 1
vt 0.5 0.96875
vt 0.734375 0.96875
vt 0.734375 1
vt 0.5 1
vt 0.25 0.96875
vt 0.484375 0.96875
vt 0.484375 1
vt 0.25 1
vt 0 0.96875
vt 0.234375 0.96875
vt 0.234375 1
vt 0 1
vt 0.75 0.96875
vt 0.984375 0.96875
vt 0.984375 1
vt 0.75 1
vt 0.5 0.96875
vt 0.734375 0.96875
vt 0.734375 1
vt 0.5 1
vt 0.25 0.96875
vt 0.484375 0.96875
vt 0.484375 1
vt 0.25 1
vn 0.3826834323650896 0.9238795325112868 0
vn 0.9238795325112867 0.3826834323650897 0
vn 0.9238795325112867 -0.3826834323650898 0
vn 0.3826834323650899 -0.9238795325112867 0
vn -0.3826834323650897 -0.923879532511287 0
vn -0.9238795325112867 -0.38268343236508995 0
vn -0.9238795325112868 0.3826834323650896 0
vn -0.38268343236508984 0.9238795325112867 0
vn 0.3615968591896991 0.8729720415672856 -0.32736451558773183
vn 0.8729720415672856 0.3615968591896991 -0.3273645155877323
vn 0.8729720415672856 -0.36159685918969914 -0.32736451558773205
vn 0.3615968591896992 -0.8729720415672854 -0.3273645155877322
vn -0.36159685918969875 -0.8729720415672856 -0.3273645155877321
vn -0.8729720415672854 -0.3615968591896992 -0.32736451558773216
vn -0.8729720415672858 0.3615968591896989 -0.3273645155877321
vn -0.3615968591896993 0.8729720415672855 -0.32736451558773233
vn 0.36159685918969886 0.8729720415672858 0.327364515587732
vn 0.8729720415672856 0.3615968591896988 0.3273645155877321
vn 0.8729720415672857 -0.36159685918969897 0.327364515587732
vn 0.361596859189699 -0.8729720415672856 0.3273645155877321
vn -0.36159685918969875 -0.8729720415672857 0.32736451558773194
vn -0.8729720415672856 -0.3615968591896991 0.3273645155877321
vn -0.8729720415672857 0.3615968591896987 0.32736451558773194
vn -0.36159685918969914 0.8729720415672856 0.32736451558773194
vn 0 0 1
vn 0 0 -1
vn 0 0 1
vn 0 0 -1
vn 0 0 1
vn 0 0 -1
vn 0 0 1
vn 0 0 -1
vn 0 0 1
vn 0 0 -1
vn 0 0 1
vn 0 0 -1
vn 0 0 1
vn 0 0 -1
vn 0 0 1
vn 0 0 -1
vn 0 0 -1
vn 0 0 -1
vn 0 0 -1
vn 0 0 -1
vn 0 0 -1
vn 0 0 -1
vn 0 0 -1
vn 0 0 -1
vn -0.3826834323650901 -0.9238795325112868 0
vn -0.9238795325112868 -0.3826834323650901 0
vn -0.9238795325112868 0.3826834323650901 0
vn -0.3826834323650901 0.9238795325112868 0
vn 0.3826834323650895 0.923879532511287 0
vn 0.9238795325112866 0.3826834323650901 0
vn 0.9238795325112867 -0.3826834323650898 0
vn 0.3826834323650901 -0.9238795325112866 0
usemtl m_side
f 1/1/1 3/2/1 4/3/1 2/4/1
f 3/5/2 5/6/2 6/7/2 4/8/2
f 5/9/3 7/10/3 8/11/3 6/12/3
f 7/13/4 9/14/4 10/15/4 8/16/4
f 9/17/5 11/18/5 12/19/5 10/20/5
f 11/21/6 13/22/6 14/23/6 12/24/6
f 13/25/7 15/26/7 16/27/7 14/28/7
f 15/29/8 1/30/8 2/31/8 16/32/8
f 20/33/9 19/34/9 2/35/9 4/36/9
f 21/37/10 20/38/10 4/39/10 6/40/10
f 22/41/11 21/42/11 6/43/11 8/44/11
f 23/45/12 22/46/12 8/47/12 10/48/12
f 24/49/13 23/50/13 10/51/13 12/52/13
f 17/53/14 24/54/14 12/55/14 14/56/14
f 18/57/15 17/58/15 14/59/15 16/60/15
f 19/61/16 18/62/16 16/63/16 2/64/16
f 27/65/17 26/66/17 3/67/17 1/68/17
f 26/69/18 25/70/18 5/71/18 3/72/18
f 25/73/19 32/74/19 7/75/19 5/76/19
f 32/77/20 31/78/20 9/79/20 7/80/20
f 31/81/21 30/82/21 11/83/21 9/84/21
f 30/85/22 29/86/22 13/87/22 11/88/22
f 29/89/23 28/90/23 15/91/23 13/92/23
f 28/93/24 27/94/24 1/95/24 15/96/24
usemtl m_bottom
f 26/97/25 27/98/25 33/99/25
usemtl m_top
f 47/100/26 48/101/26 44/102/26
usemtl m_bottom
f 25/103/27 26/104/27 33/105/27
usemtl m_top
f 48/106/28 49/107/28 44/108/28
usemtl m_bottom
f 32/109/29 25/110/29 33/111/29
usemtl m_top
f 49/112/30 50/113/30 44/114/30
usemtl m_bottom
f 31/115/31 32/116/31 33/117/31
usemtl m_top
f 50/118/32 42/119/32 44/120/32
usemtl m_bottom
f 30/121/33 31/122/33 33/123/33
usemtl m_top
f 42/124/34 43/125/34 44/126/34
usemtl m_bottom
f 29/127/35 30/128/35 33/129/35
usemtl m_top
f 43/130/36 45/131/36 44/132/36
usemtl m_bottom
f 28/133/37 29/134/37 33/135/37
usemtl m_top
f 45/136/38 46/137/38 44/138/38
usemtl m_bottom
f 27/139/39 28/140/39 33/141/39
usemtl m_top
f 46/142/40 47/143/40 44/144/40
usemtl m_side
f 39/145/41 38/146/41 19/147/41 20/148/41
f 40/149/42 39/150/42 20/151/42 21/152/42
f 41/153/43 40/154/43 21/155/43 22/156/43
f 34/157/44 41/158/44 22/159/44 23/160/44
f 35/161/45 34/162/45 23/163/45 24/164/45
f 36/165/46 35/166/46 24/167/46 17/168/46
f 37/169/47 36/170/47 17/171/47 18/172/47
f 38/173/48 37/174/48 18/175/48 19/176/48
f 48/177/49 47/178/49 38/179/49 39/180/49
f 49/181/50 48/182/50 39/183/50 40/184/50
f 50/185/51 49/186/51 40/187/51 41/188/51
f 42/189/52 50/190/52 41/191/52 34/192/52
f 43/193/53 42/194/53 34/195/53 35/196/53
f 45/197/54 43/198/54 35/199/54 36/200/54
f 46/201/55 45/202/55 36/203/55 37/204/55
f 47/205/56 46/206/56 37/207/56 38/208/56
o stand1
v 1 0.5 0.3125
v 1 0.5 0.21875
v 1 0 0.3125
v 1 0 0.21875
v 0 0.5 0.3125
v 0 0.5 0.21875
v 0 0 0.3125
v 0 0 0.21875
vt 0.09375 1
vt 0 1
vt 0 0.5
vt 0.09375 0.5
vt 0.09375 0.5
vt 0.09375 1
vt 0 1
vt 0 0.5
vt 0 0.40625
vt 1 0.40625
vt 1 0.5
vt 0 0.5
vt 1 0
vt 1 0.09375
vt 0 0.09375
vt 0 0
vt 1 0
vt 1 0.5
vt 0 0.5
vt 0 0
vt 1 0.5
vt 0 0.5
vt 0 0
vt 1 0
vn 1 0 0
vn -1 0 0
vn 0 1 0
vn 0 -1 0
vn 0 0 1
vn 0 0 -1
usemtl m_stand
f 52/209/57 51/210/57 53/211/57 54/212/57
f 57/213/58 55/214/58 56/215/58 58/216/58
f 55/217/59 51/218/59 52/219/59 56/220/59
f 54/221/60 53/222/60 57/223/60 58/224/60
f 53/225/61 51/226/61 55/227/61 57/228/61
f 56/229/62 52/230/62 54/231/62 58/232/62
o stand2
v 1 0.5 0.78125
v 1 0.5 0.6875
v 1 0 0.78125
v 1 0 0.6875
v 0 0.5 0.78125
v 0 0.5 0.6875
v 0 0 0.78125
v 0 0 0.6875
vt 0.09375 1
vt 0 1
vt 0 0.5
vt 0.09375 0.5
vt 0.09375 0.5
vt 0.09375 1
vt 0 1
vt 0 0.5
vt 0 0.40625
vt 1 0.40625
vt 1 0.5
vt 0 0.5
vt 1 0
vt 1 0.09375
vt 0 0.09375
vt 0 0
vt 1 0
vt 1 0.5
vt 0 0.5
vt 0 0
vt 1 0.5
vt 0 0.5
vt 0 0
vt 1 0
vn 1 0 0
vn -1 0 0
vn 0 1 0
vn 0 -1 0
vn 0 0 1
vn 0 0 -1
usemtl m_stand
f 60/233/63 59/234/63 61/235/63 62/236/63
f 65/237/64 63/238/64 64/239/64 66/240/64
f 63/241/65 59/242/65 60/243/65 64/244/65
f 62/245/66 61/246/66 65/247/66 66/248/66
f 61/249/67 59/250/67 63/251/67 65/252/67
f 64/253/68 60/254/68 62/255/68 66/256/68
o vane1
v 0.5 0.5285691738241592 0.03125
v 0.5 0.5285691738241592 -0.15625
v 0.5441941738241592 0.484375 0.03125
v 0.5441941738241592 0.484375 -0.15625
v 0.45580582617584076 0.484375 0.03125
v 0.45580582617584076 0.484375 -0.15625
v 0.5 0.44018082617584076 0.03125
v 0.5 0.44018082617584076 -0.15625
vt 0.46875 0.78125
vt 0.65625 0.78125
vt 0.65625 0.71875
vt 0.46875 0.71875
vt 0.21875 0.6875
vt 0.21875 0.75
vt 0.03125 0.75
vt 0.03125 0.6875
vt 0.46875 0.3125
vt 0.46875 0.25
vt 0.28125 0.25
vt 0.28125 0.3125
vt 0.21875 0.75
vt 0.03125 0.75
vt 0.03125 0.6875
vt 0.21875 0.6875
vt 0.28125 0.75
vt 0.21875 0.75
vt 0.21875 0.6875
vt 0.28125 0.6875
vn 0.7071067811865475 0.7071067811865476 0
vn -0.7071067811865475 -0.7071067811865476 0
vn -0.7071067811865476 0.7071067811865475 0
vn 0.7071067811865476 -0.7071067811865475 0
vn 0 0 -1
usemtl m_side
f 68/257/69 67/258/69 69/259/69 70/260/69
f 73/261/70 71/262/70 72/263/70 74/264/70
f 71/265/71 67/266/71 68/267/71 72/268/71
f 70/269/72 69/270/72 73/271/72 74/272/72
f 72/273/73 68/274/73 70/275/73 74/276/73
o vane2
v 0.515625 0.49790664693413184 -0.0817507938682637
v 0.515625 0.3625901775928133 -0.15987579386826373
v 0.515625 0.46665664693413184 -0.027624206131736294
v 0.515625 0.3313401775928133 -0.1057492061317363
v 0.484375 0.49790664693413184 -0.0817507938682637
v 0.484375 0.3625901775928133 -0.15987579386826373
v 0.484375 0.46665664693413184 -0.027624206131736294
v 0.484375 0.3313401775928133 -0.1057492061317363
vt 0.59375 0.28125
vt 0.40625 0.28125
vt 0.40625 0.21875
vt 0.59375 0.21875
vt 0.625 0.21875
vt 0.625 0.28125
vt 0.4375 0.28125
vt 0.4375 0.21875
vt 0.21875 0.3125
vt 0.21875 0.28125
vt 0.375 0.28125
vt 0.375 0.3125
vt 0.1875 0.71875
vt 0.03125 0.71875
vt 0.03125 0.6875
vt 0.1875 0.6875
vt 0.15625 0.75
vt 0.125 0.75
vt 0.125 0.6875
vt 0.15625 0.6875
vn 1 0 0
vn -1 0 0
vn 0 0.5000000000000001 -0.8660254037844386
vn 0 -0.5000000000000001 0.8660254037844386
vn 0 -0.8660254037844386 -0.5000000000000001
usemtl m_side
f 76/277/74 75/278/74 77/279/74 78/280/74
f 81/281/75 79/282/75 80/283/75 82/284/75
f 79/285/76 75/286/76 76/287/76 80/288/76
f 78/289/77 77/290/77 81/291/77 82/292/77
f 80/293/78 76/294/78 78/295/78 82/296/78
o vane3
v 0.5441941738241592 0.59375 -0.0625
v 0.5 0.59375 -0.10669417382415922
v 0.5441941738241592 0.5 -0.0625
v 0.5 0.5 -0.10669417382415922
v 0.5 0.59375 -0.018305826175840784
v 0.45580582617584076 0.59375 -0.0625
v 0.5 0.5 -0.018305826175840784
v 0.45580582617584076 0.5 -0.0625
vt 0.0625 0.3125
vt 0 0.3125
vt 0 0.21875
vt 0.0625 0.21875
vt 0.0625 0.21875
vt 0.0625 0.3125
vt 0 0.3125
vt 0 0.21875
vt 0.875 0.6875
vt 0.9375 0.6875
vt 0.9375 0.75
vt 0.875 0.75
vt 0.09375 0.6875
vt 0.09375 0.75
vt 0.03125 0.75
vt 0.03125 0.6875
vt 0.0625 0.21875
vt 0.0625 0.3125
vt 0 0.3125
vt 0 0.21875
vt 0.0625 0.3125
vt 0 0.3125
vt 0 0.21875
vt 0.0625 0.21875
vn 0.7071067811865475 0 -0.7071067811865476
vn -0.7071067811865475 0 0.7071067811865476
vn 0 1 0
vn 0 -1 0
vn 0.7071067811865476 0 0.7071067811865475
vn -0.7071067811865476 0 -0.7071067811865475
usemtl m_side
f 84/297/79 83/298/79 85/299/79 86/300/79
f 89/301/80 87/302/80 88/303/80 90/304/80
f 87/305/81 83/306/81 84/307/81 88/308/81
f 86/309/82 85/310/82 89/311/82 90/312/82
f 85/313/83 83/314/83 87/315/83 89/316/83
f 88/317/84 84/318/84 86/319/84 90/320/84