# Made in Blockbench 4.2.5
mtllib blue_bottle.mtl

o bottom
v 0.6322515877365273 0 0.5546875
v 0.5 0 0.609375
v 0.5 0 0.5
v 0.6322515877365273 0.5625 0.5546875
v 0.5 0.5625 0.609375
v 0.5 0.5625 0.5
v 0.6322515877365273 0 0.4453125
v 0.6322515877365273 0.5625 0.4453125
v 0.5 0 0.390625
v 0.5 0.5625 0.390625
v 0.3677484122634726 0 0.44531249999999994
v 0.3677484122634726 0.5625 0.44531249999999994
v 0.3677484122634726 0 0.5546875
v 0.3677484122634726 0.5625 0.5546875
vt 0.59375 0.9453125
vt 0.46875 1
vt 0.46875 0.890625
vt 0.140625 0
vt 0.28125 0
vt 0.28125 0.5625
vt 0.140625 0.5625
vt 0 0.9375
vt 0.054125 0.96875
vt 0 1
vt 0.59375 0.8359375
vt 0.59375 0.9453125
vt 0.46875 0.890625
vt 0.28125 0
vt 0.375 0
vt 0.375 0.5625
vt 0.28125 0.5625
vt 0.054125 0.9375
vt 0.054125 1
vt 0 0.96875
vt 0.46875 0.78125
vt 0.59375 0.8359375
vt 0.46875 0.890625
vt 0.375 0
vt 0.515625 0
vt 0.515625 0.5625
vt 0.375 0.5625
vt 0.054125 0.96875
vt 0 1
vt 0 0.9375
vt 0.34375 0.8359375
vt 0.46875 0.78125
vt 0.46875 0.890625
vt 0.515625 0
vt 0.65625 0
vt 0.65625 0.5625
vt 0.515625 0.5625
vt 0.054125 1
vt 0 0.96875
vt 0.054125 0.9375
vt 0.34375 0.9453125
vt 0.34375 0.8359375
vt 0.46875 0.890625
vt 0.28125 0
vt 0.375 0
vt 0.375 0.5625
vt 0.28125 0.5625
vt 0.0625 1
vt 0.0625 0.9375
vt 0.116625 0.96875
vt 0.46875 1
vt 0.34375 0.9453125
vt 0.46875 0.890625
vt 0 0
vt 0.140625 0
vt 0.140625 0.5625
vt 0 0.5625
vt 0 0.96875
vt 0.054125 0.9375
vt 0.054125 1
vn 0 -1 0
vn 0.3821292807498335 0 0.924108874967455
vn 0 1 0
vn 0 -1 0
vn 1 0 0
vn 0 1 0
vn 0 -1 0
vn 0.3821292807498335 0 -0.924108874967455
vn 0 1 0
vn 0 -1 0
vn -0.38212928074983293 0 -0.924108874967455
vn 0 1 0
vn 0 -1 0
vn -1 0 0
vn 0 1 0
vn 0 -1 0
vn -0.3821292807498333 0 0.924108874967455
vn 0 1 0
usemtl m_1
f 1/1/1 2/2/1 3/3/1
f 2/4/2 1/5/2 4/6/2 5/7/2
f 5/8/3 4/9/3 6/10/3
f 7/11/4 1/12/4 3/13/4
f 1/14/5 7/15/5 8/16/5 4/17/5
f 4/18/6 8/19/6 6/20/6
f 9/21/7 7/22/7 3/23/7
f 7/24/8 9/25/8 10/26/8 8/27/8
f 8/28/9 10/29/9 6/30/9
f 11/31/10 9/32/10 3/33/10
f 9/34/11 11/35/11 12/36/11 10/37/11
f 10/38/12 12/39/12 6/40/12
f 13/41/13 11/42/13 3/43/13
f 11/44/14 13/45/14 14/46/14 12/47/14
f 12/48/15 14/49/15 6/50/15
f 2/51/16 13/52/16 3/53/16
f 13/54/17 2/55/17 5/56/17 14/57/17
f 14/58/18 5/59/18 6/60/18
o top
v 0.6322515877365273 0.5625 0.5546875
v 0.5 0.5625 0.609375
v 0.5 0.5625 0.5
v 0.5 0.625 0.546875
v 0.5385015877365273 0.625 0.5234375
v 0.5385015877365273 0.765625 0.5234375
v 0.5 0.765625 0.546875
v 0.5 0.8125 0.578125
v 0.5697515877365273 0.8125 0.5390625
v 0.5 0.8125 0.5
v 0.6322515877365273 0.5625 0.4453125
v 0.5385015877365273 0.625 0.4765625
v 0.5385015877365273 0.765625 0.4765625
v 0.5697515877365273 0.8125 0.4609375
v 0.5 0.5625 0.390625
v 0.5 0.625 0.453125
v 0.5 0.765625 0.453125
v 0.5 0.8125 0.421875
v 0.3677484122634726 0.5625 0.44531249999999994
v 0.4614984122634726 0.625 0.4765625
v 0.4614984122634726 0.765625 0.4765625
v 0.4302484122634726 0.8125 0.4609375
v 0.3677484122634726 0.5625 0.5546875
v 0.4614984122634726 0.625 0.5234375
v 0.4614984122634726 0.765625 0.5234375
v 0.4302484122634726 0.8125 0.5390625
v 0.5697515877365273 0.765625 0.5390625
v 0.5 0.765625 0.578125
v 0.5697515877365273 0.765625 0.4609375
v 0.5 0.765625 0.421875
v 0.4302484122634726 0.765625 0.4609375
v 0.4302484122634726 0.765625 0.5390625
vt 0.054125 0.96875
vt 0 1
vt 0 0.9375
vt 0.140625 0.640625
vt 0.1875 0.640625
vt 0.1875 0.78125
vt 0.140625 0.78125
vt 0.0625 0.921875
vt 0.0625 1
vt 0 0.9609375
vt 0.054125 0.9375
vt 0.054125 1
vt 0 0.96875
vt 0.2890625 0.671875
vt 0.3359375 0.671875
vt 0.3359375 0.8125
vt 0.2890625 0.8125
vt 0.0625 0.921875
vt 0.0625 1
vt 0 0.9609375
vt 0 0.9375
vt 0.054125 0.96875
vt 0 1
vt 0.09375 0.640625
vt 0.140625 0.640625
vt 0.140625 0.78125
vt 0.09375 0.78125
vt 0.0625 0.921875
vt 0.0625 1
vt 0 0.9609375
vt 0 0.96875
vt 0.054125 0.9375
vt 0.054125 1
vt 0.140625 0.640625
vt 0.1875 0.640625
vt 0.1875 0.78125
vt 0.140625 0.78125
vt 0.0625 0.921875
vt 0.0625 1
vt 0 0.9609375
vt 0.0625 1
vt 0.0625 0.9375
vt 0.116625 0.96875
vt 0.2890625 0.671875
vt 0.3359375 0.671875
vt 0.3359375 0.8125
vt 0.2890625 0.8125
vt 0.0625 0.921875
vt 0.0625 1
vt 0 0.9609375
vt 0.054125 1
vt 0 0.96875
vt 0.054125 0.9375
vt 0.09375 0.640625
vt 0.140625 0.640625
vt 0.140625 0.78125
vt 0.09375 0.78125
vt 0.0625 0.921875
vt 0.0625 1
vt 0 0.9609375
vt 0.34375 0.765625
vt 0.34375 0.84375
vt 0.3125 0.828125
vt 0.3125 0.78125
vt 0.34375 0.765625
vt 0.34375 0.84375
vt 0.3125 0.828125
vt 0.3125 0.78125
vt 0.34375 0.765625
vt 0.34375 0.84375
vt 0.3125 0.828125
vt 0.3125 0.78125
vt 0.34375 0.765625
vt 0.34375 0.84375
vt 0.3125 0.828125
vt 0.3125 0.78125
vt 0.34375 0.765625
vt 0.34375 0.84375
vt 0.3125 0.828125
vt 0.3125 0.78125
vt 0.34375 0.765625
vt 0.34375 0.84375
vt 0.3125 0.828125
vt 0.3125 0.78125
vt 0.140625 0.8359375
vt 0.0625 0.8359375
vt 0.0625 0.7890625
vt 0.140625 0.7890625
vt 0.21875 0.8359375
vt 0.140625 0.8359375
vt 0.140625 0.7890625
vt 0.21875 0.7890625
vt 0.140625 0.8359375
vt 0.0625 0.8359375
vt 0.0625 0.7890625
vt 0.140625 0.7890625
vt 0.21875 0.8359375
vt 0.140625 0.8359375
vt 0.140625 0.7890625
vt 0.21875 0.7890625
vt 0.140625 0.8359375
vt 0.0625 0.8359375
vt 0.0625 0.7890625
vt 0.140625 0.7890625
vt 0.21875 0.8359375
vt 0.140625 0.8359375
vt 0.140625 0.7890625
vt 0.21875 0.7890625
vt 0.125 0.5625
vt 0.25 0.5625
vt 0.1847595859900428 0.65625
vt 0.14585880862957462 0.6510460087536474
vt 0.28125 0.5625
vt 0.375 0.5625
vt 0.3482142857142857 0.6875
vt 0.3080357142857143 0.6875
vt 0 0.5625
vt 0.140625 0.5625
vt 0.11715884029172853 0.651330897703549
vt 0.07339546576120184 0.65625
vt 0.140625 0.5625
vt 0.28125 0.5625
vt 0.20785453423879813 0.65625
vt 0.16409115970827146 0.6510460087536474
vt 0.28125 0.5625
vt 0.375 0.5625
vt 0.3482142857142857 0.6875
vt 0.3080357142857143 0.6875
vt 0 0.5625
vt 0.12499999999999999 0.5625
vt 0.10414119137042535 0.651330897703549
vt 0.0652404140099572 0.65625
vn 0 -1 0
vn 0.5199752906063437 0 0.8541813022765418
vn 0 1 0
vn 0 -1 0
vn 1 0 0
vn 0 1 0
vn 0 -1 0
vn 0.5199752906063437 0 -0.8541813022765418
vn 0 1 0
vn 0 -1 0
vn -0.5199752906063432 0 -0.8541813022765419
vn 0 1 0
vn 0 -1 0
vn -1 0 0
vn 0 1 0
vn 0 -1 0
vn -0.5199752906063432 0 0.8541813022765419
vn 0 1 0
vn 0 -1 0
vn 0 -1 0
vn 0 -1 0
vn 0 -1 0
vn 0 -1 0
vn 0 -1 0
vn 0.4886187081989648 0 0.8724974257830078
vn 1 0 0
vn 0.4886187081989648 0 -0.8724974257830078
vn -0.48861870819896436 0 -0.8724974257830078
vn -1 0 0
vn -0.48861870819896436 0 0.8724974257830078
vn 0.2654867058890244 0.7192452668496641 0.6420304160322549
vn 0.5547001962252291 0.8320502943378437 0
vn 0.2806455245462487 0.6786892107408814 -0.6786892107408814
vn -0.26548670588902407 0.7192452668496642 -0.642030416032255
vn -0.5547001962252291 0.8320502943378438 0
vn -0.28064552454624864 0.6786892107408814 0.6786892107408814
usemtl m_1
f 15/61/19 16/62/19 17/63/19
f 18/64/20 19/65/20 20/66/20 21/67/20
f 22/68/21 23/69/21 24/70/21
f 25/71/22 15/72/22 17/73/22
f 19/74/23 26/75/23 27/76/23 20/77/23
f 23/78/24 28/79/24 24/80/24
f 29/81/25 25/82/25 17/83/25
f 26/84/26 30/85/26 31/86/26 27/87/26
f 28/88/27 32/89/27 24/90/27
f 33/91/28 29/92/28 17/93/28
f 30/94/29 34/95/29 35/96/29 31/97/29
f 32/98/30 36/99/30 24/100/30
f 37/101/31 33/102/31 17/103/31
f 34/104/32 38/105/32 39/106/32 35/107/32
f 36/108/33 40/109/33 24/110/33
f 16/111/34 37/112/34 17/113/34
f 38/114/35 18/115/35 21/116/35 39/117/35
f 40/118/36 22/119/36 24/120/36
f 41/121/37 42/122/37 21/123/37 20/124/37
f 43/125/38 41/126/38 20/127/38 27/128/38
f 44/129/39 43/130/39 27/131/39 31/132/39
f 45/133/40 44/134/40 31/135/40 35/136/40
f 46/137/41 45/138/41 35/139/41 39/140/41
f 42/141/42 46/142/42 39/143/42 21/144/42
f 23/145/43 22/146/43 42/147/43 41/148/43
f 28/149/44 23/150/44 41/151/44 43/152/44
f 32/153/45 28/154/45 43/155/45 44/156/45
f 36/157/46 32/158/46 44/159/46 45/160/46
f 40/161/47 36/162/47 45/163/47 46/164/47
f 22/165/48 40/166/48 46/167/48 42/168/48
f 16/169/49 15/170/49 19/171/49 18/172/49
f 15/173/50 25/174/50 26/175/50 19/176/50
f 25/177/51 29/178/51 30/179/51 26/180/51
f 29/181/52 33/182/52 34/183/52 30/184/52
f 33/185/53 37/186/53 38/187/53 34/188/53
f 37/189/54 16/190/54 18/191/54 38/192/54
o cork
v 0.5390625 0.875 0.4609375
v 0.5390625 0.875 0.5390625
v 0.5390625 0.8125 0.5390625
v 0.5390625 0.8125 0.4609375
v 0.4609375 0.8125 0.5390625
v 0.4609375 0.875 0.5390625
v 0.4609375 0.875 0.4609375
v 0.4609375 0.8125 0.4609375
vt 0.1796875 0.90625
vt 0.1015625 0.90625
vt 0.1015625 0.84375
vt 0.1796875 0.84375
vt 0.1796875 0.84375
vt 0.1796875 0.90625
vt 0.1015625 0.90625
vt 0.1015625 0.84375
vt 0.1015625 0.9140625
vt 0.1796875 0.9140625
vt 0.1796875 0.9921875
vt 0.1015625 0.9921875
vt 0.0625 0.9375
vt 0.0625 1
vt 0 1
vt 0 0.9375
vt 0.1796875 0.84375
vt 0.1796875 0.90625
vt 0.1015625 0.90625
vt 0.1015625 0.84375
vt 0.1796875 0.90625
vt 0.1015625 0.90625
vt 0.1015625 0.84375
vt 0.1796875 0.84375
vn 1 0 0
vn -1 0 0
vn 0 1 0
vn 0 -1 0
vn 0 0 1
vn 0 0 -1
usemtl m_1
f 47/193/55 48/194/55 49/195/55 50/196/55
f 51/197/56 52/198/56 53/199/56 54/200/56
f 52/201/57 48/202/57 47/203/57 53/204/57
f 50/205/58 49/206/58 51/207/58 54/208/58
f 49/209/59 48/210/59 52/211/59 51/212/59
f 53/213/60 47/214/60 50/215/60 54/216/60