# Made in Blockbench 4.2.5
mtllib bottle_of_soda.mtl

o bottom
v 0.5 0 0.5
v 0.5 0 0.59375
v 0.5 0.4375 0.59375
v 0.5811898816047911 0 0.546875
v 0.5811898816047911 0.4375 0.546875
v 0.5811898816047911 0 0.453125
v 0.5811898816047911 0.4375 0.453125
v 0.5 0 0.40625
v 0.5 0.4375 0.40625
v 0.4188101183952089 0 0.45312499999999994
v 0.4188101183952089 0.4375 0.45312499999999994
v 0.4188101183952089 0 0.546875
v 0.4188101183952089 0.4375 0.546875
v 0.5 0.4375 0.5
vt 0 0.90625
vt 0 0.8125
vt 0.078125 0.859375
vt 0.40625 0
vt 0.5 0
vt 0.5 0.4375
vt 0.40625 0.4375
vt 0 1
vt 0 0.90625
vt 0.078125 0.953125
vt 0.1875 0.8125
vt 0.1875 0.90625
vt 0.109375 0.859375
vt 0.5 0
vt 0.59375 0
vt 0.59375 0.4375
vt 0.5 0.4375
vt 0.1875 0.90625
vt 0.1875 1
vt 0.109375 0.953125
vt 0 0.90625
vt 0 0.8125
vt 0.078125 0.859375
vt 0.40625 0
vt 0.5 0
vt 0.5 0.4375
vt 0.40625 0.4375
vt 0 1
vt 0 0.90625
vt 0.078125 0.953125
vt 0.1875 0.8125
vt 0.1875 0.90625
vt 0.109375 0.859375
vt 0.5 0
vt 0.59375 0
vt 0.59375 0.4375
vt 0.5 0.4375
vt 0.1875 0.90625
vt 0.1875 1
vt 0.109375 0.953125
vt 0 0.90625
vt 0 0.8125
vt 0.078125 0.859375
vt 0.40625 0
vt 0.5 0
vt 0.5 0.4375
vt 0.40625 0.4375
vt 0 1
vt 0 0.90625
vt 0.078125 0.953125
vt 0.1875 0.8125
vt 0.1875 0.90625
vt 0.109375 0.859375
vt 0.5 0
vt 0.59375 0
vt 0.59375 0.4375
vt 0.5 0.4375
vt 0.1875 0.90625
vt 0.1875 1
vt 0.109375 0.953125
vn 0 -1 0
vn 0.49999999999999983 0 0.8660254037844387
vn 0 1 0
vn 0 -1 0
vn 1 0 0
vn 0 1 0
vn 0 -1 0
vn 0.5000000000000003 0 -0.8660254037844387
vn 0 1 0
vn 0 -1 0
vn -0.49999999999999967 0 -0.8660254037844388
vn 0 1 0
vn 0 -1 0
vn -1 0 -1.4802973661668743e-16
vn 0 1 0
vn 0 -1 0
vn -0.49999999999999983 0 0.8660254037844387
vn 0 1 0
usemtl m_1
f 4/1/1 2/2/1 1/3/1
f 2/4/2 4/5/2 5/6/2 3/7/2
f 3/8/3 5/9/3 14/10/3
f 6/11/4 4/12/4 1/13/4
f 4/14/5 6/15/5 7/16/5 5/17/5
f 5/18/6 7/19/6 14/20/6
f 8/21/7 6/22/7 1/23/7
f 6/24/8 8/25/8 9/26/8 7/27/8
f 7/28/9 9/29/9 14/30/9
f 10/31/10 8/32/10 1/33/10
f 8/34/11 10/35/11 11/36/11 9/37/11
f 9/38/12 11/39/12 14/40/12
f 12/41/13 10/42/13 1/43/13
f 10/44/14 12/45/14 13/46/14 11/47/14
f 11/48/15 13/49/15 14/50/15
f 2/51/16 12/52/16 1/53/16
f 12/54/17 2/55/17 3/56/17 13/57/17
f 13/58/18 3/59/18 14/60/18
o top
v 0.5 0.53125 0.5
v 0.5 0.4375 0.5625
v 0.5 0.53125 0.5625
v 0.5541265877365275 0.4375 0.53125
v 0.5541265877365275 0.53125 0.53125
v 0.5541265877365275 0.4375 0.46875
v 0.5541265877365275 0.53125 0.46875
v 0.5 0.4375 0.4375
v 0.5 0.53125 0.4375
v 0.4458734122634726 0.4375 0.46875
v 0.4458734122634726 0.53125 0.46875
v 0.4458734122634726 0.4375 0.53125
v 0.4458734122634726 0.53125 0.53125
vt 0.4375 0.4375
vt 0.5 0.4375
vt 0.5 0.53125
vt 0.4375 0.53125
vt 0.0625 0.96875
vt 0.0625 0.90625
vt 0.1171875 0.9375
vt 0.5 0.4375
vt 0.5625 0.4375
vt 0.5625 0.53125
vt 0.5 0.53125
vt 0.125 0.90625
vt 0.125 0.96875
vt 0.0703125 0.9375
vt 0.4375 0.4375
vt 0.5 0.4375
vt 0.5 0.53125
vt 0.4375 0.53125
vt 0.0625 0.96875
vt 0.0625 0.90625
vt 0.1171875 0.9375
vt 0.5 0.4375
vt 0.5625 0.4375
vt 0.5625 0.53125
vt 0.5 0.53125
vt 0.125 0.90625
vt 0.125 0.96875
vt 0.0703125 0.9375
vt 0.4375 0.4375
vt 0.5 0.4375
vt 0.5 0.53125
vt 0.4375 0.53125
vt 0.0625 0.96875
vt 0.0625 0.90625
vt 0.1171875 0.9375
vt 0.5 0.4375
vt 0.5625 0.4375
vt 0.5625 0.53125
vt 0.5 0.53125
vt 0.125 0.90625
vt 0.125 0.96875
vt 0.0703125 0.9375
vn 0.49999999999999994 0 0.8660254037844388
vn 0 1 0
vn 1 0 1.1102230246251568e-16
vn 0 1 0
vn 0.5000000000000001 0 -0.8660254037844386
vn 0 1 0
vn -0.4999999999999996 0 -0.8660254037844388
vn 0 1 0
vn -1 0 -1.110223024625156e-16
vn 0 1 0
vn -0.49999999999999994 0 0.8660254037844388
vn 0 1 0
usemtl m_1
f 16/61/19 18/62/19 19/63/19 17/64/19
f 17/65/20 19/66/20 15/67/20
f 18/68/21 20/69/21 21/70/21 19/71/21
f 19/72/22 21/73/22 15/74/22
f 20/75/23 22/76/23 23/77/23 21/78/23
f 21/79/24 23/80/24 15/81/24
f 22/82/25 24/83/25 25/84/25 23/85/25
f 23/86/26 25/87/26 15/88/26
f 24/89/27 26/90/27 27/91/27 25/92/27
f 25/93/28 27/94/28 15/95/28
f 26/96/29 16/97/29 17/98/29 27/99/29
f 27/100/30 17/101/30 15/102/30
o cap
v 0.5 0.65625 0.5
v 0.5 0.53125 0.53125
v 0.5 0.65625 0.53125
v 0.5270632938682637 0.53125 0.515625
v 0.5270632938682637 0.65625 0.515625
v 0.5270632938682637 0.53125 0.484375
v 0.5270632938682637 0.65625 0.484375
v 0.5 0.53125 0.46875
v 0.5 0.65625 0.46875
v 0.4729367061317363 0.53125 0.484375
v 0.4729367061317363 0.65625 0.484375
v 0.4729367061317363 0.53125 0.515625
v 0.4729367061317363 0.65625 0.515625
vt 0.46875 0.53125
vt 0.5 0.53125
vt 0.5 0.65625
vt 0.46875 0.65625
vt 0.09375 0.984375
vt 0.0625 1
vt 0.0625 0.96875
vt 0.5 0.53125
vt 0.53125 0.53125
vt 0.53125 0.65625
vt 0.5 0.65625
vt 0.09375 0.984375
vt 0.125 0.96875
vt 0.125 1
vt 0.46875 0.53125
vt 0.5 0.53125
vt 0.5 0.65625
vt 0.46875 0.65625
vt 0.09375 0.984375
vt 0.0625 1
vt 0.0625 0.96875
vt 0.5 0.53125
vt 0.53125 0.53125
vt 0.53125 0.65625
vt 0.5 0.65625
vt 0.09375 0.984375
vt 0.125 0.96875
vt 0.125 1
vt 0.46875 0.53125
vt 0.5 0.53125
vt 0.5 0.65625
vt 0.46875 0.65625
vt 0.09375 0.984375
vt 0.0625 1
vt 0.0625 0.96875
vt 0.5 0.53125
vt 0.53125 0.53125
vt 0.53125 0.65625
vt 0.5 0.65625
vt 0.09375 0.984375
vt 0.125 0.96875
vt 0.125 1
vn 0.49999999999999994 0 0.8660254037844387
vn 0 1 0
vn 1 0 1.1102230246251568e-16
vn 0 1 0
vn 0.5000000000000002 0 -0.8660254037844386
vn 0 1 0
vn -0.4999999999999997 0 -0.8660254037844389
vn 0 1 0
vn -1 0 -1.110223024625156e-16
vn 0 1 0
vn -0.49999999999999994 0 0.8660254037844387
vn 0 1 0
usemtl m_1
f 29/103/31 31/104/31 32/105/31 30/106/31
f 30/107/32 32/108/32 28/109/32
f 31/110/33 33/111/33 34/112/33 32/113/33
f 32/114/34 34/115/34 28/116/34
f 33/117/35 35/118/35 36/119/35 34/120/35
f 34/121/36 36/122/36 28/123/36
f 35/124/37 37/125/37 38/126/37 36/127/37
f 36/128/38 38/129/38 28/130/38
f 37/131/39 39/132/39 40/133/39 38/134/39
f 38/135/40 40/136/40 28/137/40
f 39/138/41 29/139/41 30/140/41 40/141/41
f 40/142/42 30/143/42 28/144/42