# Made in Blockbench 4.2.5
mtllib bottle_of_wine.mtl

o bottom2
v 0.5 0.0625 0.5
v 0.5 0.4375 0.5
v 0.5 0.0625 0.734375
v 0.5 0.4375 0.734375
v 0.7029747040119778 0.0625 0.6171875
v 0.7029747040119778 0.4375 0.6171875
v 0.7029747040119778 0.0625 0.38281250000000006
v 0.7029747040119778 0.4375 0.38281250000000006
v 0.5 0.0625 0.265625
v 0.5 0.4375 0.265625
v 0.29702529598802224 0.0625 0.3828124999999999
v 0.29702529598802224 0.4375 0.3828124999999999
v 0.2970252959880222 0.0625 0.6171875
v 0.2970252959880222 0.4375 0.6171875
vt 0.03125 0.671875
vt 0.03125 0.4375
vt 0.234375 0.5546875
vt 0.5 0.0625
vt 0.734375 0.0625
vt 0.734375 0.4375
vt 0.5 0.4375
vt 0.03125 1
vt 0.03125 0.765625
vt 0.234225 0.8828125
vt 0.40625 0.4375
vt 0.40625 0.671875
vt 0.203125 0.5546875
vt 0.734375 0.0625
vt 0.96875 0.0625
vt 0.96875 0.4375
vt 0.734375 0.4375
vt 0.40625 0.765625
vt 0.40625 1
vt 0.203125 0.8828125
vt 0.03125 0.671875
vt 0.03125 0.4375
vt 0.234375 0.5546875
vt 0.5 0.0625
vt 0.734375 0.0625
vt 0.734375 0.4375
vt 0.5 0.4375
vt 0.03125 1
vt 0.03125 0.765625
vt 0.234225 0.8828125
vt 0.40625 0.4375
vt 0.40625 0.671875
vt 0.203125 0.5546875
vt 0.734375 0.0625
vt 0.96875 0.0625
vt 0.96875 0.4375
vt 0.734375 0.4375
vt 0.40625 0.765625
vt 0.40625 1
vt 0.203125 0.8828125
vt 0.03125 0.671875
vt 0.03125 0.4375
vt 0.234375 0.5546875
vt 0.5 0.0625
vt 0.734375 0.0625
vt 0.734375 0.4375
vt 0.5 0.4375
vt 0.03125 1
vt 0.03125 0.765625
vt 0.234375 0.8828125
vt 0.40625 0.4375
vt 0.40625 0.671875
vt 0.203125 0.5546875
vt 0.734375 0.0625
vt 0.96875 0.0625
vt 0.96875 0.4375
vt 0.734375 0.4375
vt 0.40625 0.765625
vt 0.40625 1
vt 0.203125 0.8828125
vn 0 -1 0
vn 0.5 0 0.8660254037844388
vn 0 1 0
vn 0 -1 0
vn 1 0 1.1842378929335005e-16
vn 0 1 0
vn 0 -1 0
vn 0.5000000000000003 0 -0.8660254037844387
vn 0 1 0
vn 0 -1 0
vn -0.49999999999999967 0 -0.8660254037844388
vn 0 1 0
vn 0 -1 0
vn -1 0 -1.1842378929334996e-16
vn 0 1 0
vn 0 -1 0
vn -0.5 0 0.8660254037844388
vn 0 1 0
usemtl m_1
f 5/1/1 3/2/1 1/3/1
f 3/4/2 5/5/2 6/6/2 4/7/2
f 4/8/3 6/9/3 2/10/3
f 7/11/4 5/12/4 1/13/4
f 5/14/5 7/15/5 8/16/5 6/17/5
f 6/18/6 8/19/6 2/20/6
f 9/21/7 7/22/7 1/23/7
f 7/24/8 9/25/8 10/26/8 8/27/8
f 8/28/9 10/29/9 2/30/9
f 11/31/10 9/32/10 1/33/10
f 9/34/11 11/35/11 12/36/11 10/37/11
f 10/38/12 12/39/12 2/40/12
f 13/41/13 11/42/13 1/43/13
f 11/44/14 13/45/14 14/46/14 12/47/14
f 12/48/15 14/49/15 2/50/15
f 3/51/16 13/52/16 1/53/16
f 13/54/17 3/55/17 4/56/17 14/57/17
f 14/58/18 4/59/18 2/60/18
o middle
v 0.5 0.15625 0.5
v 0.5 0.375 0.5
v 0.5 0.15625 0.765625
v 0.5 0.375 0.765625
v 0.7300379978802415 0.15625 0.6328125
v 0.7300379978802415 0.375 0.6328125
v 0.7300379978802416 0.15625 0.36718750000000006
v 0.7300379978802416 0.375 0.36718750000000006
v 0.5 0.15625 0.234375
v 0.5 0.375 0.234375
v 0.2699620021197585 0.15625 0.3671874999999999
v 0.2699620021197585 0.375 0.3671874999999999
v 0.2699620021197585 0.15625 0.6328125
v 0.2699620021197585 0.375 0.6328125
vt 0 0.703125
vt 0 0.4375
vt 0.21875 0.5703125
vt 0.46875 0.15625
vt 0.734375 0.15625
vt 0.734375 0.375
vt 0.46875 0.375
vt 0 1
vt 0 0.734375
vt 0.2300375 0.8671875
vt 0.4375 0.4375
vt 0.4375 0.703125
vt 0.21875 0.5703125
vt 0.734375 0.15625
vt 1 0.15625
vt 1 0.375
vt 0.734375 0.375
vt 0.4375 0.734375
vt 0.4375 1
vt 0.21875 0.8671875
vt 0 0.703125
vt 0 0.4375
vt 0.21875 0.5703125
vt 0.46875 0.15625
vt 0.734375 0.15625
vt 0.734375 0.375
vt 0.46875 0.375
vt 0 1
vt 0 0.734375
vt 0.2300375 0.8671875
vt 0.4375 0.4375
vt 0.4375 0.703125
vt 0.21875 0.5703125
vt 0.734375 0.15625
vt 1 0.15625
vt 1 0.375
vt 0.734375 0.375
vt 0.4375 0.734375
vt 0.4375 1
vt 0.21875 0.8671875
vt 0 0.703125
vt 0 0.4375
vt 0.21875 0.5703125
vt 0.46875 0.15625
vt 0.734375 0.15625
vt 0.734375 0.375
vt 0.46875 0.375
vt 0 1
vt 0 0.734375
vt 0.21875 0.8671875
vt 0.4375 0.4375
vt 0.4375 0.703125
vt 0.21875 0.5703125
vt 0.734375 0.15625
vt 1 0.15625
vt 1 0.375
vt 0.734375 0.375
vt 0.4375 0.734375
vt 0.4375 1
vt 0.21875 0.8671875
vn 0 -1 0
vn 0.49999999999999994 0 0.8660254037844387
vn 0 1 0
vn 0 -1 0
vn 1 0 1.0449157878825003e-16
vn 0 1 0
vn 0 -1 0
vn 0.5000000000000003 0 -0.8660254037844387
vn 0 1 0
vn 0 -1 0
vn -0.4999999999999997 0 -0.8660254037844388
vn 0 1 0
vn 0 -1 0
vn -1 0 -1.0449157878824998e-16
vn 0 1 0
vn 0 -1 0
vn -0.49999999999999994 0 0.8660254037844387
vn 0 1 0
usemtl m_1
f 19/61/19 17/62/19 15/63/19
f 17/64/20 19/65/20 20/66/20 18/67/20
f 18/68/21 20/69/21 16/70/21
f 21/71/22 19/72/22 15/73/22
f 19/74/23 21/75/23 22/76/23 20/77/23
f 20/78/24 22/79/24 16/80/24
f 23/81/25 21/82/25 15/83/25
f 21/84/26 23/85/26 24/86/26 22/87/26
f 22/88/27 24/89/27 16/90/27
f 25/91/28 23/92/28 15/93/28
f 23/94/29 25/95/29 26/96/29 24/97/29
f 24/98/30 26/99/30 16/100/30
f 27/101/31 25/102/31 15/103/31
f 25/104/32 27/105/32 28/106/32 26/107/32
f 26/108/33 28/109/33 16/110/33
f 17/111/34 27/112/34 15/113/34
f 27/114/35 17/115/35 18/116/35 28/117/35
f 28/118/36 18/119/36 16/120/36
o bottom1
v 0.5 0 0.5
v 0.5 0.5 0.5
v 0.5 0 0.671875
v 0.5 0.5 0.671875
v 0.6488481162754504 0 0.5859375
v 0.6488481162754504 0.5 0.5859375
v 0.6488481162754505 0 0.41406250000000006
v 0.6488481162754505 0.5 0.41406250000000006
v 0.5 0 0.328125
v 0.5 0.5 0.328125
v 0.35115188372454964 0 0.4140624999999999
v 0.35115188372454964 0.5 0.4140624999999999
v 0.35115188372454964 0 0.5859375
v 0.35115188372454964 0.5 0.5859375
vt 0.09375 0.609375
vt 0.09375 0.4375
vt 0.2421875 0.5234375
vt 0.5625 0
vt 0.734375 0
vt 0.734375 0.5
vt 0.5625 0.5
vt 0.09375 1
vt 0.09375 0.828125
vt 0.2421875 0.9140625
vt 0.34375 0.4375
vt 0.34375 0.609375
vt 0.1953125 0.5234375
vt 0.734375 0
vt 0.90625 0
vt 0.90625 0.5
vt 0.734375 0.5
vt 0.34375 0.828125
vt 0.34375 1
vt 0.1953125 0.9140625
vt 0.34375 0.4375
vt 0.34375 0.609375
vt 0.1953125 0.5234375
vt 0.5625 0
vt 0.734375 0
vt 0.734375 0.5
vt 0.5625 0.5
vt 0.09375 1
vt 0.09375 0.828125
vt 0.2421875 0.9140625
vt 0.09375 0.609375
vt 0.09375 0.4375
vt 0.2421875 0.5234375
vt 0.734375 0
vt 0.90625 0
vt 0.90625 0.5
vt 0.734375 0.5
vt 0.34375 0.828125
vt 0.34375 1
vt 0.1953125 0.9140625
vt 0.09375 0.609375
vt 0.09375 0.4375
vt 0.2421875 0.5234375
vt 0.5625 0
vt 0.734375 0
vt 0.734375 0.5
vt 0.5625 0.5
vt 0.09375 1
vt 0.09375 0.828125
vt 0.2421875 0.9140625
vt 0.34375 0.4375
vt 0.34375 0.609375
vt 0.1953125 0.5234375
vt 0.734375 0
vt 0.90625 0
vt 0.90625 0.5
vt 0.734375 0.5
vt 0.34375 0.828125
vt 0.34375 1
vt 0.1953125 0.9140625
vn 0 -1 0
vn 0.5 0 0.8660254037844388
vn 0 1 0
vn 0 -1 0
vn 1 0 1.614869854000228e-16
vn 0 1 0
vn 0 -1 0
vn 0.5000000000000002 0 -0.8660254037844387
vn 0 1 0
vn 0 -1 0
vn -0.4999999999999997 0 -0.8660254037844389
vn 0 1 0
vn 0 -1 0
vn -1 0 -1.6148698540002268e-16
vn 0 1 0
vn 0 -1 0
vn -0.5 0 0.8660254037844388
vn 0 1 0
usemtl m_1
f 33/121/37 31/122/37 29/123/37
f 31/124/38 33/125/38 34/126/38 32/127/38
f 32/128/39 34/129/39 30/130/39
f 35/131/40 33/132/40 29/133/40
f 33/134/41 35/135/41 36/136/41 34/137/41
f 34/138/42 36/139/42 30/140/42
f 37/141/43 35/142/43 29/143/43
f 35/144/44 37/145/44 38/146/44 36/147/44
f 36/148/45 38/149/45 30/150/45
f 39/151/46 37/152/46 29/153/46
f 37/154/47 39/155/47 40/156/47 38/157/47
f 38/158/48 40/159/48 30/160/48
f 41/161/49 39/162/49 29/163/49
f 39/164/50 41/165/50 42/166/50 40/167/50
f 40/168/51 42/169/51 30/170/51
f 31/171/52 41/172/52 29/173/52
f 41/174/53 31/175/53 32/176/53 42/177/53
f 42/178/54 32/179/54 30/180/54
o top1
v 0.5 0.5625 0.5
v 0.5 0.5 0.609375
v 0.5 0.5625 0.609375
v 0.5947215285389229 0.5 0.5546875
v 0.5947215285389229 0.5625 0.5546875
v 0.594721528538923 0.5 0.4453125
v 0.594721528538923 0.5625 0.4453125
v 0.5 0.5 0.390625
v 0.5 0.5625 0.390625
v 0.40527847146107704 0.5 0.44531249999999994
v 0.40527847146107704 0.5625 0.44531249999999994
v 0.405278471461077 0.5 0.5546875
v 0.405278471461077 0.5625 0.5546875
vt 0.625 0.5
vt 0.734375 0.5
vt 0.734375 0.5625
vt 0.625 0.5625
vt 0.15625 1
vt 0.15625 0.890625
vt 0.25 0.9453125
vt 0.734375 0.5
vt 0.84375 0.5
vt 0.84375 0.5625
vt 0.734375 0.5625
vt 0.28125 0.890625
vt 0.28125 1
vt 0.1875 0.9453125
vt 0.625 0.5
vt 0.734375 0.5
vt 0.734375 0.5625
vt 0.625 0.5625
vt 0.15625 1
vt 0.15625 0.890625
vt 0.25 0.9453125
vt 0.734375 0.5
vt 0.84375 0.5
vt 0.84375 0.5625
vt 0.734375 0.5625
vt 0.28125 0.890625
vt 0.28125 1
vt 0.1875 0.9453125
vt 0.625 0.5
vt 0.734375 0.5
vt 0.734375 0.5625
vt 0.625 0.5625
vt 0.15625 1
vt 0.15625 0.890625
vt 0.25 0.9453125
vt 0.734375 0.5
vt 0.84375 0.5
vt 0.84375 0.5625
vt 0.734375 0.5625
vt 0.28125 0.890625
vt 0.28125 1
vt 0.1875 0.9453125
vn 0.5000000000000001 0 0.8660254037844388
vn 0 1 0
vn 1 0 2.537652627714644e-16
vn 0 1 0
vn 0.5000000000000001 0 -0.8660254037844386
vn 0 1 0
vn -0.49999999999999967 0 -0.8660254037844388
vn 0 1 0
vn -1 0 -2.5376526277146424e-16
vn 0 1 0
vn -0.49999999999999994 0 0.8660254037844387
vn 0 1 0
usemtl m_1
f 44/181/55 46/182/55 47/183/55 45/184/55
f 45/185/56 47/186/56 43/187/56
f 46/188/57 48/189/57 49/190/57 47/191/57
f 47/192/58 49/193/58 43/194/58
f 48/195/59 50/196/59 51/197/59 49/198/59
f 49/199/60 51/200/60 43/201/60
f 50/202/61 52/203/61 53/204/61 51/205/61
f 51/206/62 53/207/62 43/208/62
f 52/209/63 54/210/63 55/211/63 53/212/63
f 53/213/64 55/214/64 43/215/64
f 54/216/65 44/217/65 45/218/65 55/219/65
f 55/220/66 45/221/66 43/222/66
o top3
v 0.5 0.75 0.5
v 0.5 0.8125 0.5
v 0.5 0.75 0.609375
v 0.5 0.8125 0.609375
v 0.5947215285389229 0.75 0.5546875
v 0.5947215285389229 0.8125 0.5546875
v 0.594721528538923 0.75 0.4453125
v 0.594721528538923 0.8125 0.4453125
v 0.5 0.75 0.390625
v 0.5 0.8125 0.390625
v 0.40527847146107704 0.75 0.44531249999999994
v 0.40527847146107704 0.8125 0.44531249999999994
v 0.405278471461077 0.75 0.5546875
v 0.405278471461077 0.8125 0.5546875
vt 0.15625 0.703125
vt 0.15625 0.59375
vt 0.25 0.6484375
vt 0.625 0.75
vt 0.734375 0.75
vt 0.734375 0.8125
vt 0.625 0.8125
vt 0.15625 1
vt 0.15625 0.890625
vt 0.25 0.9453125
vt 0.28125 0.59375
vt 0.28125 0.703125
vt 0.1875 0.6484375
vt 0.734375 0.75
vt 0.84375 0.75
vt 0.84375 0.8125
vt 0.734375 0.8125
vt 0.28125 0.890625
vt 0.28125 1
vt 0.1875 0.9453125
vt 0.15625 0.703125
vt 0.15625 0.59375
vt 0.25 0.6484375
vt 0.625 0.75
vt 0.734375 0.75
vt 0.734375 0.8125
vt 0.625 0.8125
vt 0.15625 1
vt 0.15625 0.890625
vt 0.25 0.9453125
vt 0.28125 0.59375
vt 0.28125 0.703125
vt 0.1875 0.6484375
vt 0.734375 0.75
vt 0.84375 0.75
vt 0.84375 0.8125
vt 0.734375 0.8125
vt 0.28125 0.890625
vt 0.28125 1
vt 0.1875 0.9453125
vt 0.15625 0.703125
vt 0.15625 0.59375
vt 0.25 0.6484375
vt 0.625 0.75
vt 0.734375 0.75
vt 0.734375 0.8125
vt 0.625 0.8125
vt 0.15625 1
vt 0.15625 0.890625
vt 0.25 0.9453125
vt 0.28125 0.59375
vt 0.28125 0.703125
vt 0.1875 0.6484375
vt 0.734375 0.75
vt 0.84375 0.75
vt 0.84375 0.8125
vt 0.734375 0.8125
vt 0.28125 0.890625
vt 0.28125 1
vt 0.1875 0.9453125
vn 0 -1 0
vn 0.5000000000000001 0 0.8660254037844388
vn 0 1 0
vn 0 -1 0
vn 1 0 2.537652627714644e-16
vn 0 1 0
vn 0 -1 0
vn 0.5000000000000001 0 -0.8660254037844386
vn 0 1 0
vn 0 -1 0
vn -0.49999999999999967 0 -0.8660254037844388
vn 0 1 0
vn 0 -1 0
vn -1 0 -2.5376526277146424e-16
vn 0 1 0
vn 0 -1 0
vn -0.49999999999999994 0 0.8660254037844387
vn 0 1 0
usemtl m_1
f 60/223/67 58/224/67 56/225/67
f 58/226/68 60/227/68 61/228/68 59/229/68
f 59/230/69 61/231/69 57/232/69
f 62/233/70 60/234/70 56/235/70
f 60/236/71 62/237/71 63/238/71 61/239/71
f 61/240/72 63/241/72 57/242/72
f 64/243/73 62/244/73 56/245/73
f 62/246/74 64/247/74 65/248/74 63/249/74
f 63/250/75 65/251/75 57/252/75
f 66/253/76 64/254/76 56/255/76
f 64/256/77 66/257/77 67/258/77 65/259/77
f 65/260/78 67/261/78 57/262/78
f 68/263/79 66/264/79 56/265/79
f 66/266/80 68/267/80 69/268/80 67/269/80
f 67/270/81 69/271/81 57/272/81
f 58/273/82 68/274/82 56/275/82
f 68/276/83 58/277/83 59/278/83 69/279/83
f 69/280/84 59/281/84 57/282/84
o top2
v 0.5 0.875 0.5
v 0.5 0.5625 0.578125
v 0.5 0.875 0.578125
v 0.5676582346706592 0.5625 0.5390625
v 0.5676582346706592 0.875 0.5390625
v 0.5676582346706592 0.5625 0.4609375
v 0.5676582346706592 0.875 0.4609375
v 0.5 0.5625 0.421875
v 0.5 0.875 0.421875
v 0.43234176532934077 0.5625 0.46093749999999994
v 0.43234176532934077 0.875 0.46093749999999994
v 0.43234176532934077 0.5625 0.5390625
v 0.43234176532934077 0.875 0.5390625
vt 0.65625 0.5625
vt 0.734375 0.5625
vt 0.734375 0.875
vt 0.65625 0.875
vt 0.15625 0.8125
vt 0.15625 0.734375
vt 0.21875 0.7734375
vt 0.734375 0.5625
vt 0.8125 0.5625
vt 0.8125 0.875
vt 0.734375 0.875
vt 0.65625 0.5625
vt 0.734375 0.5625
vt 0.734375 0.875
vt 0.65625 0.875
vt 0.15625 0.8125
vt 0.15625 0.734375
vt 0.21875 0.7734375
vt 0.734375 0.5625
vt 0.8125 0.5625
vt 0.8125 0.875
vt 0.734375 0.875
vt 0.25 0.734375
vt 0.25 0.8125
vt 0.1875 0.7734375
vt 0.65625 0.5625
vt 0.734375 0.5625
vt 0.734375 0.875
vt 0.65625 0.875
vt 0.15625 0.8125
vt 0.15625 0.734375
vt 0.21875 0.7734375
vt 0.734375 0.5625
vt 0.8125 0.5625
vt 0.8125 0.875
vt 0.734375 0.875
vt 0.25 0.734375
vt 0.25 0.8125
vt 0.1875 0.7734375
vt 0.25 0.734375
vt 0.25 0.8125
vt 0.1875 0.7734375
vn 0.5000000000000001 0 0.8660254037844388
vn 0 1 0
vn 1 0 1.7763568394002506e-16
vn 0.5000000000000002 0 -0.8660254037844386
vn 0 1 0
vn -0.49999999999999967 0 -0.8660254037844389
vn 0 1 0
vn -1 0 0
vn 0 1 0
vn -0.5000000000000001 0 0.8660254037844388
vn 0 1 0
vn 0 1 0
usemtl m_1
f 71/283/85 73/284/85 74/285/85 72/286/85
f 72/287/86 74/288/86 70/289/86
f 73/290/87 75/291/87 76/292/87 74/293/87
f 75/294/88 77/295/88 78/296/88 76/297/88
f 76/298/89 78/299/89 70/300/89
f 77/301/90 79/302/90 80/303/90 78/304/90
f 78/305/91 80/306/91 70/307/91
f 79/308/92 81/309/92 82/310/92 80/311/92
f 80/312/93 82/313/93 70/314/93
f 81/315/94 71/316/94 72/317/94 82/318/94
f 82/319/95 72/320/95 70/321/95
f 74/322/96 76/323/96 70/324/96