# Made in Blockbench 4.2.4
mtllib broken_rusty_round_barrel_down.mtl

o barrel1
v 0.5 0.90625 1.0625
v 0.5 0.28125 1.0625
v 0.5 0.90625 0.953125
v 0.5 0.28125 0.953125
v 0.78125 0.90625 0.9871392896287468
v 0.78125 0.28125 0.9871392896287468
v 0.7265625 0.90625 0.8924177610898238
v 0.7265625 0.28125 0.8924177610898238
v 0.9871392896287468 0.90625 0.78125
v 0.9871392896287468 0.28125 0.78125
v 0.8924177610898237 0.90625 0.7265625
v 0.8924177610898237 0.28125 0.7265625
v 1.0625 0.90625 0.5
v 1.0625 0.28125 0.5
v 0.953125 0.90625 0.5
v 0.953125 0.28125 0.5
v 0.9871392896287468 0.90625 0.2187500000000001
v 0.9871392896287468 0.28125 0.2187500000000001
v 0.8924177610898238 0.90625 0.2734375000000001
v 0.8924177610898238 0.28125 0.2734375000000001
v 0.78125 0.90625 0.012860710371253248
v 0.78125 0.28125 0.012860710371253248
v 0.7265625 0.90625 0.10758223891017615
v 0.7265625 0.28125 0.10758223891017615
v 0.5 0.90625 -0.0625
v 0.5 0.28125 -0.0625
v 0.5 0.90625 0.046874999999999944
v 0.5 0.28125 0.046874999999999944
v 0.21874999999999994 0.90625 0.012860710371253303
v 0.21874999999999994 0.28125 0.012860710371253303
v 0.2734374999999999 0.90625 0.10758223891017621
v 0.2734374999999999 0.28125 0.10758223891017621
v 0.012860710371253359 0.90625 0.21874999999999978
v 0.10758223891017626 0.90625 0.2734374999999998
v -0.0625 0.90625 0.4999999999999999
v -0.0625 0.28125 0.4999999999999999
v 0.046874999999999944 0.90625 0.4999999999999999
v 0.046874999999999944 0.28125 0.4999999999999999
v 0.012860710371253303 0.90625 0.78125
v 0.012860710371253303 0.28125 0.78125
v 0.10758223891017621 0.90625 0.7265625
v 0.10758223891017621 0.28125 0.7265625
v 0.21874999999999978 0.90625 0.9871392896287465
v 0.21874999999999978 0.28125 0.9871392896287465
v 0.2734374999999998 0.90625 0.8924177610898237
v 0.2734374999999998 0.28125 0.8924177610898237
v 1 0 0.5
v 0.9330127018922193 0 0.2500000000000001
v 0.848815787635399 0 0.29861111111111127
v 0.9027777777777778 0 0.5
v 0.75 0 0.06698729810778076
v 0.7013888888888888 0 0.151184212364601
v 0.5 0 0
v 0.5 0 0.09722222222222221
v 0 0 0.4999999999999999
v 0.09722222222222221 0 0.4999999999999999
v 0.06698729810778076 0 0.75
v 0.15118421236460106 0 0.7013888888888888
v 0.24999999999999978 0 0.9330127018922191
v 0.2986111111111109 0 0.8488157876353989
v 0.5 0 1
v 0.5 0 0.9027777777777778
v 0.75 0 0.9330127018922194
v 0.7013888888888888 0 0.848815787635399
v 0.9330127018922193 0 0.75
v 0.8488157876353989 0 0.7013888888888888
v 0.8488157876353989 1.1875 0.29861111111111127
v 0.7013888888888888 1.1875 0.15118421236460106
v 0.75 1.1875 0.0669872981077807
v 0.9330127018922193 1.1875 0.2500000000000001
v 0.9027777777777778 1.1875 0.5
v 1 1.1875 0.5
v 0.8488157876353989 1.1875 0.7013888888888888
v 0.9330127018922193 1.1875 0.75
v 0.7013888888888888 1.1875 0.8488157876353989
v 0.75 1.1875 0.9330127018922193
v 0.5 1.1875 0.9027777777777778
v 0.5 1.1875 1
v 0.2986111111111109 1.1875 0.8488157876353989
v 0.24999999999999983 1.1875 0.9330127018922192
v 0.15118421236460106 1.1875 0.7013888888888888
v 0.06698729810778076 1.1875 0.75
v 0.09722222222222221 1.1875 0.4999999999999999
v 0 1.1875 0.4999999999999999
v 0.1511842123646011 1.1875 0.2986111111111109
v 0.06698729810778081 1.1875 0.24999999999999983
v 0.29861111111111105 1.1875 0.15118421236460106
v 0.24999999999999994 1.1875 0.06698729810778076
v 0.5 1.1875 0.09722222222222221
v 0.5 1.1875 0
vt 0.625 0.859375
vt 0.625 0.546875
vt 0.484375 0.546875
vt 0.484375 0.859375
vt 0 0.09375
vt 0 0.40625
vt 0.109375 0.40625
vt 0.109375 0.09375
vt 1 0.046875
vt 0.9878487637456459 0
vt 0.8871512362543542 0
vt 0.875 0.046875
vt 0.6371512362543542 0
vt 0.625 0.046875
vt 0.75 0.046875
vt 0.7378487637456458 0
vt 0.125 0.046875
vt 0.11284876374564584 0
vt 0.012151236254354228 0
vt 0 0.046875
vt 0.90625 0.859375
vt 0.90625 0.546875
vt 0.765625 0.546875
vt 0.765625 0.859375
vt 0.21875 0.09375
vt 0.21875 0.40625
vt 0.328125 0.40625
vt 0.328125 0.09375
vt 0.25 0.046875
vt 0.23784876374564584 0
vt 0.13715123625435421 0
vt 0.125 0.046875
vt 0.3871512362543542 0
vt 0.375 0.046875
vt 0.5 0.046875
vt 0.4878487637456458 0
vt 0.59375 0.859375
vt 0.59375 0.546875
vt 0.453125 0.546875
vt 0.453125 0.859375
vt 0.078125 0.09375
vt 0.078125 0.40625
vt 0.1875 0.40625
vt 0.1875 0.09375
vt 0.375 0.046875
vt 0.36284876374564584 0
vt 0.2621512362543542 0
vt 0.25 0.046875
vt 0.2621512362543542 0
vt 0.25 0.046875
vt 0.375 0.046875
vt 0.3628487637456458 0
vt 0.390625 0.859375
vt 0.390625 0.546875
vt 0.25 0.546875
vt 0.25 0.859375
vt 0.3125 0.09375
vt 0.3125 0.40625
vt 0.421875 0.40625
vt 0.421875 0.09375
vt 0.5 0.046875
vt 0.48784876374564584 0
vt 0.3871512362543542 0
vt 0.375 0.046875
vt 0.13715123625435421 0
vt 0.125 0.046875
vt 0.25 0.046875
vt 0.23784876374564579 0
vt 0.140625 0.859375
vt 0.140625 0.546875
vt 0 0.546875
vt 0 0.859375
vt 0.03125 0.09375
vt 0.03125 0.40625
vt 0.140625 0.40625
vt 0.140625 0.09375
vt 0.125 0.046875
vt 0.11284876374564584 0
vt 0.012151236254354228 0
vt 0 0.046875
vt 0.012151236254354214 0
vt 0 0.046875
vt 0.125 0.046875
vt 0.11284876374564579 0
vt 0.3125 0.859375
vt 0.3125 0.546875
vt 0.171875 0.546875
vt 0.171875 0.859375
vt 0.25 0.09375
vt 0.25 0.40625
vt 0.359375 0.40625
vt 0.359375 0.09375
vt 0.25 0.046875
vt 0.23784876374564584 0
vt 0.13715123625435421 0
vt 0.125 0.046875
vt 0.375 0.046875
vt 0.36284876374564584 0
vt 0.2621512362543542 0
vt 0.25 0.046875
vt 0.5 0.046875
vt 0.4878487637456459 0
vt 0.3871512362543542 0
vt 0.375 0.046875
vt 0.140625 0.859375
vt 0.140625 0.546875
vt 0 0.546875
vt 0 0.859375
vt 0.046875 0.09375
vt 0.046875 0.40625
vt 0.15625 0.40625
vt 0.15625 0.09375
vt 0.625 0.046875
vt 0.6128487637456459 0
vt 0.5121512362543542 0
vt 0.5 0.046875
vt 0.012151236254354214 0
vt 0 0.046875
vt 0.125 0.046875
vt 0.11284876374564579 0
vt 0.53125 0.859375
vt 0.53125 0.546875
vt 0.390625 0.546875
vt 0.390625 0.859375
vt 0.09375 0.09375
vt 0.09375 0.40625
vt 0.203125 0.40625
vt 0.203125 0.09375
vt 0.75 0.046875
vt 0.7378487637456459 0
vt 0.6371512362543542 0
vt 0.625 0.046875
vt 0.8871512362543542 0
vt 0.875 0.046875
vt 1 0.046875
vt 0.9878487637456459 0
vt 0.765625 0.859375
vt 0.765625 0.546875
vt 0.625 0.546875
vt 0.625 0.859375
vt 0.28125 0.09375
vt 0.28125 0.40625
vt 0.390625 0.40625
vt 0.390625 0.09375
vt 0.875 0.046875
vt 0.8628487637456459 0
vt 0.7621512362543542 0
vt 0.75 0.046875
vt 0.7621512362543542 0
vt 0.75 0.046875
vt 0.875 0.046875
vt 0.8628487637456458 0
vt 0.484375 0.859375
vt 0.4921869969090089 1
vt 0.6171880030909911 1
vt 0.625 0.859375
vt 0.5 0.265625
vt 0.5060762211949772 0.40625
vt 0.6032987788050228 0.40625
vt 0.609375 0.265625
vt 0.765625 0.859375
vt 0.7734369969090089 1
vt 0.8984380030909911 1
vt 0.90625 0.859375
vt 0.71875 0.265625
vt 0.7248262211949772 0.40625
vt 0.8220487788050228 0.40625
vt 0.828125 0.265625
vt 0.453125 0.859375
vt 0.4609369969090089 1
vt 0.5859380030909911 1
vt 0.59375 0.859375
vt 0.578125 0.265625
vt 0.5842012211949772 0.40625
vt 0.6814237788050228 0.40625
vt 0.6875 0.265625
vt 0.25 0.859375
vt 0.2578119969090089 1
vt 0.3828130030909911 1
vt 0.390625 0.859375
vt 0.8125 0.265625
vt 0.8185762211949772 0.40625
vt 0.9157987788050228 0.40625
vt 0.921875 0.265625
vt 0 0.859375
vt 0.007811996909008911 1
vt 0.1328130030909911 1
vt 0.140625 0.859375
vt 0.53125 0.265625
vt 0.5373262211949772 0.40625
vt 0.6345487788050228 0.40625
vt 0.640625 0.265625
vt 0 0.859375
vt 0.007811996909008911 1
vt 0.1328130030909911 1
vt 0.140625 0.859375
vt 0.546875 0.265625
vt 0.5529512211949772 0.40625
vt 0.6501737788050228 0.40625
vt 0.65625 0.265625
vt 0.390625 0.859375
vt 0.3984369969090089 1
vt 0.5234380030909911 1
vt 0.53125 0.859375
vt 0.59375 0.265625
vt 0.5998262211949772 0.40625
vt 0.6970487788050228 0.40625
vt 0.703125 0.265625
vt 0.625 0.859375
vt 0.6328119969090089 1
vt 0.7578130030909911 1
vt 0.765625 0.859375
vt 0.78125 0.265625
vt 0.7873262211949772 0.40625
vt 0.8845487788050228 0.40625
vt 0.890625 0.265625
vt 0.609375 0.265625
vt 0.6032987788050228 0.125
vt 0.5060762211949772 0.125
vt 0.5 0.265625
vt 0.625 0.546875
vt 0.6171880030909911 0.40625
vt 0.4921869969090089 0.40625
vt 0.484375 0.546875
vt 0.96875 0.265625
vt 0.9626737788050228 0.125
vt 0.8654512211949772 0.125
vt 0.859375 0.265625
vt 0.4375 0.546875
vt 0.4296880030909911 0.40625
vt 0.3046869969090089 0.40625
vt 0.296875 0.546875
vt 0.828125 0.265625
vt 0.8220487788050228 0.125
vt 0.7248262211949772 0.125
vt 0.71875 0.265625
vt 0.90625 0.546875
vt 0.8984380030909911 0.40625
vt 0.7734369969090089 0.40625
vt 0.765625 0.546875
vt 0.6875 0.265625
vt 0.6814237788050228 0.125
vt 0.5842012211949772 0.125
vt 0.578125 0.265625
vt 0.59375 0.546875
vt 0.5859380030909911 0.40625
vt 0.4609369969090089 0.40625
vt 0.453125 0.546875
vt 0.921875 0.265625
vt 0.9157987788050228 0.125
vt 0.8185762211949772 0.125
vt 0.8125 0.265625
vt 0.390625 0.546875
vt 0.3828130030909911 0.40625
vt 0.2578119969090089 0.40625
vt 0.25 0.546875
vt 0.640625 0.265625
vt 0.6345487788050228 0.125
vt 0.5373262211949772 0.125
vt 0.53125 0.265625
vt 0.140625 0.546875
vt 0.1328130030909911 0.40625
vt 0.007811996909008911 0.40625
vt 0 0.546875
vt 0.859375 0.265625
vt 0.8532987788050228 0.125
vt 0.7560762211949772 0.125
vt 0.75 0.265625
vt 0.3125 0.546875
vt 0.3046880030909911 0.40625
vt 0.1796869969090089 0.40625
vt 0.171875 0.546875
vt 0.609375 0.265625
vt 0.6032987788050228 0.125
vt 0.5060762211949772 0.125
vt 0.5 0.265625
vt 0.453125 0.546875
vt 0.4453130030909911 0.40625
vt 0.3203119969090089 0.40625
vt 0.3125 0.546875
vt 1 0.265625
vt 0.9939237788050228 0.125
vt 0.8967012211949772 0.125
vt 0.890625 0.265625
vt 0.90625 0.546875
vt 0.8984380030909911 0.40625
vt 0.7734369969090089 0.40625
vt 0.765625 0.546875
vt 0.65625 0.265625
vt 0.6501737788050228 0.125
vt 0.5529512211949772 0.125
vt 0.546875 0.265625
vt 0.140625 0.546875
vt 0.1328130030909911 0.40625
vt 0.007811996909008911 0.40625
vt 0 0.546875
vt 0.703125 0.265625
vt 0.6970487788050228 0.125
vt 0.5998262211949772 0.125
vt 0.59375 0.265625
vt 0.53125 0.546875
vt 0.5234380030909911 0.40625
vt 0.3984369969090089 0.40625
vt 0.390625 0.546875
vt 0.890625 0.265625
vt 0.8845487788050228 0.125
vt 0.7873262211949772 0.125
vt 0.78125 0.265625
vt 0.765625 0.546875
vt 0.7578130030909911 0.40625
vt 0.6328119969090089 0.40625
vt 0.625 0.546875
vt 0.38400228909062456 0.09375
vt 0.359375 0.234375
vt 0.40692987948035686 0.234375
vt 0.4375 0.09375
vt 0.390625 0.40625
vt 0.3659977109093755 0.265625
vt 0.3125 0.265625
vt 0.34307012051964314 0.40625
vt 0.390625 0.40625
vt 0.390625 0.09375
vt 0.3359375 0.09375
vt 0.3359375 0.40625
vt 0.4609375 0.328125
vt 0.3203125 0.328125
vt 0.33398354494262644 0.375
vt 0.4472664550573736 0.375
vt 0.3125 0.265625
vt 0.34307012051964314 0.40625
vt 0.390625 0.40625
vt 0.3659977109093755 0.265625
vt 0.4707039550573735 0.203125
vt 0.3574210449426265 0.203125
vt 0.34375 0.25
vt 0.484375 0.25
vt 0.2988289550573735 0.203125
vt 0.1855460449426265 0.203125
vt 0.171875 0.25
vt 0.3125 0.25
vt 0.046875 0.09375
vt 0.046875 0.40625
vt 0.1015625 0.40625
vt 0.1015625 0.09375
vt 0.0859375 0.09375
vt 0.0859375 0.40625
vt 0.140625 0.40625
vt 0.140625 0.09375
vt 0.42255487948035686 0.40625
vt 0.453125 0.265625
vt 0.3996272890906245 0.265625
vt 0.375 0.40625
vn 0.25881904510252074 0 0.9659258262890683
vn -0.2588190451025204 0 -0.9659258262890684
vn 0 1 0
vn 0 -1 0
vn 0 1 0
vn 0.9659258262890683 0 0.25881904510252074
vn -0.9659258262890684 0 -0.2588190451025209
vn 0 1 0
vn 0 -1 0
vn 0.9659258262890683 0 -0.2588190451025208
vn -0.9659258262890684 0 0.2588190451025205
vn 0 1 0
vn 0 -1 0
vn 0.7071067811865477 0 -0.7071067811865474
vn -0.7071067811865478 0 0.7071067811865474
vn 0 1 0
vn 0 -1 0
vn 0.25881904510252074 0 -0.9659258262890683
vn -0.2588190451025207 0 0.9659258262890684
vn 0 1 0
vn 0 -1 0
vn -0.2588190451025209 0 -0.9659258262890684
vn 0.2588190451025208 0 0.9659258262890684
vn 0 1 0
vn 0 1 0
vn 0 1 0
vn -0.9659258262890683 0 0.25881904510252085
vn 0.9659258262890684 0 -0.2588190451025208
vn 0 1 0
vn 0 -1 0
vn -0.7071067811865476 0 0.7071067811865475
vn 0.7071067811865479 0 -0.7071067811865472
vn 0 1 0
vn 0 -1 0
vn -0.25881904510252124 0 0.9659258262890682
vn 0.2588190451025207 0 -0.9659258262890684
vn 0 1 0
vn 0 -1 0
vn 0.25305497568542357 -0.20986978363691308 0.9444140263661088
vn -0.25503451407837135 0.17038426643518256 -0.9518017642241234
vn 0.9444140263661086 -0.20986978363691317 0.2530549756854239
vn -0.9518017642241232 0.1703842664351825 -0.25503451407837185
vn 0.9444140263661086 -0.20986978363691303 -0.25305497568542407
vn -0.9518017642241234 0.17038426643518256 0.2550345140783715
vn 0.6913590506806849 -0.2098697836369131 -0.6913590506806846
vn -0.6967672501457519 0.17038426643518265 0.6967672501457514
vn 0.2530549756854242 -0.20986978363691342 -0.9444140263661086
vn -0.25503451407837135 0.17038426643518273 0.9518017642241234
vn -0.9444140263661087 -0.20986978363691305 0.25305497568542407
vn 0.9518017642241233 0.17038426643518256 -0.2550345140783715
vn -0.6913590506806849 -0.20986978363691314 0.6913590506806846
vn 0.696767250145752 0.17038426643518248 -0.6967672501457511
vn -0.2530549756854245 -0.2098697836369132 0.9444140263661085
vn 0.2550345140783715 0.17038426643518254 -0.9518017642241233
vn -0.25503451407837185 -0.1703842664351825 -0.9518017642241232
vn 0.2530549756854239 0.20986978363691317 0.9444140263661086
vn -0.6967672501457516 -0.17038426643518292 -0.6967672501457516
vn 0.6913590506806847 0.20986978363691317 0.6913590506806847
vn -0.9518017642241232 -0.17038426643518254 -0.25503451407837185
vn 0.9444140263661086 0.20986978363691303 0.25305497568542396
vn -0.9518017642241232 -0.17038426643518248 0.25503451407837197
vn 0.9444140263661086 0.2098697836369132 -0.253054975685424
vn -0.696767250145752 -0.17038426643518295 0.6967672501457511
vn 0.691359050680685 0.2098697836369131 -0.6913590506806846
vn -0.25503451407837163 -0.17038426643518276 0.9518017642241234
vn 0.25305497568542396 0.20986978363691303 -0.9444140263661086
vn 0.2550345140783715 -0.17038426643518273 0.9518017642241234
vn -0.25305497568542407 0.20986978363691314 -0.9444140263661085
vn 0.6967672501457514 -0.17038426643518267 0.6967672501457518
vn -0.6913590506806847 0.20986978363691328 -0.6913590506806849
vn 0.9518017642241234 -0.17038426643518254 0.25503451407837174
vn -0.9444140263661087 0.20986978363691305 -0.2530549756854243
vn 0.9518017642241233 -0.17038426643518273 -0.2550345140783715
vn -0.9444140263661087 0.2098697836369132 0.25305497568542407
vn 0.696767250145752 -0.1703842664351827 -0.6967672501457511
vn -0.691359050680685 0.20986978363691294 0.6913590506806845
vn 0.2550345140783716 -0.17038426643518256 -0.9518017642241234
vn -0.2530549756854242 0.209869783636913 0.9444140263661085
vn -0.5000000000000004 -8.723180907769086e-17 0.8660254037844384
vn 0.8660254037844385 -1.2688263138573224e-16 -0.5000000000000003
vn -0.4999999999999999 0 0.8660254037844389
vn 0 -1 0
vn -1 0 0
vn 0 -1 0
vn 0 -1 0
vn -0.8660254037844387 0 0.4999999999999999
vn 0 0 -1
vn 0 0 -1
usemtl side
f 6/1/1 5/2/1 1/3/1 2/4/1
f 7/5/2 8/6/2 4/7/2 3/8/2
f 76/9/3 75/10/3 77/11/3 78/12/3
f 64/13/4 63/14/4 61/15/4 62/16/4
f 74/17/5 73/18/5 75/19/5 76/20/5
f 14/21/6 13/22/6 9/23/6 10/24/6
f 15/25/7 16/26/7 12/27/7 11/28/7
f 72/29/8 71/30/8 73/31/8 74/32/8
f 50/33/9 47/34/9 65/35/9 66/36/9
f 18/37/10 17/38/10 13/39/10 14/40/10
f 19/41/11 20/42/11 16/43/11 15/44/11
f 70/45/12 67/46/12 71/47/12 72/48/12
f 49/49/13 48/50/13 47/51/13 50/52/13
f 22/53/14 21/54/14 17/55/14 18/56/14
f 23/57/15 24/58/15 20/59/15 19/60/15
f 69/61/16 68/62/16 67/63/16 70/64/16
f 52/65/17 51/66/17 48/67/17 49/68/17
f 26/69/18 25/70/18 21/71/18 22/72/18
f 27/73/19 28/74/19 24/75/19 23/76/19
f 90/77/20 89/78/20 68/79/20 69/80/20
f 54/81/21 53/82/21 51/83/21 52/84/21
f 30/85/22 29/86/22 25/87/22 26/88/22
f 31/89/23 32/90/23 28/91/23 27/92/23
f 88/93/24 87/94/24 89/95/24 90/96/24
f 86/97/25 85/98/25 87/99/25 88/100/25
f 84/101/26 83/102/26 85/103/26 86/104/26
f 40/105/27 39/106/27 35/107/27 36/108/27
f 41/109/28 42/110/28 38/111/28 37/112/28
f 82/113/29 81/114/29 83/115/29 84/116/29
f 58/117/30 57/118/30 55/119/30 56/120/30
f 44/121/31 43/122/31 39/123/31 40/124/31
f 45/125/32 46/126/32 42/127/32 41/128/32
f 80/129/33 79/130/33 81/131/33 82/132/33
f 60/133/34 59/134/34 57/135/34 58/136/34
f 2/137/35 1/138/35 43/139/35 44/140/35
f 3/141/36 4/142/36 46/143/36 45/144/36
f 78/145/37 77/146/37 79/147/37 80/148/37
f 62/149/38 61/150/38 59/151/38 60/152/38
f 2/153/39 61/154/39 63/155/39 6/156/39
f 8/157/40 64/158/40 62/159/40 4/160/40
f 10/161/41 65/162/41 47/163/41 14/164/41
f 16/165/42 50/166/42 66/167/42 12/168/42
f 14/169/43 47/170/43 48/171/43 18/172/43
f 20/173/44 49/174/44 50/175/44 16/176/44
f 18/177/45 48/178/45 51/179/45 22/180/45
f 24/181/46 52/182/46 49/183/46 20/184/46
f 22/185/47 51/186/47 53/187/47 26/188/47
f 28/189/48 54/190/48 52/191/48 24/192/48
f 36/193/49 55/194/49 57/195/49 40/196/49
f 42/197/50 58/198/50 56/199/50 38/200/50
f 40/201/51 57/202/51 59/203/51 44/204/51
f 46/205/52 60/206/52 58/207/52 42/208/52
f 44/209/53 59/210/53 61/211/53 2/212/53
f 4/213/54 62/214/54 60/215/54 46/216/54
f 3/217/55 77/218/55 75/219/55 7/220/55
f 5/221/56 76/222/56 78/223/56 1/224/56
f 7/225/57 75/226/57 73/227/57 11/228/57
f 9/229/58 74/230/58 76/231/58 5/232/58
f 11/233/59 73/234/59 71/235/59 15/236/59
f 13/237/60 72/238/60 74/239/60 9/240/60
f 15/241/61 71/242/61 67/243/61 19/244/61
f 17/245/62 70/246/62 72/247/62 13/248/62
f 19/249/63 67/250/63 68/251/63 23/252/63
f 21/253/64 69/254/64 70/255/64 17/256/64
f 23/257/65 68/258/65 89/259/65 27/260/65
f 25/261/66 90/262/66 69/263/66 21/264/66
f 27/265/67 89/266/67 87/267/67 31/268/67
f 29/269/68 88/270/68 90/271/68 25/272/68
f 31/273/69 87/274/69 85/275/69 34/276/69
f 33/277/70 86/278/70 88/279/70 29/280/70
f 34/281/71 85/282/71 83/283/71 37/284/71
f 35/285/72 84/286/72 86/287/72 33/288/72
f 37/289/73 83/290/73 81/291/73 41/292/73
f 39/293/74 82/294/74 84/295/74 35/296/74
f 41/297/75 81/298/75 79/299/75 45/300/75
f 43/301/76 80/302/76 82/303/76 39/304/76
f 45/305/77 79/306/77 77/307/77 3/308/77
f 1/309/78 78/310/78 80/311/78 43/312/78
f 12/313/79 66/314/79 65/315/79 10/316/79
f 64/317/80 8/318/80 6/319/80 63/320/80
f 10/321/81 9/322/81 11/323/81 12/324/81
f 9/325/82 5/326/82 7/327/82 11/328/82
f 26/329/83 53/330/83 54/331/83 28/332/83
f 31/333/84 34/334/84 33/335/84 29/336/84
f 34/337/85 37/338/85 35/339/85 33/340/85
f 29/341/86 30/342/86 32/343/86 31/344/86
f 37/345/87 38/346/87 36/347/87 35/348/87
f 55/349/88 36/350/88 38/351/88 56/352/88
o barrel2
v 0.5 0.28125 -0.0625
v 0.5 0.28125 0.046874999999999944
v 0.21874999999999994 0.28125 0.012860710371253303
v 0.2734374999999999 0.28125 0.10758223891017621
v 0.23437499999999994 0.140625 0.03992400423951703
v 0.5 0.140625 -0.03125
v 0.28602430555555547 0.140625 0.12938322563738863
v 0.5 0.140625 0.07204861111111108
vt 0.7530381105974886 0.3359375
vt 0.8563368894025114 0.3359375
vt 0.859375 0.265625
vt 0.75 0.265625
vt 0.17578099845450446 0.9296875
vt 0.30859400154549554 0.9296875
vt 0.3125 0.859375
vt 0.171875 0.859375
vt 0.3984375 0.3828125
vt 0.38674342716462284 0.3125
vt 0.3359375 0.3125
vt 0.3504534791898922 0.3828125
vt 0.646484375 0.7231956562974203
vt 0.779296875 0.7578125
vt 0.779296875 0.7075712642504183
vt 0.672309375 0.6796875
vn 0.2550345140783716 0.17038426643518273 0.9518017642241233
vn -0.253054975685424 -0.20986978363691317 -0.9444140263661086
vn -0.8660254037844387 -1.9737298215558355e-16 0.49999999999999994
vn 0 -1 0
usemtl side
f 97/353/89 98/354/89 92/355/89 94/356/89
f 96/357/90 95/358/90 93/359/90 91/360/90
f 97/361/91 94/362/91 93/363/91 95/364/91
f 95/365/92 96/366/92 98/367/92 97/368/92
o barrel3
v 0.21874999999999994 0.375 0.012860710371253303
v 0.21874999999999994 0.28125 0.012860710371253303
v 0.012860710371253359 0.375 0.21874999999999978
v 0.012860710371253359 0.28125 0.21874999999999978
v -0.0625 0.375 0.4999999999999999
v -0.0625 0.28125 0.4999999999999999
v 0.06022147464071481 0.28125 0.24609374999999978
v -0.007812500000000028 0.28125 0.4999999999999999
v 0.24609374999999992 0.28125 0.060221474640714756
v 0.06022147464071481 0.375 0.24609374999999978
v 0.24609374999999992 0.375 0.060221474640714756
v -0.007812500000000028 0.375 0.4999999999999999
vt 0.453125 0.859375
vt 0.453125 0.8125
vt 0.3125 0.8125
vt 0.3125 0.859375
vt 0.453125 0.859375
vt 0.453125 0.8125
vt 0.3125 0.8125
vt 0.3125 0.859375
vt 0.26660197752868675 0.8671875
vt 0.13964802247131325 0.8671875
vt 0.1328125 0.84375
vt 0.2734375 0.84375
vt 0.7119144775286869 0.5390625
vt 0.5849605224713131 0.5390625
vt 0.578125 0.5625
vt 0.71875 0.5625
vt 0.47754054474530994 0.8671875
vt 0.35058445525469006 0.8671875
vt 0.34375 0.84375
vt 0.484375 0.84375
vt 0.9619144775286869 0.5390625
vt 0.8349605224713131 0.5390625
vt 0.828125 0.5625
vt 0.96875 0.5625
vt 0.015625 0.765625
vt 0.140625 0.765625
vt 0.140625 0.71875
vt 0.015625 0.71875
vt 0.3671875 0.78125
vt 0.4921875 0.78125
vt 0.4921875 0.734375
vt 0.3671875 0.734375
vn -0.7071067811865472 0 -0.7071067811865478
vn -0.9659258262890683 0 -0.25881904510252096
vn 0 -1 0
vn 0 1 0
vn 0 -1 0
vn 0 1 0
vn 0.9659258262890682 0 0.25881904510252096
vn 0.7071067811865475 0 0.7071067811865477
usemtl side
f 102/369/93 101/370/93 99/371/93 100/372/93
f 104/373/94 103/374/94 101/375/94 102/376/94
f 105/377/95 106/378/95 104/379/95 102/380/95
f 108/381/96 109/382/96 99/383/96 101/384/96
f 107/385/97 105/386/97 102/387/97 100/388/97
f 110/389/98 108/390/98 101/391/98 103/392/98
f 106/393/99 105/394/99 108/395/99 110/396/99
f 105/397/100 107/398/100 109/399/100 108/400/100
o barrel4
v 0.9871392896287468 0.375 0.7812500000000002
v 0.9871392896287468 0.28125 0.7812500000000002
v 0.9397785253592852 0.28125 0.7539062500000002
v 0.9397785253592852 0.375 0.7539062500000002
v 0.8841946448143734 0.28125 0.8841946448143735
v 0.8841946448143734 0.375 0.8841946448143735
v 0.8468423876796427 0.375 0.8468423876796427
v 0.8468423876796427 0.28125 0.8468423876796427
vt 0.3671875 0.8125
vt 0.3671875 0.859375
vt 0.4375 0.859375
vt 0.4375 0.8125
vt 0.6484375 0.5390625
vt 0.6484375 0.5625
vt 0.71875 0.5625
vt 0.7119144775286869 0.5390625
vt 0.4296875 0.78125
vt 0.4296875 0.734375
vt 0.3671875 0.734375
vt 0.3671875 0.78125
vt 0.1015625 0.578125
vt 0.1015625 0.6015625
vt 0.16504054474530994 0.6015625
vt 0.171875 0.578125
vn 0.7071067811865471 0 0.7071067811865479
vn 0 1 0
vn -0.7071067811865476 0 -0.7071067811865476
vn 0 -1 0
usemtl side
f 116/401/101 115/402/101 112/403/101 111/404/101
f 117/405/102 116/406/102 111/407/102 114/408/102
f 118/409/103 117/410/103 114/411/103 113/412/103
f 115/413/104 118/414/104 113/415/104 112/416/104
o barrel5
v 0.78125 0.90625 0.9871392896287468
v 0.78125 0.28125 0.9871392896287468
v 0.7265625 0.90625 0.8924177610898238
v 0.7265625 0.28125 0.8924177610898238
v 0.8841946448143734 0.90625 0.8841946448143734
v 0.8841946448143734 0.28125 0.8841946448143734
v 0.8094901305449118 0.28125 0.8094901305449119
v 0.8094901305449118 0.90625 0.8094901305449119
vt 0.3671875 0.859375
vt 0.3671875 0.546875
vt 0.296875 0.546875
vt 0.296875 0.859375
vt 0.10156250000000003 0.625
vt 0.1015625 0.578125
vt 0.03125 0.578125
vt 0.04492104494262644 0.625
vt 0.4140625 0.09375
vt 0.4140625 0.40625
vt 0.46875 0.40625
vt 0.46875 0.09375
vt 0.15625 0.09375
vt 0.15625 0.40625
vt 0.2109375 0.40625
vt 0.2109375 0.09375
vn 0.7071067811865476 0 0.7071067811865476
vn 0 -1 0
vn -0.707106781186548 0 -0.707106781186547
vn 0.707106781186547 0 -0.707106781186548
usemtl side
f 124/417/105 123/418/105 119/419/105 120/420/105
f 125/421/106 124/422/106 120/423/106 122/424/106
f 126/425/107 125/426/107 122/427/107 121/428/107
f 123/429/108 124/430/108 125/431/108 126/432/108
o bottom
v 1 1.125 1
v 1 1.125 0
v 1 1.0625 1
v 1 1.0625 0
v 0 1.125 0
v 0 1.125 1
v 0 1.0625 0
v 0 1.0625 1
vt 0 0
vt 1 0
vt 1 1
vt 0 1
vt 0 0
vt 1 0
vt 1 1
vt 0 1
vn 0 1 0
vn 0 -1 0
usemtl bottom
f 132/436/109 127/435/109 128/434/109 131/433/109
f 133/440/110 130/439/110 129/438/110 134/437/110