# Made in Blockbench 4.2.5
mtllib empty_tall_barrel_upper.mtl

o upper_side
v 0.5 0 0.9375
v 0.5 0.5 0.9375
v 0.5 0 0.84375
v 0.5 0.5 0.84375
v 0.757156047877957 0 0.8539449350390396
v 0.757156047877957 0.5 0.8539449350390396
v 0.7020511804755376 0 0.7780995918163882
v 0.7020511804755376 0.5 0.7780995918163882
v 0.9160872258791297 0 0.6351949350390396
v 0.9160872258791297 0.5 0.6351949350390396
v 0.8269256774764591 0 0.6062245918163882
v 0.8269256774764591 0.5 0.6062245918163882
v 0.9160872258791297 0 0.36480506496096055
v 0.9160872258791297 0.5 0.36480506496096055
v 0.8269256774764591 0 0.39377540818361184
v 0.8269256774764591 0.5 0.39377540818361184
v 0.7571560478779571 0 0.14605506496096055
v 0.7571560478779571 0.5 0.14605506496096055
v 0.7020511804755377 0 0.22190040818361184
v 0.7020511804755377 0.5 0.22190040818361184
v 0.5 0 0.0625
v 0.5 0.5 0.0625
v 0.5 0 0.15625
v 0.5 0.5 0.15625
v 0.24284395212204313 0 0.1460550649609605
v 0.24284395212204313 0.5 0.1460550649609605
v 0.08391277412087028 0 0.36480506496096043
v 0.08391277412087028 0.5 0.36480506496096043
v 0.08391277412087028 0 0.6351949350390393
v 0.08391277412087028 0.5 0.6351949350390393
v 0.2428439521220429 0 0.8539449350390395
v 0.2428439521220429 0.5 0.8539449350390395
v 0.2979488195244624 0 0.7780995918163882
v 0.2979488195244624 0.5 0.7780995918163882
v 0.11516277412087028 0.90625 0.3744618460351775
v 0.11516277412087028 0.90625 0.6255381539648223
v 0.1976278939521124 0.90625 0.5986371209723604
v 0.1976278939521124 0.90625 0.4013628790276395
v 0.2621575142704771 0.90625 0.8286631539648224
v 0.31312376121251784 0.90625 0.7582353352580747
v 0.5 0.90625 0.90625
v 0.5 0.90625 0.8191964285714286
v 0.7378424857295227 0.90625 0.8286631539648224
v 0.6868762387874822 0.90625 0.7582353352580748
v 0.8848372258791297 0.90625 0.6255381539648224
v 0.8023721060478877 0.90625 0.5986371209723604
v 0.8848372258791297 0.90625 0.3744618460351776
v 0.8023721060478877 0.90625 0.40136287902763956
v 0.7378424857295229 0.90625 0.17133684603517763
v 0.6868762387874823 0.90625 0.24176466474192526
v 0.5 0.90625 0.09375
v 0.5 0.90625 0.1808035714285714
v 0.26215751427047734 0.90625 0.17133684603517757
v 0.31312376121251784 0.90625 0.2417646647419252
v 0.2979488195244624 0 0.22190040818361179
v 0.2979488195244624 0.5 0.22190040818361179
v 0.17307432252354094 0 0.3937754081836118
v 0.17307432252354094 0.5 0.3937754081836118
v 0.17307432252354094 0 0.6062245918163881
v 0.17307432252354094 0.5 0.6062245918163881
vt 0.40625 0
vt 0.65625 0
vt 0.65625 0.5
vt 0.40625 0.5
vt 0.421875 0.5
vt 0.640625 0.5
vt 0.640625 0
vt 0.421875 0
vt 0.09375 0.5
vt 0.09375 0.75
vt 0.000004984913777872357 0.7234040766321226
vt 0 0.5269792859855087
vt 0.65625 0
vt 0.90625 0
vt 0.90625 0.5
vt 0.65625 0.5
vt 0.66015625 0.5
vt 0.87890625 0.5
vt 0.87890625 0
vt 0.66015625 0
vt 0.09375 0.25
vt 0.09375 0.5
vt 0.000004984913777872357 0.4734040766321226
vt 0 0.2769792859855087
vt 0.03125 0
vt 0.28125 0
vt 0.28125 0.5
vt 0.03125 0.5
vt 0.05078125 0.5
vt 0.26953125 0.5
vt 0.26953125 0
vt 0.05078125 0
vt 0.09375 0
vt 0.09375 0.25
vt 0.000004984913777872357 0.22340407663212258
vt 0 0.026979285985508694
vt 0.28125 0
vt 0.53125 0
vt 0.53125 0.5
vt 0.28125 0.5
vt 0.296875 0.5
vt 0.515625 0.5
vt 0.515625 0
vt 0.296875 0
vt 0.09375 0.5
vt 0.09375 0.75
vt 0.000004984913777872357 0.7234040766321226
vt 0 0.5269792859855087
vt 0.53125 0
vt 0.78125 0
vt 0.78125 0.5
vt 0.53125 0.5
vt 0.546875 0.5
vt 0.765625 0.5
vt 0.765625 0
vt 0.546875 0
vt 0.09375 0
vt 0.09375 0.25
vt 0.000004984913777872357 0.22340407663212258
vt 0 0.026979285985508694
vt 0 0
vt 0.25 0
vt 0.25 0.5
vt 0 0.5
vt 0.09375 0.75
vt 0.09375 1
vt 0.000004984913777872357 0.9734040766321226
vt 0 0.7769792859855087
vt 0.25 0
vt 0.5 0
vt 0.5 0.5
vt 0.25 0.5
vt 0.09375 0.5
vt 0.09375 0.75
vt 0.000004984913777872357 0.7234040766321226
vt 0 0.5269792859855087
vt 0.5 0
vt 0.75 0
vt 0.75 0.5
vt 0.5 0.5
vt 0.09375 0.25
vt 0.09375 0.5
vt 0.000004984913777872357 0.4734040766321226
vt 0 0.2769792859855087
vt 0.75 0
vt 1 0
vt 1 0.5
vt 0.75 0.5
vt 0.09375 0
vt 0.09375 0.25
vt 0.000004984913777872357 0.22340407663212258
vt 0 0.026979285985508694
vt 0.15625 0
vt 0.40625 0
vt 0.40625 0.5
vt 0.15625 0.5
vt 0.171875 0.5
vt 0.390625 0.5
vt 0.390625 0
vt 0.171875 0
vt 0.09375 0.75
vt 0.09375 1
vt 0.000004984913777872357 0.9734040766321226
vt 0 0.7769792859855087
vt 0.6465243747399565 1
vt 0.4152128311220008 1
vt 0.40625 0.593774931725429
vt 0.65625 0.59375
vt 0.4336653431322076 0.90625
vt 0.6288346568677924 0.90625
vt 0.6363929610275947 0.5000124790735535
vt 0.4254554610275947 0.5
vt 0.8965243747399565 1
vt 0.6652128311220008 1
vt 0.65625 0.593774931725429
vt 0.90625 0.59375
vt 0.6719465931322076 0.90625
vt 0.8671159068677924 0.90625
vt 0.8746742110275947 0.5000124790735535
vt 0.6637367110275947 0.5
vt 0.2715243747399565 1
vt 0.0402128311220008 1
vt 0.03125 0.593774931725429
vt 0.28125 0.59375
vt 0.06257159313220761 0.90625
vt 0.2577409068677924 0.90625
vt 0.2652992110275947 0.5000124790735535
vt 0.054361711027594684 0.5
vt 0.5215243747399565 1
vt 0.2902128311220008 1
vt 0.28125 0.593774931725429
vt 0.53125 0.59375
vt 0.3125715931322076 0.90625
vt 0.5077409068677924 0.90625
vt 0.5152992110275947 0.5000124790735535
vt 0.3043617110275947 0.5
vt 0.7715243747399565 1
vt 0.5402128311220008 1
vt 0.53125 0.593774931725429
vt 0.78125 0.59375
vt 0.5625715931322076 0.90625
vt 0.7577409068677924 0.90625
vt 0.7652992110275947 0.5000124790735535
vt 0.5543617110275947 0.5
vt 0.24027437473995653 1
vt 0.008962831122000832 1
vt 0 0.593774931725429
vt 0.25 0.59375
vt 0.4902743747399565 1
vt 0.2589628311220008 1
vt 0.25 0.593774931725429
vt 0.5 0.59375
vt 0.7402743747399565 1
vt 0.5089628311220008 1
vt 0.5 0.593774931725429
vt 0.75 0.59375
vt 0.9902743747399565 1
vt 0.7589628311220008 1
vt 0.75 0.593774931725429
vt 1 0.59375
vt 0.3965243747399565 1
vt 0.1652128311220008 1
vt 0.15625 0.593774931725429
vt 0.40625 0.59375
vt 0.17975909313220761 0.90625
vt 0.3749284068677924 0.90625
vt 0.3824867110275947 0.5000124790735535
vt 0.17154921102759468 0.5
vt 0.015625 0.5
vt 0.234375 0.5
vt 0.234375 0
vt 0.015625 0
vt 0.265625 0.5
vt 0.484375 0.5
vt 0.484375 0
vt 0.265625 0
vt 0.515625 0.5
vt 0.734375 0.5
vt 0.734375 0
vt 0.515625 0
vt 0.765625 0.5
vt 0.984375 0.5
vt 0.984375 0
vt 0.765625 0
vt 0.031321593132207615 0.90625
vt 0.22649090686779239 0.90625
vt 0.23404921102759468 0.5000124790735535
vt 0.023111711027594684 0.5
vt 0.2813215931322076 0.90625
vt 0.4764909068677924 0.90625
vt 0.4840492110275947 0.5000124790735535
vt 0.2731117110275947 0.5
vt 0.5313215931322076 0.90625
vt 0.7264909068677924 0.90625
vt 0.7340492110275947 0.5000124790735535
vt 0.5231117110275947 0.5
vt 0.7813215931322076 0.90625
vt 0.9764909068677924 0.90625
vt 0.9840492110275947 0.5000124790735535
vt 0.7731117110275947 0.5
vn 0.30901699437494723 0 0.9510565162951536
vn -0.30901699437494734 0 -0.9510565162951538
vn 0 1 0
vn 0.8090169943749473 0 0.5877852522924732
vn -0.8090169943749475 0 -0.5877852522924734
vn 0 1 0
vn 1 0 0
vn -1 0 0
vn 0 1 0
vn 0.8090169943749476 0 -0.5877852522924729
vn -0.8090169943749476 0 0.587785252292473
vn 0 1 0
vn 0.3090169943749475 0 -0.9510565162951536
vn -0.3090169943749474 0 0.9510565162951536
vn 0 1 0
vn -0.30901699437494756 0 -0.9510565162951536
vn 0 1 0
vn -0.8090169943749471 0 -0.5877852522924737
vn 0 1 0
vn -1 0 0
vn 0 1 0
vn -0.8090169943749478 0 0.5877852522924728
vn 0 1 0
vn -0.3090169943749475 0 0.9510565162951536
vn 0.30901699437494734 0 -0.9510565162951538
vn 0 1 0
vn 0.30930125351598864 0.07293561764337246 0.948163029363842
vn -0.3096056520489519 -0.05797252282712493 -0.9490961631027712
vn 0.8078547410024012 0.0747882348729438 0.5846173426819743
vn -0.8086734486838895 -0.059805744456629874 -0.5852098139331682
vn 0.9970544855015816 0.07669649888473705 0
vn -0.9981785185730019 -0.06032947090276377 0
vn 0.8077785301564793 0.07603216781418104 -0.58456219145247
vn -0.8087206512143881 -0.058825169598497914 0.5852439728191006
vn 0.30928367768030024 0.07370648002769915 -0.948109150637454
vn -0.30961653600559824 -0.05736497146486134 0.9491295278731613
vn -0.30930125351598853 0.07293561764337249 -0.9481630293638422
vn -0.8078547410024011 0.0747882348729436 -0.5846173426819745
vn -0.9970544855015816 0.07669649888473705 0
vn -0.8077785301564793 0.076032167814181 0.5845621914524699
vn -0.3092836776803003 0.0737064800276992 0.948109150637454
vn 0.30961653600559835 -0.05736497146486131 -0.9491295278731611
vn 0.30901699437494734 0 0.9510565162951538
vn 0.8090169943749475 0 0.5877852522924734
vn 1 0 0
vn 0.8090169943749477 0 -0.5877852522924731
vn 0.30960565204895213 -0.05797252282712505 0.949096163102771
vn 0.8086734486838894 -0.05980574445662991 0.5852098139331682
vn 0.9981785185730019 -0.0603294709027639 0
vn 0.8087206512143881 -0.058825169598498 -0.5852439728191008
usemtl m_3
f 1/1/1 5/2/1 6/3/1 2/4/1
usemtl m_5
f 4/5/2 8/6/2 7/7/2 3/8/2
f 41/9/3 43/10/3 44/11/3 42/12/3
usemtl m_3
f 5/13/4 9/14/4 10/15/4 6/16/4
usemtl m_5
f 8/17/5 12/18/5 11/19/5 7/20/5
f 43/21/6 45/22/6 46/23/6 44/24/6
usemtl m_3
f 9/25/7 13/26/7 14/27/7 10/28/7
usemtl m_5
f 12/29/8 16/30/8 15/31/8 11/32/8
f 45/33/9 47/34/9 48/35/9 46/36/9
usemtl m_3
f 13/37/10 17/38/10 18/39/10 14/40/10
usemtl m_5
f 16/41/11 20/42/11 19/43/11 15/44/11
f 47/45/12 49/46/12 50/47/12 48/48/12
usemtl m_3
f 17/49/13 21/50/13 22/51/13 18/52/13
usemtl m_5
f 20/53/14 24/54/14 23/55/14 19/56/14
f 49/57/15 51/58/15 52/59/15 50/60/15
usemtl m_3
f 21/61/16 25/62/16 26/63/16 22/64/16
usemtl m_5
f 51/65/17 53/66/17 54/67/17 52/68/17
usemtl m_3
f 25/69/18 27/70/18 28/71/18 26/72/18
usemtl m_5
f 53/73/19 35/74/19 38/75/19 54/76/19
usemtl m_3
f 27/77/20 29/78/20 30/79/20 28/80/20
usemtl m_5
f 35/81/21 36/82/21 37/83/21 38/84/21
usemtl m_3
f 29/85/22 31/86/22 32/87/22 30/88/22
usemtl m_5
f 36/89/23 39/90/23 40/91/23 37/92/23
usemtl m_3
f 31/93/24 1/94/24 2/95/24 32/96/24
usemtl m_5
f 34/97/25 4/98/25 3/99/25 33/100/25
f 39/101/26 41/102/26 42/103/26 40/104/26
usemtl m_3
f 43/105/27 41/106/27 2/107/27 6/108/27
usemtl m_5
f 42/109/28 44/110/28 8/111/28 4/112/28
usemtl m_3
f 45/113/29 43/114/29 6/115/29 10/116/29
usemtl m_5
f 44/117/30 46/118/30 12/119/30 8/120/30
usemtl m_3
f 47/121/31 45/122/31 10/123/31 14/124/31
usemtl m_5
f 46/125/32 48/126/32 16/127/32 12/128/32
usemtl m_3
f 49/129/33 47/130/33 14/131/33 18/132/33
usemtl m_5
f 48/133/34 50/134/34 20/135/34 16/136/34
usemtl m_3
f 51/137/35 49/138/35 18/139/35 22/140/35
usemtl m_5
f 50/141/36 52/142/36 24/143/36 20/144/36
usemtl m_3
f 53/145/37 51/146/37 22/147/37 26/148/37
f 35/149/38 53/150/38 26/151/38 28/152/38
f 36/153/39 35/154/39 28/155/39 30/156/39
f 39/157/40 36/158/40 30/159/40 32/160/40
f 41/161/41 39/162/41 32/163/41 2/164/41
usemtl m_5
f 40/165/42 42/166/42 4/167/42 34/168/42
f 24/169/43 56/170/43 55/171/43 23/172/43
f 56/173/44 58/174/44 57/175/44 55/176/44
f 58/177/45 60/178/45 59/179/45 57/180/45
f 60/181/46 34/182/46 33/183/46 59/184/46
f 52/185/47 54/186/47 56/187/47 24/188/47
f 54/189/48 38/190/48 58/191/48 56/192/48
f 38/193/49 37/194/49 60/195/49 58/196/49
f 37/197/50 40/198/50 34/199/50 60/200/50