# Made in Blockbench 4.2.5
mtllib tall_barrel_lower.mtl

o lower_side
v 0.5 0.5 0.9375
v 0.5 1 0.9375
v 0.5 0.5 0.84375
v 0.5 1 0.84375
v 0.757156047877957 0.5 0.8539449350390396
v 0.757156047877957 1 0.8539449350390396
v 0.7020511804755376 0.5 0.7780995918163882
v 0.7020511804755376 1 0.7780995918163882
v 0.9160872258791297 0.5 0.6351949350390396
v 0.9160872258791297 1 0.6351949350390396
v 0.8269256774764591 0.5 0.6062245918163882
v 0.8269256774764591 1 0.6062245918163882
v 0.9160872258791297 0.5 0.36480506496096055
v 0.9160872258791297 1 0.36480506496096055
v 0.8269256774764591 0.5 0.39377540818361184
v 0.8269256774764591 1 0.39377540818361184
v 0.7571560478779571 0.5 0.14605506496096055
v 0.7571560478779571 1 0.14605506496096055
v 0.7020511804755377 0.5 0.22190040818361184
v 0.7020511804755377 1 0.22190040818361184
v 0.5 0.5 0.0625
v 0.5 1 0.0625
v 0.5 0.5 0.15625
v 0.5 1 0.15625
v 0.24284395212204307 0.5 0.1460550649609605
v 0.24284395212204307 1 0.1460550649609605
v 0.08391277412087034 0.5 0.36480506496096043
v 0.08391277412087034 1 0.36480506496096043
v 0.08391277412087028 0.5 0.6351949350390393
v 0.08391277412087028 1 0.6351949350390393
v 0.17307432252354094 0.5 0.6062245918163881
v 0.17307432252354094 1 0.6062245918163881
v 0.2428439521220429 0.5 0.8539449350390395
v 0.2428439521220429 1 0.8539449350390395
v 0.2979488195244623 0.5 0.7780995918163882
v 0.2979488195244623 1 0.7780995918163882
v 0.8023721060478877 0.09375 0.40136287902763956
v 0.6868762387874823 0.09375 0.24176466474192526
v 0.7378424857295228 0.09375 0.17133684603517763
v 0.8848372258791297 0.09375 0.3744618460351776
v 0.5 0.09375 0.1808035714285714
v 0.5 0.09375 0.09375
v 0.2621575142704773 0.09375 0.17133684603517757
v 0.11516277412087034 0.09375 0.3744618460351775
v 0.11516277412087028 0.09375 0.6255381539648223
v 0.3131237612125177 0.09375 0.7582353352580747
v 0.2621575142704771 0.09375 0.8286631539648224
v 0.5 0.09375 0.8191964285714286
v 0.5 0.09375 0.90625
v 0.6868762387874822 0.09375 0.7582353352580748
v 0.7378424857295227 0.09375 0.8286631539648224
v 0.8023721060478876 0.09375 0.5986371209723604
v 0.8848372258791297 0.09375 0.6255381539648224
v 0.2979488195244624 0.5 0.22190040818361179
v 0.2979488195244624 1 0.22190040818361179
v 0.173074322523541 0.5 0.3937754081836118
v 0.173074322523541 1 0.3937754081836118
v 0.31312376121251784 0.09375 0.2417646647419252
v 0.19762789395211244 0.09375 0.4013628790276395
v 0.1976278939521124 0.09375 0.5986371209723604
vt 0.40625 0.5
vt 0.65625 0.5
vt 0.65625 1
vt 0.40625 1
vt 0.421875 1
vt 0.640625 1
vt 0.640625 0.5
vt 0.421875 0.5
vt 0.65625 0.5
vt 0.90625 0.5
vt 0.90625 1
vt 0.65625 1
vt 0.671875 1
vt 0.875 1
vt 0.875 0.5
vt 0.671875 0.5
vt 0.03125 0.5
vt 0.28125 0.5
vt 0.28125 1
vt 0.03125 1
vt 0.046875 1
vt 0.265625 1
vt 0.265625 0.5
vt 0.046875 0.5
vt 0.28125 0.5
vt 0.53125 0.5
vt 0.53125 1
vt 0.28125 1
vt 0.296875 1
vt 0.515625 1
vt 0.515625 0.5
vt 0.296875 0.5
vt 0.765625 1
vt 0.546875 1
vt 0.546875 0.5
vt 0.765625 0.5
vt 0 0.5
vt 0.25 0.5
vt 0.25 1
vt 0 1
vt 0.25 0.5
vt 0.5 0.5
vt 0.5 1
vt 0.25 1
vt 0.5 0.5
vt 0.75 0.5
vt 0.75 1
vt 0.5 1
vt 0.75 0.5
vt 1 0.5
vt 1 1
vt 0.75 1
vt 0.765625 1
vt 0.984375 1
vt 0.984375 0.5
vt 0.765625 0.5
vt 0.15625 0.5
vt 0.40625 0.5
vt 0.40625 1
vt 0.15625 1
vt 0.171875 1
vt 0.390625 1
vt 0.390625 0.5
vt 0.171875 0.5
vt 0.6251493149123324 0.09375
vt 0.42954561588020723 0.09375
vt 0.422396875 0.4999812834019288
vt 0.633334375 0.5
vt 0.4152128311220009 0.09375
vt 0.6465243747399565 0.09375
vt 0.65625 0.5
vt 0.40625 0.4999750678920478
vt 0.8751493149123324 0.09375
vt 0.6795456158802072 0.09375
vt 0.672396875 0.4999812834019288
vt 0.883334375 0.5
vt 0.6652128311220009 0.09375
vt 0.8965243747399565 0.09375
vt 0.90625 0.5
vt 0.65625 0.4999750678920478
vt 0.24992840686779233 0.09375
vt 0.05475909313220767 0.09375
vt 0.04654921102759474 0.5
vt 0.25748671102759474 0.4999875209264465
vt 0.040212831122000914 0.09375
vt 0.2715243747399565 0.09375
vt 0.28125 0.5
vt 0.03125 0.4999750678920478
vt 0.4999284068677923 0.09375
vt 0.3047590931322076 0.09375
vt 0.2965492110275947 0.5
vt 0.5074867110275947 0.4999875209264465
vt 0.2902128311220009 0.09375
vt 0.5215243747399565 0.09375
vt 0.53125 0.5
vt 0.28125 0.4999750678920478
vt 0.5544333041598024 0.09375
vt 0.7496026178953871 0.09375
vt 0.7578125 0.5
vt 0.546875 0.4999875209264465
vt 0.5402128311220009 0.09375
vt 0.7715243747399565 0.09375
vt 0.78125 0.5
vt 0.53125 0.4999750678920478
vt 0.008962831122000884 0.09375
vt 0.24027437473995655 0.09375
vt 0.25 0.5
vt 0 0.4999750678920478
vt 0.25896283112200086 0.09375
vt 0.49027437473995655 0.09375
vt 0.5 0.5
vt 0.25 0.4999750678920478
vt 0.5089628311220009 0.09375
vt 0.7402743747399565 0.09375
vt 0.75 0.5
vt 0.5 0.4999750678920478
vt 0.7589628311220009 0.09375
vt 0.9902743747399565 0.09375
vt 1 0.5
vt 0.75 0.4999750678920478
vt 0.3751493149123324 0.09375
vt 0.17954561588020723 0.09375
vt 0.172396875 0.4999812834019288
vt 0.383334375 0.5
vt 0.1652128311220009 0.09375
vt 0.3965243747399565 0.09375
vt 0.40625 0.5
vt 0.15625 0.4999750678920478
vt 0.53125 0.5
vt 0.78125 0.5
vt 0.78125 1
vt 0.53125 1
vt 0.015624999999999972 1
vt 0.234375 1
vt 0.234375 0.5
vt 0.015624999999999972 0.5
vt 0.265625 1
vt 0.484375 1
vt 0.484375 0.5
vt 0.265625 0.5
vt 0.515625 1
vt 0.734375 1
vt 0.734375 0.5
vt 0.515625 0.5
vt 0.21889931491233233 0.09375
vt 0.023295615880207177 0.09375
vt 0.01614687499999995 0.4999812834019288
vt 0.22708437499999995 0.5
vt 0.4688993149123324 0.09375
vt 0.27329561588020723 0.09375
vt 0.266146875 0.4999812834019288
vt 0.477084375 0.5
vt 0.7188993149123324 0.09375
vt 0.5232956158802072 0.09375
vt 0.516146875 0.4999812834019288
vt 0.727084375 0.5
vt 0.9688993149123324 0.09375
vt 0.7732956158802072 0.09375
vt 0.766146875 0.4999812834019288
vt 0.977084375 0.5
vn 0.30901699437494723 0 0.9510565162951536
vn -0.30901699437494734 0 -0.9510565162951538
vn 0.8090169943749473 0 0.5877852522924732
vn -0.8090169943749475 0 -0.5877852522924734
vn 1 0 0
vn -1 0 0
vn 0.8090169943749476 0 -0.5877852522924729
vn -0.8090169943749476 0 0.587785252292473
vn -0.3090169943749474 0 0.9510565162951536
vn -0.30901699437494745 0 -0.9510565162951536
vn -0.8090169943749473 0 -0.5877852522924734
vn -1 0 -2.053004101641389e-16
vn -0.8090169943749478 0 0.5877852522924728
vn 0.8090169943749478 0 -0.5877852522924727
vn -0.3090169943749475 0 0.9510565162951536
vn 0.3090169943749472 0 -0.9510565162951539
vn -0.3096165360055979 0.05736497146486133 -0.9491295278731614
vn 0.30928367768030046 -0.07370648002769949 0.948109150637454
vn -0.8087206512143883 0.05882516959849785 -0.5852439728191003
vn 0.8077785301564788 -0.07603216781418116 0.5845621914524706
vn -0.9981785185730019 0.06032947090276405 -5.617564478166947e-16
vn 0.9970544855015816 -0.07669649888473705 0
vn -0.8086734486838895 0.05980574445662974 0.5852098139331681
vn 0.8078547410024013 -0.07478823487294364 -0.584617342681974
vn -0.30960565204895224 0.057972522827125075 0.9490961631027711
vn 0.3093012535159885 -0.07293561764337246 -0.9481630293638421
vn -0.3092836776803003 -0.0737064800276992 -0.9481091506374542
vn -0.8077785301564789 -0.076032167814181 -0.5845621914524707
vn -0.9970544855015816 -0.07669649888473705 -2.2044151750865907e-16
vn -0.8078547410024015 -0.07478823487294355 0.5846173426819736
vn 0.30960565204895224 0.05797252282712521 -0.9490961631027711
vn -0.3093012535159885 -0.07293561764337249 0.9481630293638421
vn 0.3090169943749475 0 -0.9510565162951536
vn 0.30901699437494734 0 0.9510565162951538
vn 0.8090169943749476 0 0.5877852522924731
vn 1 0 2.612914311179949e-16
vn 0.30961653600559813 0.05736497146486132 0.9491295278731612
vn 0.8087206512143881 0.058825169598497914 0.5852439728191006
vn 0.9981785185730019 0.06032947090276391 2.8087822390834728e-16
vn 0.8086734486838897 0.0598057444566298 -0.5852098139331678
usemtl m_0
f 1/1/1 5/2/1 6/3/1 2/4/1
usemtl m_1
f 4/5/2 8/6/2 7/7/2 3/8/2
usemtl m_0
f 5/9/3 9/10/3 10/11/3 6/12/3
usemtl m_1
f 8/13/4 12/14/4 11/15/4 7/16/4
usemtl m_0
f 9/17/5 13/18/5 14/19/5 10/20/5
usemtl m_1
f 12/21/6 16/22/6 15/23/6 11/24/6
usemtl m_0
f 13/25/7 17/26/7 18/27/7 14/28/7
usemtl m_1
f 16/29/8 20/30/8 19/31/8 15/32/8
f 20/33/9 24/34/9 23/35/9 19/36/9
usemtl m_0
f 21/37/10 25/38/10 26/39/10 22/40/10
f 25/41/11 27/42/11 28/43/11 26/44/11
f 27/45/12 29/46/12 30/47/12 28/48/12
f 29/49/13 33/50/13 34/51/13 30/52/13
usemtl m_1
f 32/53/14 36/54/14 35/55/14 31/56/14
usemtl m_0
f 33/57/15 1/58/15 2/59/15 34/60/15
usemtl m_1
f 36/61/16 4/62/16 3/63/16 35/64/16
f 50/65/17 48/66/17 3/67/17 7/68/17
usemtl m_0
f 49/69/18 51/70/18 5/71/18 1/72/18
usemtl m_1
f 52/73/19 50/74/19 7/75/19 11/76/19
usemtl m_0
f 51/77/20 53/78/20 9/79/20 5/80/20
usemtl m_1
f 37/81/21 52/82/21 11/83/21 15/84/21
usemtl m_0
f 53/85/22 40/86/22 13/87/22 9/88/22
usemtl m_1
f 38/89/23 37/90/23 15/91/23 19/92/23
usemtl m_0
f 40/93/24 39/94/24 17/95/24 13/96/24
usemtl m_1
f 41/97/25 38/98/25 19/99/25 23/100/25
usemtl m_0
f 39/101/26 42/102/26 21/103/26 17/104/26
f 42/105/27 43/106/27 25/107/27 21/108/27
f 43/109/28 44/110/28 27/111/28 25/112/28
f 44/113/29 45/114/29 29/115/29 27/116/29
f 45/117/30 47/118/30 33/119/30 29/120/30
usemtl m_1
f 48/121/31 46/122/31 35/123/31 3/124/31
usemtl m_0
f 47/125/32 49/126/32 1/127/32 33/128/32
f 17/129/33 21/130/33 22/131/33 18/132/33
usemtl m_1
f 24/133/34 55/134/34 54/135/34 23/136/34
f 55/137/35 57/138/35 56/139/35 54/140/35
f 57/141/36 32/142/36 31/143/36 56/144/36
f 58/145/37 41/146/37 23/147/37 54/148/37
f 59/149/38 58/150/38 54/151/38 56/152/38
f 60/153/39 59/154/39 56/155/39 31/156/39
f 46/157/40 60/158/40 31/159/40 35/160/40
o bottom
v 0.5 0 0.49999999999999994
v 0.5 0.09375 0.49999999999999994
v 0.5 0 0.90625
v 0.5 0.09375 0.90625
v 0.7378424857295227 0 0.8286631539648224
v 0.7378424857295227 0.09375 0.8286631539648224
v 0.8848372258791297 0 0.6255381539648224
v 0.8848372258791297 0.09375 0.6255381539648224
v 0.8848372258791297 0 0.3744618460351776
v 0.8848372258791297 0.09375 0.3744618460351776
v 0.7378424857295228 0 0.1713368460351776
v 0.7378424857295228 0.09375 0.1713368460351776
v 0.5 0 0.09374999999999996
v 0.5 0.09375 0.09374999999999996
v 0.2621575142704773 0 0.17133684603517754
v 0.2621575142704773 0.09375 0.17133684603517754
v 0.11516277412087035 0 0.3744618460351775
v 0.11516277412087035 0.09375 0.3744618460351775
v 0.1151627741208703 0 0.6255381539648224
v 0.1151627741208703 0.09375 0.6255381539648224
v 0.2621575142704771 0 0.8286631539648224
v 0.2621575142704771 0.09375 0.8286631539648224
vt 0.62268125 0.9224125000000001
vt 0.3848375 1
vt 0.3848375 0.59375
vt 0.40625 0
vt 0.65625 0
vt 0.65625 0.09375
vt 0.40625 0.09375
vt 0.38483749999999994 0.1875
vt 0.6226812499999999 0.2650874999999999
vt 0.38483749999999994 0.59375
vt 0.769675 0.7192875
vt 0.62268125 0.9224125000000001
vt 0.3848375 0.59375
vt 0.65625 0
vt 0.90625 0
vt 0.90625 0.09375
vt 0.65625 0.09375
vt 0.6226812499999999 0.2650874999999999
vt 0.7696749999999999 0.4682124999999999
vt 0.38483749999999994 0.59375
vt 0.769675 0.46821250000000003
vt 0.769675 0.7192875
vt 0.3848375 0.59375
vt 0.03125 0
vt 0.28125 0
vt 0.28125 0.09375
vt 0.03125 0.09375
vt 0.7696749999999999 0.4682124999999999
vt 0.7696749999999999 0.7192875
vt 0.38483749999999994 0.59375
vt 0.62268125 0.2650874999999999
vt 0.769675 0.46821250000000003
vt 0.3848375 0.59375
vt 0.28125 0
vt 0.53125 0
vt 0.53125 0.09375
vt 0.28125 0.09375
vt 0.7696749999999999 0.7192875
vt 0.6226812499999999 0.9224125000000001
vt 0.38483749999999994 0.59375
vt 0.3848375 0.1875
vt 0.62268125 0.2650874999999999
vt 0.3848375 0.59375
vt 0.53125 0
vt 0.78125 0
vt 0.78125 0.09375
vt 0.53125 0.09375
vt 0.6226812499999999 0.9224125000000001
vt 0.38483749999999994 1
vt 0.38483749999999994 0.59375
vt 0.14699375 0.2650874999999999
vt 0.3848375 0.1875
vt 0.3848375 0.59375
vt 0 0
vt 0.25 0
vt 0.25 0.09375
vt 0 0.09375
vt 0.38483749999999994 1
vt 0.14699375000000003 0.9224125000000001
vt 0.38483749999999994 0.59375
vt 0 0.46821250000000003
vt 0.14699375 0.2650874999999999
vt 0.3848375 0.59375
vt 0.25 0
vt 0.5 0
vt 0.5 0.09375
vt 0.25 0.09375
vt 0.14699375000000003 0.9224125000000001
vt 0 0.7192875
vt 0.38483749999999994 0.59375
vt 0 0.7192875
vt 0 0.46821250000000003
vt 0.3848375 0.59375
vt 0.5 0
vt 0.75 0
vt 0.75 0.09375
vt 0.5 0.09375
vt 0 0.7192875
vt 0 0.4682124999999999
vt 0.38483749999999994 0.59375
vt 0.14699375 0.9224125000000001
vt 0 0.7192875
vt 0.3848375 0.59375
vt 0.75 0
vt 1 0
vt 1 0.09375
vt 0.75 0.09375
vt 0 0.4682124999999999
vt 0.14699375000000003 0.2650874999999999
vt 0.38483749999999994 0.59375
vt 0.3848375 1
vt 0.14699375 0.9224125000000001
vt 0.3848375 0.59375
vt 0.15625 0
vt 0.40625 0
vt 0.40625 0.09375
vt 0.15625 0.09375
vt 0.14699375000000003 0.2650874999999999
vt 0.38483749999999994 0.1875
vt 0.38483749999999994 0.59375
vn 0 -1 0
vn 0.3101272305262456 0 0.9506950619868189
vn 0 1 0
vn 0 -1 0
vn 0.8101235418934866 0 0.5862591976847377
vn 0 1 0
vn 0 -1 0
vn 1 0 0
vn 0 1 0
vn 0 -1 0
vn 0.8101235418934869 0 -0.5862591976847372
vn 0 1 0
vn 0 -1 0
vn 0.31012723052624536 0 -0.9506950619868187
vn 0 1 0
vn 0 -1 0
vn -0.31012723052624536 0 -0.9506950619868189
vn 0 1 0
vn 0 -1 0
vn -0.8101235418934869 0 -0.5862591976847376
vn 0 1 0
vn 0 -1 0
vn -1 0 -2.2109274940753409e-16
vn 0 1 0
vn 0 -1 0
vn -0.8101235418934869 0 0.5862591976847372
vn 0 1 0
vn 0 -1 0
vn -0.31012723052624536 0 0.9506950619868187
vn 0 1 0
usemtl m_4
f 65/161/41 63/162/41 61/163/41
usemtl m_0
f 63/164/42 65/165/42 66/166/42 64/167/42
usemtl m_4
f 64/168/43 66/169/43 62/170/43
f 67/171/44 65/172/44 61/173/44
usemtl m_0
f 65/174/45 67/175/45 68/176/45 66/177/45
usemtl m_4
f 66/178/46 68/179/46 62/180/46
f 69/181/47 67/182/47 61/183/47
usemtl m_0
f 67/184/48 69/185/48 70/186/48 68/187/48
usemtl m_4
f 68/188/49 70/189/49 62/190/49
f 71/191/50 69/192/50 61/193/50
usemtl m_0
f 69/194/51 71/195/51 72/196/51 70/197/51
usemtl m_4
f 70/198/52 72/199/52 62/200/52
f 73/201/53 71/202/53 61/203/53
usemtl m_0
f 71/204/54 73/205/54 74/206/54 72/207/54
usemtl m_4
f 72/208/55 74/209/55 62/210/55
f 75/211/56 73/212/56 61/213/56
usemtl m_0
f 73/214/57 75/215/57 76/216/57 74/217/57
usemtl m_4
f 74/218/58 76/219/58 62/220/58
f 77/221/59 75/222/59 61/223/59
usemtl m_0
f 75/224/60 77/225/60 78/226/60 76/227/60
usemtl m_4
f 76/228/61 78/229/61 62/230/61
f 79/231/62 77/232/62 61/233/62
usemtl m_0
f 77/234/63 79/235/63 80/236/63 78/237/63
usemtl m_4
f 78/238/64 80/239/64 62/240/64
f 81/241/65 79/242/65 61/243/65
usemtl m_0
f 79/244/66 81/245/66 82/246/66 80/247/66
usemtl m_4
f 80/248/67 82/249/67 62/250/67
f 63/251/68 81/252/68 61/253/68
usemtl m_0
f 81/254/69 63/255/69 64/256/69 82/257/69
usemtl m_4
f 82/258/70 64/259/70 62/260/70