# Made in Blockbench 4.2.5
mtllib water_jug.mtl

o middle1
v 0.5 0.09375 0.5
v 0.5 0.40625 0.5
v 0.5 0.09375 0.6875
v 0.5 0.40625 0.6875
v 0.6623797632095823 0.09375 0.59375
v 0.6623797632095823 0.40625 0.59375
v 0.6623797632095823 0.09375 0.40625000000000006
v 0.6623797632095823 0.40625 0.40625000000000006
v 0.5 0.09375 0.3125
v 0.5 0.40625 0.3125
v 0.33762023679041775 0.09375 0.4062499999999999
v 0.33762023679041775 0.40625 0.4062499999999999
v 0.33762023679041775 0.09375 0.59375
v 0.33762023679041775 0.40625 0.59375
vt 0.46875 1
vt 0.46875 0.8125
vt 0.625 0.90625
vt 0.3125 0.09375
vt 0.5 0.09375
vt 0.5 0.40625
vt 0.3125 0.40625
vt 0.03125 1
vt 0.03125 0.8125
vt 0.1875 0.90625
vt 0.78125 0.8125
vt 0.78125 1
vt 0.625 0.90625
vt 0.5 0.09375
vt 0.6875 0.09375
vt 0.6875 0.40625
vt 0.5 0.40625
vt 0.40625 0.8125
vt 0.40625 1
vt 0.25 0.90625
vt 0.46875 1
vt 0.46875 0.8125
vt 0.625 0.90625
vt 0.3125 0.09375
vt 0.5 0.09375
vt 0.5 0.40625
vt 0.3125 0.40625
vt 0.03125 1
vt 0.03125 0.8125
vt 0.1875 0.90625
vt 0.78125 0.8125
vt 0.78125 1
vt 0.625 0.90625
vt 0.5 0.09375
vt 0.6875 0.09375
vt 0.6875 0.40625
vt 0.5 0.40625
vt 0.40625 0.8125
vt 0.40625 1
vt 0.25 0.90625
vt 0.46875 1
vt 0.46875 0.8125
vt 0.625 0.90625
vt 0.3125 0.09375
vt 0.5 0.09375
vt 0.5 0.40625
vt 0.3125 0.40625
vt 0.03125 1
vt 0.03125 0.8125
vt 0.1875 0.90625
vt 0.78125 0.8125
vt 0.78125 1
vt 0.625 0.90625
vt 0.5 0.09375
vt 0.6875 0.09375
vt 0.6875 0.40625
vt 0.5 0.40625
vt 0.40625 0.8125
vt 0.40625 1
vt 0.25 0.90625
vn 0 -1 0
vn 0.49999999999999994 0 0.8660254037844388
vn 0 1 0
vn 0 -1 0
vn 1 0 0
vn 0 1 0
vn 0 -1 0
vn 0.5000000000000003 0 -0.8660254037844387
vn 0 1 0
vn 0 -1 0
vn -0.49999999999999967 0 -0.8660254037844389
vn 0 1 0
vn 0 -1 0
vn -1 0 -1.4802973661668746e-16
vn 0 1 0
vn 0 -1 0
vn -0.49999999999999994 0 0.8660254037844388
vn 0 1 0
usemtl m_1
f 5/1/1 3/2/1 1/3/1
f 3/4/2 5/5/2 6/6/2 4/7/2
f 4/8/3 6/9/3 2/10/3
f 7/11/4 5/12/4 1/13/4
f 5/14/5 7/15/5 8/16/5 6/17/5
f 6/18/6 8/19/6 2/20/6
f 9/21/7 7/22/7 1/23/7
f 7/24/8 9/25/8 10/26/8 8/27/8
f 8/28/9 10/29/9 2/30/9
f 11/31/10 9/32/10 1/33/10
f 9/34/11 11/35/11 12/36/11 10/37/11
f 10/38/12 12/39/12 2/40/12
f 13/41/13 11/42/13 1/43/13
f 11/44/14 13/45/14 14/46/14 12/47/14
f 12/48/15 14/49/15 2/50/15
f 3/51/16 13/52/16 1/53/16
f 13/54/17 3/55/17 4/56/17 14/57/17
f 14/58/18 4/59/18 2/60/18
o middle3
v 0.5 0.46875 0.5
v 0.5 0.40625 0.65625
v 0.5 0.46875 0.65625
v 0.6353164693413185 0.40625 0.578125
v 0.6353164693413185 0.46875 0.578125
v 0.6353164693413186 0.40625 0.421875
v 0.6353164693413186 0.46875 0.421875
v 0.5 0.40625 0.34375
v 0.5 0.46875 0.34375
v 0.3646835306586815 0.40625 0.42187499999999994
v 0.3646835306586815 0.46875 0.42187499999999994
v 0.3646835306586815 0.40625 0.578125
v 0.3646835306586815 0.46875 0.578125
vt 0.34375 0.40625
vt 0.5 0.40625
vt 0.5 0.46875
vt 0.34375 0.46875
vt 0.0625 1
vt 0.0625 0.84375
vt 0.1953125 0.921875
vt 0.5 0.40625
vt 0.65625 0.40625
vt 0.65625 0.46875
vt 0.5 0.46875
vt 0.375 0.84375
vt 0.375 1
vt 0.2421875 0.921875
vt 0.0625 1
vt 0.0625 0.84375
vt 0.1953125 0.921875
vt 0.5 0.40625
vt 0.65625 0.40625
vt 0.65625 0.46875
vt 0.5 0.46875
vt 0.375 0.84375
vt 0.375 1
vt 0.2421875 0.921875
vt 0.34375 0.40625
vt 0.5 0.40625
vt 0.5 0.46875
vt 0.34375 0.46875
vt 0.0625 1
vt 0.0625 0.84375
vt 0.1953125 0.921875
vt 0.5 0.40625
vt 0.65625 0.40625
vt 0.65625 0.46875
vt 0.5 0.46875
vt 0.375 0.84375
vt 0.375 1
vt 0.2421875 0.921875
vt 0.34375 0.40625
vt 0.5 0.40625
vt 0.5 0.46875
vt 0.34375 0.46875
vn 0.5 0 0.8660254037844387
vn 0 1 0
vn 1 0 1.7763568394002506e-16
vn 0 1 0
vn 0 1 0
vn -0.49999999999999967 0 -0.8660254037844389
vn 0 1 0
vn -1 0 0
vn 0 1 0
vn -0.5 0 0.8660254037844387
vn 0 1 0
vn 0.5000000000000002 0 -0.8660254037844386
usemtl m_1
f 16/61/19 18/62/19 19/63/19 17/64/19
f 17/65/20 19/66/20 15/67/20
f 18/68/21 20/69/21 21/70/21 19/71/21
f 19/72/22 21/73/22 15/74/22
f 21/75/23 23/76/23 15/77/23
f 22/78/24 24/79/24 25/80/24 23/81/24
f 23/82/25 25/83/25 15/84/25
f 24/85/26 26/86/26 27/87/26 25/88/26
f 25/89/27 27/90/27 15/91/27
f 26/92/28 16/93/28 17/94/28 27/95/28
f 27/96/29 17/97/29 15/98/29
f 20/99/30 22/100/30 23/101/30 21/102/30
o top1
v 0.5 0.53125 0.5
v 0.5 0.46875 0.59375
v 0.5 0.53125 0.59375
v 0.5811898816047911 0.46875 0.546875
v 0.5811898816047911 0.53125 0.546875
v 0.5811898816047911 0.46875 0.453125
v 0.5811898816047911 0.53125 0.453125
v 0.5 0.46875 0.40625
v 0.5 0.53125 0.40625
v 0.4188101183952089 0.46875 0.45312499999999994
v 0.4188101183952089 0.53125 0.45312499999999994
v 0.4188101183952089 0.46875 0.546875
v 0.4188101183952089 0.53125 0.546875
vt 0.40625 0.46875
vt 0.5 0.46875
vt 0.5 0.53125
vt 0.40625 0.53125
vt 0.125 1
vt 0.125 0.90625
vt 0.203125 0.953125
vt 0.5 0.46875
vt 0.59375 0.46875
vt 0.59375 0.53125
vt 0.5 0.53125
vt 0.3125 0.90625
vt 0.3125 1
vt 0.234375 0.953125
vt 0.40625 0.46875
vt 0.5 0.46875
vt 0.5 0.53125
vt 0.40625 0.53125
vt 0.125 1
vt 0.125 0.90625
vt 0.203125 0.953125
vt 0.5 0.46875
vt 0.59375 0.46875
vt 0.59375 0.53125
vt 0.5 0.53125
vt 0.3125 0.90625
vt 0.3125 1
vt 0.234375 0.953125
vt 0.40625 0.46875
vt 0.5 0.46875
vt 0.5 0.53125
vt 0.40625 0.53125
vt 0.125 1
vt 0.125 0.90625
vt 0.203125 0.953125
vt 0.5 0.46875
vt 0.59375 0.46875
vt 0.59375 0.53125
vt 0.5 0.53125
vt 0.3125 0.90625
vt 0.3125 1
vt 0.234375 0.953125
vn 0.49999999999999994 0 0.8660254037844388
vn 0 1 0
vn 1 0 0
vn 0 1 0
vn 0.5000000000000003 0 -0.8660254037844387
vn 0 1 0
vn -0.4999999999999996 0 -0.8660254037844388
vn 0 1 0
vn -1 0 -1.4802973661668746e-16
vn 0 1 0
vn -0.49999999999999994 0 0.8660254037844388
vn 0 1 0
usemtl m_1
f 29/103/31 31/104/31 32/105/31 30/106/31
f 30/107/32 32/108/32 28/109/32
f 31/110/33 33/111/33 34/112/33 32/113/33
f 32/114/34 34/115/34 28/116/34
f 33/117/35 35/118/35 36/119/35 34/120/35
f 34/121/36 36/122/36 28/123/36
f 35/124/37 37/125/37 38/126/37 36/127/37
f 36/128/38 38/129/38 28/130/38
f 37/131/39 39/132/39 40/133/39 38/134/39
f 38/135/40 40/136/40 28/137/40
f 39/138/41 29/139/41 30/140/41 40/141/41
f 40/142/42 30/143/42 28/144/42
o bottom2
v 0.5 0.03125 0.5
v 0.5 0.03125 0.65625
v 0.5 0.09375 0.65625
v 0.6353164693413185 0.03125 0.578125
v 0.6353164693413185 0.09375 0.578125
v 0.6353164693413186 0.03125 0.421875
v 0.6353164693413186 0.09375 0.421875
v 0.5 0.03125 0.34375
v 0.5 0.09375 0.34375
v 0.3646835306586815 0.03125 0.42187499999999994
v 0.3646835306586815 0.09375 0.42187499999999994
v 0.3646835306586815 0.03125 0.578125
v 0.3646835306586815 0.09375 0.578125
vt 0.5 1
vt 0.5 0.84375
vt 0.6328125 0.921875
vt 0.34375 0.03125
vt 0.5 0.03125
vt 0.5 0.09375
vt 0.34375 0.09375
vt 0.75 0.84375
vt 0.75 1
vt 0.6171875 0.921875
vt 0.5 0.03125
vt 0.65625 0.03125
vt 0.65625 0.09375
vt 0.5 0.09375
vt 0.5 1
vt 0.5 0.84375
vt 0.6328125 0.921875
vt 0.34375 0.03125
vt 0.5 0.03125
vt 0.5 0.09375
vt 0.34375 0.09375
vt 0.75 0.84375
vt 0.75 1
vt 0.6171875 0.921875
vt 0.5 0.03125
vt 0.65625 0.03125
vt 0.65625 0.09375
vt 0.5 0.09375
vt 0.5 1
vt 0.5 0.84375
vt 0.6328125 0.921875
vt 0.34375 0.03125
vt 0.5 0.03125
vt 0.5 0.09375
vt 0.34375 0.09375
vt 0.75 0.84375
vt 0.75 1
vt 0.6171875 0.921875
vt 0.5 0.03125
vt 0.65625 0.03125
vt 0.65625 0.09375
vt 0.5 0.09375
vn 0 -1 0
vn 0.5 0 0.8660254037844387
vn 0 -1 0
vn 1 0 1.7763568394002506e-16
vn 0 -1 0
vn 0.5000000000000002 0 -0.8660254037844386
vn 0 -1 0
vn -0.49999999999999967 0 -0.8660254037844389
vn 0 -1 0
vn -1 0 0
vn 0 -1 0
vn -0.5 0 0.8660254037844387
usemtl m_1
f 44/145/43 42/146/43 41/147/43
f 42/148/44 44/149/44 45/150/44 43/151/44
f 46/152/45 44/153/45 41/154/45
f 44/155/46 46/156/46 47/157/46 45/158/46
f 48/159/47 46/160/47 41/161/47
f 46/162/48 48/163/48 49/164/48 47/165/48
f 50/166/49 48/167/49 41/168/49
f 48/169/50 50/170/50 51/171/50 49/172/50
f 52/173/51 50/174/51 41/175/51
f 50/176/52 52/177/52 53/178/52 51/179/52
f 42/180/53 52/181/53 41/182/53
f 52/183/54 42/184/54 43/185/54 53/186/54
o middle2
v 0.5 0.15625 0.5
v 0.5 0.34375 0.5
v 0.5 0.15625 0.71875
v 0.5 0.34375 0.71875
v 0.6894430570778459 0.15625 0.609375
v 0.6894430570778459 0.34375 0.609375
v 0.689443057077846 0.15625 0.39062500000000006
v 0.689443057077846 0.34375 0.39062500000000006
v 0.5 0.15625 0.28125
v 0.5 0.34375 0.28125
v 0.3105569429221541 0.15625 0.3906249999999999
v 0.3105569429221541 0.34375 0.3906249999999999
v 0.3105569429221541 0.15625 0.609375
v 0.3105569429221541 0.34375 0.609375
vt 0.4375 1
vt 0.4375 0.78125
vt 0.625 0.890625
vt 0.28125 0.15625
vt 0.5 0.15625
vt 0.5 0.34375
vt 0.28125 0.34375
vt 0 1
vt 0 0.78125
vt 0.1875 0.890625
vt 0.8125 0.78125
vt 0.8125 1
vt 0.625 0.890625
vt 0.5 0.15625
vt 0.71875 0.15625
vt 0.71875 0.34375
vt 0.5 0.34375
vt 0.4375 0.78125
vt 0.4375 1
vt 0.25 0.890625
vt 0.4375 1
vt 0.4375 0.78125
vt 0.625 0.890625
vt 0 1
vt 0 0.78125
vt 0.1875 0.890625
vt 0.8125 0.78125
vt 0.8125 1
vt 0.625 0.890625
vt 0.5 0.15625
vt 0.71875 0.15625
vt 0.71875 0.34375
vt 0.5 0.34375
vt 0.4375 0.78125
vt 0.4375 1
vt 0.25 0.890625
vt 0.4375 1
vt 0.4375 0.78125
vt 0.625 0.890625
vt 0.28125 0.15625
vt 0.5 0.15625
vt 0.5 0.34375
vt 0.28125 0.34375
vt 0 1
vt 0 0.78125
vt 0.1875 0.890625
vt 0.8125 0.78125
vt 0.8125 1
vt 0.625 0.890625
vt 0.5 0.15625
vt 0.71875 0.15625
vt 0.71875 0.34375
vt 0.5 0.34375
vt 0.4375 0.78125
vt 0.4375 1
vt 0.25 0.890625
vt 0.28125 0.15625
vt 0.5 0.15625
vt 0.5 0.34375
vt 0.28125 0.34375
vn 0 -1 0
vn 0.49999999999999983 0 0.8660254037844387
vn 0 1 0
vn 0 -1 0
vn 1 0 1.268826313857322e-16
vn 0 1 0
vn 0 -1 0
vn 0 1 0
vn 0 -1 0
vn -0.49999999999999967 0 -0.8660254037844388
vn 0 1 0
vn 0 -1 0
vn -1 0 -1.2688263138573212e-16
vn 0 1 0
vn 0 -1 0
vn -0.49999999999999983 0 0.8660254037844387
vn 0 1 0
vn 0.5000000000000003 0 -0.8660254037844387
usemtl m_1
f 58/187/55 56/188/55 54/189/55
f 56/190/56 58/191/56 59/192/56 57/193/56
f 57/194/57 59/195/57 55/196/57
f 60/197/58 58/198/58 54/199/58
f 58/200/59 60/201/59 61/202/59 59/203/59
f 59/204/60 61/205/60 55/206/60
f 62/207/61 60/208/61 54/209/61
f 61/210/62 63/211/62 55/212/62
f 64/213/63 62/214/63 54/215/63
f 62/216/64 64/217/64 65/218/64 63/219/64
f 63/220/65 65/221/65 55/222/65
f 66/223/66 64/224/66 54/225/66
f 64/226/67 66/227/67 67/228/67 65/229/67
f 65/230/68 67/231/68 55/232/68
f 56/233/69 66/234/69 54/235/69
f 66/236/70 56/237/70 57/238/70 67/239/70
f 67/240/71 57/241/71 55/242/71
f 60/243/72 62/244/72 63/245/72 61/246/72
o top2
v 0.5 0.53125 0.53125
v 0.5 0.59375 0.53125
v 0.5270632938682637 0.53125 0.515625
v 0.5270632938682637 0.59375 0.515625
v 0.5270632938682637 0.53125 0.484375
v 0.5270632938682637 0.59375 0.484375
v 0.5 0.53125 0.46875
v 0.5 0.59375 0.46875
v 0.4729367061317363 0.53125 0.484375
v 0.4729367061317363 0.59375 0.484375
v 0.4729367061317363 0.53125 0.515625
v 0.4729367061317363 0.59375 0.515625
vt 0.46875 0.53125
vt 0.5 0.53125
vt 0.5 0.59375
vt 0.46875 0.59375
vt 0.5 0.53125
vt 0.53125 0.53125
vt 0.53125 0.59375
vt 0.5 0.59375
vt 0.46875 0.53125
vt 0.5 0.53125
vt 0.5 0.59375
vt 0.46875 0.59375
vt 0.5 0.53125
vt 0.53125 0.53125
vt 0.53125 0.59375
vt 0.5 0.59375
vt 0.46875 0.53125
vt 0.5 0.53125
vt 0.5 0.59375
vt 0.46875 0.59375
vt 0.5 0.53125
vt 0.53125 0.53125
vt 0.53125 0.59375
vt 0.5 0.59375
vn 0.49999999999999994 0 0.8660254037844387
vn 1 0 1.1102230246251568e-16
vn 0.5000000000000002 0 -0.8660254037844386
vn -0.4999999999999997 0 -0.8660254037844389
vn -1 0 -1.110223024625156e-16
vn -0.49999999999999994 0 0.8660254037844387
usemtl m_1
f 68/247/73 70/248/73 71/249/73 69/250/73
f 70/251/74 72/252/74 73/253/74 71/254/74
f 72/255/75 74/256/75 75/257/75 73/258/75
f 74/259/76 76/260/76 77/261/76 75/262/76
f 76/263/77 78/264/77 79/265/77 77/266/77
f 78/267/78 68/268/78 69/269/78 79/270/78
o cap
v 0.5 0.59375 0.5
v 0.5 0.625 0.5
v 0.5 0.59375 0.5625
v 0.5 0.625 0.5625
v 0.5541265877365275 0.59375 0.53125
v 0.5541265877365275 0.625 0.53125
v 0.5541265877365275 0.59375 0.46875
v 0.5541265877365275 0.625 0.46875
v 0.5 0.59375 0.4375
v 0.5 0.625 0.4375
v 0.4458734122634726 0.59375 0.46875
v 0.4458734122634726 0.625 0.46875
v 0.4458734122634726 0.59375 0.53125
v 0.4458734122634726 0.625 0.53125
vt 0.1875 1
vt 0.1875 0.9375
vt 0.2421875 0.96875
vt 0.4375 0.59375
vt 0.5 0.59375
vt 0.5 0.625
vt 0.4375 0.625
vt 0.1875 1
vt 0.1875 0.9375
vt 0.2421875 0.96875
vt 0.25 0.9375
vt 0.25 1
vt 0.1953125 0.96875
vt 0.5 0.59375
vt 0.5625 0.59375
vt 0.5625 0.625
vt 0.5 0.625
vt 0.25 0.9375
vt 0.25 1
vt 0.1953125 0.96875
vt 0.1875 1
vt 0.1875 0.9375
vt 0.2421875 0.96875
vt 0.4375 0.59375
vt 0.5 0.59375
vt 0.5 0.625
vt 0.4375 0.625
vt 0.1875 1
vt 0.1875 0.9375
vt 0.2421875 0.96875
vt 0.25 0.9375
vt 0.25 1
vt 0.1953125 0.96875
vt 0.5 0.59375
vt 0.5625 0.59375
vt 0.5625 0.625
vt 0.5 0.625
vt 0.25 0.9375
vt 0.25 1
vt 0.1953125 0.96875
vt 0.1875 1
vt 0.1875 0.9375
vt 0.2421875 0.96875
vt 0.4375 0.59375
vt 0.5 0.59375
vt 0.5 0.625
vt 0.4375 0.625
vt 0.1875 1
vt 0.1875 0.9375
vt 0.2421875 0.96875
vt 0.25 0.9375
vt 0.25 1
vt 0.1953125 0.96875
vt 0.5 0.59375
vt 0.5625 0.59375
vt 0.5625 0.625
vt 0.5 0.625
vt 0.25 0.9375
vt 0.25 1
vt 0.1953125 0.96875
vn 0 -1 0
vn 0.49999999999999994 0 0.8660254037844387
vn 0 1 0
vn 0 -1 0
vn 1 0 1.1102230246251568e-16
vn 0 1 0
vn 0 -1 0
vn 0.5000000000000002 0 -0.8660254037844386
vn 0 1 0
vn 0 -1 0
vn -0.4999999999999997 0 -0.8660254037844389
vn 0 1 0
vn 0 -1 0
vn -1 0 -1.110223024625156e-16
vn 0 1 0
vn 0 -1 0
vn -0.49999999999999994 0 0.8660254037844387
vn 0 1 0
usemtl m_1
f 84/271/79 82/272/79 80/273/79
f 82/274/80 84/275/80 85/276/80 83/277/80
f 83/278/81 85/279/81 81/280/81
f 86/281/82 84/282/82 80/283/82
f 84/284/83 86/285/83 87/286/83 85/287/83
f 85/288/84 87/289/84 81/290/84
f 88/291/85 86/292/85 80/293/85
f 86/294/86 88/295/86 89/296/86 87/297/86
f 87/298/87 89/299/87 81/300/87
f 90/301/88 88/302/88 80/303/88
f 88/304/89 90/305/89 91/306/89 89/307/89
f 89/308/90 91/309/90 81/310/90
f 92/311/91 90/312/91 80/313/91
f 90/314/92 92/315/92 93/316/92 91/317/92
f 91/318/93 93/319/93 81/320/93
f 82/321/94 92/322/94 80/323/94
f 92/324/95 82/325/95 83/326/95 93/327/95
f 93/328/96 83/329/96 81/330/96
o handle1
v 0.4921875 0.5625 0.5
v 0.4921875 0.5625 0.5
v 0.4921875 0.34375 0.5
v 0.4921875 0.34375 0.5
v 0.2734375 0.5625 0.5
v 0.2734375 0.5625 0.5
v 0.2734375 0.34375 0.5
v 0.2734375 0.34375 0.5
vt 0.53125 0.5625
vt 0.75 0.5625
vt 0.75 0.34375
vt 0.53125 0.34375
vt 0.75 0.5625
vt 0.53125 0.5625
vt 0.53125 0.34375
vt 0.75 0.34375
vn 0 0 -1
vn 0 0 1
usemtl m_1
f 97/334/97 100/333/97 98/332/97 95/331/97
f 101/338/98 96/337/98 94/336/98 99/335/98
o handle2
v 0.7265625 0.5625 0.5
v 0.7265625 0.5625 0.5
v 0.7265625 0.34375 0.5
v 0.7265625 0.34375 0.5
v 0.5078125 0.5625 0.5
v 0.5078125 0.5625 0.5
v 0.5078125 0.34375 0.5
v 0.5078125 0.34375 0.5
vt 0.25 0.5625
vt 0.46875 0.5625
vt 0.46875 0.34375
vt 0.25 0.34375
vt 0.46875 0.5625
vt 0.25 0.5625
vt 0.25 0.34375
vt 0.46875 0.34375
vn 0 0 -1
vn 0 0 1
usemtl m_1
f 105/342/99 108/341/99 106/340/99 103/339/99
f 109/346/100 104/345/100 102/344/100 107/343/100
o bottom1
v 0.5 0 0.5
v 0.5 0 0.59375
v 0.5 0.03125 0.59375
v 0.5811898816047911 0 0.546875
v 0.5811898816047911 0.03125 0.546875
v 0.5811898816047911 0 0.453125
v 0.5811898816047911 0.03125 0.453125
v 0.5 0 0.40625
v 0.5 0.03125 0.40625
v 0.4188101183952089 0 0.45312499999999994
v 0.4188101183952089 0.03125 0.45312499999999994
v 0.4188101183952089 0 0.546875
v 0.4188101183952089 0.03125 0.546875
vt 0.5625 1
vt 0.5625 0.90625
vt 0.640625 0.953125
vt 0.40625 0
vt 0.5 0
vt 0.5 0.03125
vt 0.40625 0.03125
vt 0.6875 0.90625
vt 0.6875 1
vt 0.609375 0.953125
vt 0.5 0
vt 0.59375 0
vt 0.59375 0.03125
vt 0.5 0.03125
vt 0.5625 1
vt 0.5625 0.90625
vt 0.640625 0.953125
vt 0.40625 0
vt 0.5 0
vt 0.5 0.03125
vt 0.40625 0.03125
vt 0.6875 0.90625
vt 0.6875 1
vt 0.609375 0.953125
vt 0.5 0
vt 0.59375 0
vt 0.59375 0.03125
vt 0.5 0.03125
vt 0.5625 1
vt 0.5625 0.90625
vt 0.640625 0.953125
vt 0.40625 0
vt 0.5 0
vt 0.5 0.03125
vt 0.40625 0.03125
vt 0.6875 0.90625
vt 0.6875 1
vt 0.609375 0.953125
vt 0.5 0
vt 0.59375 0
vt 0.59375 0.03125
vt 0.5 0.03125
vn 0 -1 0
vn 0.49999999999999994 0 0.8660254037844388
vn 0 -1 0
vn 1 0 0
vn 0 -1 0
vn 0.5000000000000003 0 -0.8660254037844387
vn 0 -1 0
vn -0.4999999999999996 0 -0.8660254037844388
vn 0 -1 0
vn -1 0 -1.4802973661668746e-16
vn 0 -1 0
vn -0.49999999999999994 0 0.8660254037844388
usemtl m_1
f 113/347/101 111/348/101 110/349/101
f 111/350/102 113/351/102 114/352/102 112/353/102
f 115/354/103 113/355/103 110/356/103
f 113/357/104 115/358/104 116/359/104 114/360/104
f 117/361/105 115/362/105 110/363/105
f 115/364/106 117/365/106 118/366/106 116/367/106
f 119/368/107 117/369/107 110/370/107
f 117/371/108 119/372/108 120/373/108 118/374/108
f 121/375/109 119/376/109 110/377/109
f 119/378/110 121/379/110 122/380/110 120/381/110
f 111/382/111 121/383/111 110/384/111
f 121/385/112 111/386/112 112/387/112 122/388/112