# Blender v2.91.0 OBJ File: ''
# www.blender.org
mtllib spruce_long_branch_2_top.mtl
o cube
v 0.187076 0.452325 0.604938
v -0.002774 0.727563 -0.270909
v 0.097834 0.883434 -0.243733
v 0.287684 0.608197 0.632113
v -0.002774 0.727563 -0.270909
v 0.187076 0.452325 0.604938
v 0.287684 0.608197 0.632113
v 0.097834 0.883434 -0.243733
vt 0.000000 0.906250
vt 0.468750 0.906250
vt 0.468750 1.000000
vt 0.000000 1.000000
vt 0.468750 0.906250
vt 0.000000 0.906250
vt 0.000000 1.000000
vt 0.468750 1.000000
vn 0.8192 -0.4719 -0.3259
vn -0.8192 0.4719 0.3259
usemtl none
s 1
f 1/1/1 2/2/1 3/3/1 4/4/1
f 5/5/2 6/6/2 7/7/2 8/8/2
o cube.000
v 0.458045 0.576858 1.112865
v 0.249674 0.457659 0.638946
v 0.265645 0.637053 0.586803
v 0.474017 0.756252 1.060722
v 0.249674 0.457659 0.638946
v 0.458045 0.576858 1.112865
v 0.474017 0.756252 1.060722
v 0.265645 0.637053 0.586803
vt 0.687500 0.906250
vt 0.953125 0.906250
vt 0.953125 1.000000
vt 0.687500 1.000000
vt 0.953125 0.906250
vt 0.687500 0.906250
vt 0.687500 1.000000
vt 0.953125 1.000000
vn 0.9159 -0.1851 -0.3562
vn -0.9159 0.1851 0.3562
usemtl none
s 1
f 9/9/3 10/10/3 11/11/3 12/12/3
f 13/13/4 14/14/4 15/15/4 16/16/4
o cube.001
v -0.061126 0.691636 -0.254153
v -0.134503 0.851825 -0.512245
v -0.042614 1.001111 -0.445713
v 0.030763 0.840922 -0.187621
v -0.134503 0.851825 -0.512245
v -0.061126 0.691636 -0.254153
v 0.030763 0.840922 -0.187621
v -0.042614 1.001111 -0.445713
vt 0.375000 0.906250
vt 0.531250 0.906250
vt 0.531250 1.000000
vt 0.375000 1.000000
vt 0.531250 0.906250
vt 0.375000 0.906250
vt 0.375000 1.000000
vt 0.531250 1.000000
vn 0.8395 -0.3214 -0.4382
vn -0.8395 0.3214 0.4382
usemtl none
s 1
f 17/17/5 18/18/5 19/19/5 20/20/5
f 21/21/6 22/22/6 23/23/6 24/24/6
o cube.002
v -0.141496 0.863683 -0.520839
v -0.225900 1.100143 -0.706901
v -0.117199 1.216679 -0.608109
v -0.032796 0.980219 -0.422047
v -0.225900 1.100143 -0.706901
v -0.141496 0.863683 -0.520839
v -0.032796 0.980219 -0.422047
v -0.117199 1.216679 -0.608109
vt 0.531250 0.906250
vt 0.687500 0.906250
vt 0.687500 1.000000
vt 0.531250 1.000000
vt 0.687500 0.906250
vt 0.531250 0.906250
vt 0.531250 1.000000
vt 0.687500 1.000000
vn 0.7687 -0.2029 -0.6065
vn -0.7687 0.2029 0.6065
usemtl none
s 1
f 25/25/7 26/26/7 27/27/7 28/28/7
f 29/29/8 30/30/8 31/31/8 32/32/8
o cube.003
v 0.118208 0.506404 0.336544
v 0.015965 0.627648 -0.003266
v 0.103894 0.790219 0.028283
v 0.206137 0.668975 0.368093
v 0.015965 0.627648 -0.003266
v 0.118208 0.506404 0.336544
v 0.206137 0.668975 0.368093
v 0.103894 0.790219 0.028283
vt 0.187500 0.906250
vt 0.375000 0.906250
vt 0.375000 1.000000
vt 0.187500 1.000000
vt 0.375000 0.906250
vt 0.187500 0.906250
vt 0.187500 1.000000
vt 0.375000 1.000000
vn 0.8401 -0.3791 -0.3880
vn -0.8401 0.3791 0.3880
usemtl none
s 1
f 33/33/9 34/34/9 35/35/9 36/36/9
f 37/37/10 38/38/10 39/39/10 40/40/10
o cube.004
v -0.245224 0.292918 -0.352894
v -0.252325 0.286694 0.209526
v 0.092473 0.731030 0.218797
v 0.099574 0.737254 -0.343624
v -0.252325 0.286694 0.209526
v -0.245224 0.292918 -0.352894
v 0.099574 0.737254 -0.343624
v 0.092473 0.731030 0.218797
vt 0.281250 0.625000
vt 0.000000 0.625000
vt 0.000000 0.906250
vt 0.281250 0.906250
vt 0.000000 0.625000
vt 0.281250 0.625000
vt 0.281250 0.906250
vt 0.000000 0.906250
vn -0.7900 0.6131 -0.0032
vn 0.7900 -0.6131 0.0032
usemtl none
s 1
f 41/41/11 42/42/11 43/43/11 44/44/11
f 45/45/12 46/46/12 47/47/12 48/48/12
o cube.005
v 0.046757 0.427328 0.110529
v 0.372040 0.707159 0.800487
v -0.123470 0.226550 1.229021
v -0.448752 -0.053282 0.539063
v 0.372040 0.707159 0.800487
v 0.046757 0.427328 0.110529
v -0.448752 -0.053282 0.539063
v -0.123470 0.226550 1.229021
vt 0.968750 0.500000
vt 0.562500 0.500000
vt 0.562500 0.906250
vt 0.968750 0.906250
vt 0.562500 0.500000
vt 0.968750 0.500000
vt 0.968750 0.906250
vt 0.562500 0.906250
vn 0.6840 -0.7290 -0.0268
vn -0.6840 0.7290 0.0268
usemtl none
s 1
f 49/49/13 50/50/13 51/51/13 52/52/13
f 53/53/14 54/54/14 55/55/14 56/56/14
o cube.006
v 0.543996 0.320227 0.055547
v 0.234059 0.672450 0.365844
v -0.033414 0.845498 -0.097749
v 0.276523 0.493275 -0.408046
v 0.234059 0.672450 0.365844
v 0.543996 0.320227 0.055547
v 0.276523 0.493275 -0.408046
v -0.033414 0.845498 -0.097749
vt 1.000000 0.281250
vt 0.718750 0.281250
vt 0.718750 0.562500
vt 1.000000 0.562500
vt 0.718750 0.281250
vt 1.000000 0.281250
vt 1.000000 0.562500
vt 0.718750 0.562500
vn -0.6858 -0.7164 0.1282
vn 0.6858 0.7164 -0.1282
usemtl none
s 1
f 57/57/15 58/58/15 59/59/15 60/60/15
f 61/61/16 62/62/16 63/63/16 64/64/16
o cube.007
v -0.313504 0.374766 -0.586016
v -0.002364 0.239809 -0.137257
v 0.211140 0.760146 -0.128804
v -0.100001 0.895103 -0.577563
v -0.002364 0.239809 -0.137257
v -0.313504 0.374766 -0.586016
v -0.100001 0.895103 -0.577563
v 0.211140 0.760146 -0.128804
vt 0.281250 0.343750
vt 0.000000 0.343750
vt 0.000000 0.625000
vt 0.281250 0.625000
vt 0.000000 0.343750
vt 0.281250 0.343750
vt 0.281250 0.625000
vt 0.000000 0.625000
vn -0.7416 0.2945 0.6027
vn 0.7416 -0.2945 -0.6027
usemtl none
s 1
f 65/65/17 66/66/17 67/67/17 68/68/17
f 69/69/18 70/70/18 71/71/18 72/72/18
o cube.008
v -0.028436 0.787945 -0.167411
v -0.432865 0.396995 -0.168759
v -0.237570 0.193289 0.317831
v 0.166858 0.584239 0.319180
v -0.432865 0.396995 -0.168759
v -0.028436 0.787945 -0.167411
v 0.166858 0.584239 0.319180
v -0.237570 0.193289 0.317831
vt 0.421875 0.375000
vt 0.140625 0.375000
vt 0.140625 0.093750
vt 0.421875 0.093750
vt 0.140625 0.375000
vt 0.421875 0.375000
vt 0.421875 0.093750
vt 0.140625 0.093750
vn -0.6021 0.6211 0.5017
vn 0.6021 -0.6211 -0.5017
usemtl none
s 1
f 73/73/19 74/74/19 75/75/19 76/76/19
f 77/77/20 78/78/20 79/79/20 80/80/20
o cube.009
v 0.902260 0.046658 0.592540
v 0.643214 0.556627 1.169587
v 0.126978 0.893403 0.640212
v 0.386024 0.383434 0.063165
v 0.643214 0.556627 1.169587
v 0.902260 0.046658 0.592540
v 0.386024 0.383434 0.063165
v 0.126978 0.893403 0.640212
vt 1.000000 0.000000
vt 0.718750 0.000000
vt 0.718750 0.281250
vt 1.000000 0.281250
vt 0.718750 0.000000
vt 1.000000 0.000000
vt 1.000000 0.281250
vt 0.718750 0.281250
vn -0.7033 -0.6590 0.2666
vn 0.7033 0.6590 -0.2666
usemtl none
s 1
f 81/81/21 82/82/21 83/83/21 84/84/21
f 85/85/22 86/86/22 87/87/22 88/88/22
o cube.010
v 0.151367 0.354873 1.410256
v 0.542578 0.733542 1.551571
v 0.563839 0.910659 1.018107
v 0.172628 0.531990 0.876792
v 0.542578 0.733542 1.551571
v 0.151367 0.354873 1.410256
v 0.172628 0.531990 0.876792
v 0.563839 0.910659 1.018107
vt 1.000000 0.000000
vt 0.718750 0.000000
vt 0.718750 0.281250
vt 1.000000 0.281250
vt 0.718750 0.000000
vt 1.000000 0.000000
vt 1.000000 0.281250
vt 0.718750 0.281250
vn -0.7175 0.6691 0.1935
vn 0.7175 -0.6691 -0.1935
usemtl none
s 1
f 89/89/23 90/90/23 91/91/23 92/92/23
f 93/93/24 94/94/24 95/95/24 96/96/24
o cube.011
v 0.735582 1.058091 1.726716
v 0.406612 0.539921 1.018067
v 0.420175 0.687823 0.903623
v 0.749145 1.205993 1.612273
v 0.406612 0.539921 1.018067
v 0.735582 1.058091 1.726716
v 0.749145 1.205993 1.612273
v 0.420175 0.687823 0.903623
vt 0.000000 0.906250
vt 0.468750 0.906250
vt 0.468750 1.000000
vt 0.000000 1.000000
vt 0.468750 0.906250
vt 0.000000 0.906250
vt 0.000000 1.000000
vt 0.468750 1.000000
vn 0.9336 -0.2689 -0.2368
vn -0.9336 0.2689 0.2368
usemtl none
s 1
f 97/97/25 98/98/25 99/99/25 100/100/25
f 101/101/26 102/102/26 103/103/26 104/104/26
o cube.012
v 0.353145 0.809801 0.896120
v 0.737421 0.412547 0.791586
v 0.991221 0.529603 1.279736
v 0.606944 0.926857 1.384269
v 0.737421 0.412547 0.791586
v 0.353145 0.809801 0.896120
v 0.606944 0.926857 1.384269
v 0.991221 0.529603 1.279736
vt 0.421875 0.375000
vt 0.140625 0.375000
vt 0.140625 0.093750
vt 0.421875 0.093750
vt 0.140625 0.375000
vt 0.421875 0.375000
vt 0.421875 0.093750
vt 0.140625 0.093750
vn -0.5742 -0.6767 0.4608
vn 0.5742 0.6767 -0.4608
usemtl none
s 1
f 105/105/27 106/106/27 107/107/27 108/108/27
f 109/109/28 110/110/28 111/111/28 112/112/28
