# Blender v2.91.0 OBJ File: ''
# www.blender.org
mtllib spruce_top.mtl
o cube
v 1.410196 -0.218750 -0.412284
v -0.428282 -0.218750 1.426194
v -0.428282 1.781250 1.426195
v 1.410196 1.781250 -0.412283
v -0.428282 -0.218750 1.426194
v 1.410196 -0.218750 -0.412284
v 1.410196 1.781250 -0.412283
v -0.428282 1.781250 1.426195
vt 0.000000 0.000000
vt 1.000000 0.000000
vt 1.000000 1.000000
vt 0.000000 1.000000
vt 1.000000 0.000000
vt 0.000000 0.000000
vt 0.000000 1.000000
vt 1.000000 1.000000
vn -0.7071 0.0000 -0.7071
vn 0.7071 -0.0000 0.7071
usemtl m_df73dcee-90a1-ddc9-51f6-5edb06d45820
s 1
f 1/1/1 2/2/1 3/3/1 4/4/1
f 5/5/2 6/6/2 7/7/2 8/8/2
o cube.000
v 1.410196 -0.218750 1.426194
v -0.428282 -0.218750 -0.412284
v -0.428282 1.781250 -0.412283
v 1.410196 1.781250 1.426195
v -0.428282 -0.218750 -0.412284
v 1.410196 -0.218750 1.426194
v 1.410196 1.781250 1.426195
v -0.428282 1.781250 -0.412283
vt 1.000000 0.000000
vt 0.000000 0.000000
vt 0.000000 1.000000
vt 1.000000 1.000000
vt 0.000000 0.000000
vt 1.000000 0.000000
vt 1.000000 1.000000
vt 0.000000 1.000000
vn 0.7071 0.0000 -0.7071
vn -0.7071 -0.0000 0.7071
usemtl m_df73dcee-90a1-ddc9-51f6-5edb06d45820
s 1
f 9/9/3 10/10/3 11/11/3 12/12/3
f 13/13/4 14/14/4 15/15/4 16/16/4
o cube.001
v 0.792512 0.593750 -0.732260
v 0.010677 0.593750 1.747404
v 0.010677 2.593750 1.747404
v 0.792512 2.593750 -0.732260
v 0.010677 0.593750 1.747404
v 0.792512 0.593750 -0.732260
v 0.792512 2.593750 -0.732260
v 0.010677 2.593750 1.747404
vt 0.000000 0.000000
vt 1.000000 0.000000
vt 1.000000 1.000000
vt 0.000000 1.000000
vt 1.000000 0.000000
vt 0.000000 0.000000
vt 0.000000 1.000000
vt 1.000000 1.000000
vn -0.9537 0.0000 -0.3007
vn 0.9537 -0.0000 0.3007
usemtl m_97f6a1d6-fb33-bbdf-6c8d-5c68c33bc03b
s 1
f 17/17/5 18/18/5 19/19/5 20/20/5
f 21/21/6 22/22/6 23/23/6 24/24/6
o cube.002
v 1.750088 0.593750 0.834450
v -0.729576 0.593750 0.052615
v -0.729576 2.593750 0.052615
v 1.750088 2.593750 0.834451
v -0.729576 0.593750 0.052615
v 1.750088 0.593750 0.834450
v 1.750088 2.593750 0.834451
v -0.729576 2.593750 0.052615
vt 1.000000 0.000000
vt 0.000000 0.000000
vt 0.000000 1.000000
vt 1.000000 1.000000
vt 0.000000 0.000000
vt 1.000000 0.000000
vt 1.000000 1.000000
vt 0.000000 1.000000
vn 0.3007 0.0000 -0.9537
vn -0.3007 -0.0000 0.9537
usemtl m_97f6a1d6-fb33-bbdf-6c8d-5c68c33bc03b
s 1
f 25/25/7 26/26/7 27/27/7 28/28/7
f 29/29/8 30/30/8 31/31/8 32/32/8
o cube.003
v -0.524183 0.280064 1.354892
v 0.324564 1.386173 1.538445
v 0.756597 1.378713 -0.414320
v -0.092150 0.272604 -0.597872
v -0.092150 0.272604 -0.597872
v 0.756597 1.378713 -0.414320
v 0.324564 1.386173 1.538445
v -0.524183 0.280064 1.354892
vt 0.000000 0.093750
vt 0.000000 0.796875
vt 1.000000 0.796875
vt 1.000000 0.093750
vt 1.000000 0.093750
vt 1.000000 0.796875
vt 0.000000 0.796875
vt 0.000000 0.093750
vn -0.7675 0.6175 -0.1722
vn 0.7675 -0.6175 0.1722
usemtl m_df73dcee-90a1-ddc9-51f6-5edb06d45820
s 1
f 33/33/9 34/34/9 35/35/9 36/36/9
f 37/37/10 38/38/10 39/39/10 40/40/10
o cube.004
v -0.509043 1.036054 0.838106
v 1.490957 1.036054 0.838106
v 1.490957 0.086006 -0.198690
v -0.509043 0.086006 -0.198690
v -0.509043 0.086006 -0.198690
v 1.490957 0.086006 -0.198690
v 1.490957 1.036054 0.838106
v -0.509043 1.036054 0.838106
vt 0.000000 0.859375
vt 1.000000 0.859375
vt 1.000000 0.156250
vt 0.000000 0.156250
vt 0.000000 0.156250
vt 1.000000 0.156250
vt 1.000000 0.859375
vt 0.000000 0.859375
vn 0.0000 0.7373 -0.6756
vn 0.0000 -0.7373 0.6756
usemtl m_df73dcee-90a1-ddc9-51f6-5edb06d45820
s 1
f 41/41/11 42/42/11 43/43/11 44/44/11
f 45/45/12 46/46/12 47/47/12 48/48/12
o cube.005
v 0.198005 1.528784 1.338262
v 0.837474 0.300376 1.582453
v 1.303457 0.157364 -0.357238
v 0.663988 1.385773 -0.601431
v 0.663988 1.385773 -0.601431
v 1.303457 0.157364 -0.357238
v 0.837474 0.300376 1.582453
v 0.198005 1.528784 1.338262
vt 0.000000 0.843750
vt 0.000000 0.140625
vt 1.000000 0.140625
vt 1.000000 0.843750
vt 1.000000 0.843750
vt 1.000000 0.140625
vt 0.000000 0.140625
vt 0.000000 0.843750
vn 0.8596 0.4815 0.1710
vn -0.8596 -0.4815 -0.1710
usemtl m_df73dcee-90a1-ddc9-51f6-5edb06d45820
s 1
f 49/49/13 50/50/13 51/51/13 52/52/13
f 53/53/14 54/54/14 55/55/14 56/56/14
o cube.006
v -0.468006 0.103425 1.014863
v 1.524383 0.103425 0.840551
v 1.445601 1.180675 -0.059928
v -0.546788 1.180675 0.114383
v -0.546788 1.180675 0.114383
v 1.445601 1.180675 -0.059928
v 1.524383 0.103425 0.840551
v -0.468006 0.103425 1.014863
vt 0.000000 0.125000
vt 1.000000 0.125000
vt 1.000000 0.828125
vt 0.000000 0.828125
vt 0.000000 0.828125
vt 1.000000 0.828125
vt 1.000000 0.125000
vt 0.000000 0.125000
vn 0.0668 0.6428 0.7631
vn -0.0668 -0.6428 -0.7631
usemtl m_df73dcee-90a1-ddc9-51f6-5edb06d45820
s 1
f 57/57/15 58/58/15 59/59/15 60/60/15
f 61/61/16 62/62/16 63/63/16 64/64/16
o cube.007
v 0.084199 0.555462 1.436328
v 0.385963 1.916632 1.619881
v 0.612430 2.132799 -0.355463
v 0.310665 0.771629 -0.539016
v 0.310665 0.771629 -0.539016
v 0.612430 2.132799 -0.355463
v 0.385963 1.916632 1.619881
v 0.084199 0.555462 1.436328
vt 0.000000 0.093750
vt 0.000000 0.796875
vt 1.000000 0.796875
vt 1.000000 0.093750
vt 1.000000 0.093750
vt 1.000000 0.796875
vt 0.000000 0.796875
vt 0.000000 0.093750
vn -0.9701 0.2267 -0.0864
vn 0.9701 -0.2267 0.0864
usemtl m_97f6a1d6-fb33-bbdf-6c8d-5c68c33bc03b
s 1
f 65/65/17 66/66/17 67/67/17 68/68/17
f 69/69/18 70/70/18 71/71/18 72/72/18
o cube.008
v 0.108179 2.154204 1.213287
v 0.581838 0.852837 1.457480
v 1.025167 0.650226 -0.482213
v 0.551508 1.951593 -0.726405
v 0.551508 1.951593 -0.726405
v 1.025167 0.650226 -0.482213
v 0.581838 0.852837 1.457480
v 0.108179 2.154204 1.213287
vt 0.000000 0.804688
vt 0.000000 0.101562
vt 1.000000 0.101562
vt 1.000000 0.804688
vt 1.000000 0.804688
vt 1.000000 0.101562
vt 0.000000 0.101562
vt 0.000000 0.804688
vn 0.9151 0.3652 0.1710
vn -0.9151 -0.3652 -0.1710
usemtl m_97f6a1d6-fb33-bbdf-6c8d-5c68c33bc03b
s 1
f 73/73/19 74/74/19 75/75/19 76/76/19
f 77/77/20 78/78/20 79/79/20 80/80/20
