# Blender v2.91.0 OBJ File: ''
# www.blender.org
mtllib spruce_long_branch_3_top.mtl
o cube
v 0.815196 0.492923 0.925173
v 0.183837 0.527698 0.233015
v 0.254142 0.692298 0.177155
v 0.885501 0.657523 0.869314
v 0.183837 0.527698 0.233015
v 0.815196 0.492923 0.925173
v 0.885501 0.657523 0.869314
v 0.254142 0.692298 0.177155
vt 0.000000 0.906250
vt 0.468750 0.906250
vt 0.468750 1.000000
vt 0.000000 1.000000
vt 0.468750 0.906250
vt 0.000000 0.906250
vt 0.000000 1.000000
vt 0.468750 1.000000
vn 0.6371 -0.4775 -0.6051
vn -0.6371 0.4775 0.6051
usemtl m_00dfe9cf-6861-d490-4f7a-e1ccfeffb02d
s 1
f 1/1/1 2/2/1 3/3/1 4/4/1
f 5/5/2 6/6/2 7/7/2 8/8/2
o cube.000
v 1.270240 0.676412 1.220303
v 0.871746 0.511796 0.909932
v 0.851283 0.686043 0.843786
v 1.249778 0.850660 1.154157
v 0.871746 0.511796 0.909932
v 1.270240 0.676412 1.220303
v 1.249778 0.850660 1.154157
v 0.851283 0.686043 0.843786
vt 0.687500 0.906250
vt 0.953125 0.906250
vt 0.953125 1.000000
vt 0.687500 1.000000
vt 0.953125 0.906250
vt 0.687500 0.906250
vt 0.687500 1.000000
vt 0.953125 1.000000
vn 0.6522 -0.2009 -0.7309
vn -0.6522 0.2009 0.7309
usemtl m_00dfe9cf-6861-d490-4f7a-e1ccfeffb02d
s 1
f 9/9/3 10/10/3 11/11/3 12/12/3
f 13/13/4 14/14/4 15/15/4 16/16/4
o cube.001
v 0.148366 0.492926 0.283107
v -0.067426 0.578306 0.073822
v 0.015345 0.745681 0.056760
v 0.231137 0.660300 0.266045
v -0.067426 0.578306 0.073822
v 0.148366 0.492926 0.283107
v 0.231137 0.660300 0.266045
v 0.015345 0.745681 0.056760
vt 0.375000 0.906250
vt 0.531250 0.906250
vt 0.531250 1.000000
vt 0.375000 1.000000
vt 0.531250 0.906250
vt 0.375000 0.906250
vt 0.375000 1.000000
vt 0.531250 1.000000
vn 0.5730 -0.3585 -0.7370
vn -0.5730 0.3585 0.7370
usemtl m_00dfe9cf-6861-d490-4f7a-e1ccfeffb02d
s 1
f 17/17/5 18/18/5 19/19/5 20/20/5
f 21/21/6 22/22/6 23/23/6 24/24/6
o cube.002
v -0.079740 0.587122 0.067988
v -0.284967 0.763258 -0.088582
v -0.166282 0.908219 -0.081074
v 0.038945 0.732083 0.075496
v -0.284967 0.763258 -0.088582
v -0.079740 0.587122 0.067988
v 0.038945 0.732083 0.075496
v -0.166282 0.908219 -0.081074
vt 0.531250 0.906250
vt 0.687500 0.906250
vt 0.687500 1.000000
vt 0.531250 1.000000
vt 0.687500 0.906250
vt 0.531250 0.906250
vt 0.531250 1.000000
vt 0.687500 1.000000
vn 0.4099 -0.2908 -0.8645
vn -0.4099 0.2908 0.8645
usemtl m_00dfe9cf-6861-d490-4f7a-e1ccfeffb02d
s 1
f 25/25/7 26/26/7 27/27/7 28/28/7
f 29/29/8 30/30/8 31/31/8 32/32/8
o cube.003
v 0.618184 0.473569 0.723892
v 0.345963 0.498958 0.467228
v 0.406202 0.670198 0.420277
v 0.678423 0.644809 0.676940
v 0.345963 0.498958 0.467228
v 0.618184 0.473569 0.723892
v 0.678423 0.644809 0.676940
v 0.406202 0.670198 0.420277
vt 0.187500 0.906250
vt 0.375000 0.906250
vt 0.375000 1.000000
vt 0.187500 1.000000
vt 0.375000 0.906250
vt 0.187500 0.906250
vt 0.187500 1.000000
vt 0.375000 1.000000
vn 0.6081 -0.4017 -0.6847
vn -0.6081 0.4017 0.6847
usemtl m_00dfe9cf-6861-d490-4f7a-e1ccfeffb02d
s 1
f 33/33/9 34/34/9 35/35/9 36/36/9
f 37/37/10 38/38/10 39/39/10 40/40/10
o cube.004
v 0.017578 0.069929 0.364264
v 0.280290 0.202981 0.843519
v 0.498099 0.659474 0.597390
v 0.235387 0.526422 0.118135
v 0.280290 0.202981 0.843519
v 0.017578 0.069929 0.364264
v 0.235387 0.526422 0.118135
v 0.498099 0.659474 0.597390
vt 0.281250 0.625000
vt 0.000000 0.625000
vt 0.000000 0.906250
vt 0.281250 0.906250
vt 0.000000 0.625000
vt 0.281250 0.625000
vt 0.281250 0.906250
vt 0.000000 0.906250
vn -0.7949 0.5343 0.2874
vn 0.7949 -0.5343 -0.2874
usemtl m_00dfe9cf-6861-d490-4f7a-e1ccfeffb02d
s 1
f 41/41/11 42/42/11 43/43/11 44/44/11
f 45/45/12 46/46/12 47/47/12 48/48/12
o cube.005
v 0.456949 0.460861 0.565768
v 1.059748 0.804982 0.988107
v 0.865852 0.351863 1.634051
v 0.263054 0.007742 1.211712
v 1.059748 0.804982 0.988107
v 0.456949 0.460861 0.565768
v 0.263054 0.007742 1.211712
v 0.865852 0.351863 1.634051
vt 0.968750 0.500000
vt 0.562500 0.500000
vt 0.562500 0.906250
vt 0.968750 0.906250
vt 0.562500 0.500000
vt 0.968750 0.500000
vt 0.968750 0.906250
vt 0.562500 0.906250
vn 0.6266 -0.7139 -0.3127
vn -0.6266 0.7139 0.3127
usemtl m_00dfe9cf-6861-d490-4f7a-e1ccfeffb02d
s 1
f 49/49/13 50/50/13 51/51/13 52/52/13
f 53/53/14 54/54/14 55/55/14 56/56/14
o cube.006
v 0.885162 0.254808 0.304627
v 0.700701 0.649629 0.660292
v 0.217894 0.682379 0.373534
v 0.402354 0.287559 0.017869
v 0.700701 0.649629 0.660292
v 0.885162 0.254808 0.304627
v 0.402354 0.287559 0.017869
v 0.217894 0.682379 0.373534
vt 1.000000 0.281250
vt 0.718750 0.281250
vt 0.718750 0.562500
vt 1.000000 0.562500
vt 0.718750 0.281250
vt 1.000000 0.281250
vt 1.000000 0.562500
vt 0.718750 0.562500
vn -0.3946 -0.7099 0.5834
vn 0.3946 0.7099 -0.5834
usemtl m_00dfe9cf-6861-d490-4f7a-e1ccfeffb02d
s 1
f 57/57/15 58/58/15 59/59/15 60/60/15
f 61/61/16 62/62/16 63/63/16 64/64/16
o cube.007
v -0.167326 0.086197 0.187479
v 0.338842 0.089722 0.432810
v 0.429233 0.609926 0.238841
v -0.076935 0.606400 -0.006491
v 0.338842 0.089722 0.432810
v -0.167326 0.086197 0.187479
v -0.076935 0.606400 -0.006491
v 0.429233 0.609926 0.238841
vt 0.281250 0.343750
vt 0.000000 0.343750
vt 0.000000 0.625000
vt 0.281250 0.625000
vt 0.000000 0.343750
vt 0.281250 0.343750
vt 0.281250 0.625000
vt 0.000000 0.625000
vn -0.4055 0.3804 0.8312
vn 0.4055 -0.3804 -0.8312
usemtl m_00dfe9cf-6861-d490-4f7a-e1ccfeffb02d
s 1
f 65/65/17 66/66/17 67/67/17 68/68/17
f 69/69/18 70/70/18 71/71/18 72/72/18
o cube.008
v 0.199764 0.609855 0.322530
v -0.075491 0.202582 0.595970
v 0.361949 0.140698 0.944141
v 0.637204 0.547971 0.670700
v -0.075491 0.202582 0.595970
v 0.199764 0.609855 0.322530
v 0.637204 0.547971 0.670700
v 0.361949 0.140698 0.944141
vt 0.421875 0.375000
vt 0.140625 0.375000
vt 0.140625 0.093750
vt 0.421875 0.093750
vt 0.140625 0.375000
vt 0.421875 0.375000
vt 0.421875 0.093750
vt 0.140625 0.093750
vn -0.3947 0.6809 0.6169
vn 0.3947 -0.6809 -0.6169
usemtl m_00dfe9cf-6861-d490-4f7a-e1ccfeffb02d
s 1
f 73/73/19 74/74/19 75/75/19 76/76/19
f 77/77/20 78/78/20 79/79/20 80/80/20
o cube.009
v 1.450101 0.090746 0.584269
v 1.475010 0.642057 1.180584
v 0.747052 0.921690 0.952463
v 0.722143 0.370380 0.356148
v 1.475010 0.642057 1.180584
v 1.450101 0.090746 0.584269
v 0.722143 0.370380 0.356148
v 0.747052 0.921690 0.952463
vt 1.000000 0.000000
vt 0.718750 0.000000
vt 0.718750 0.281250
vt 1.000000 0.281250
vt 0.718750 0.000000
vt 1.000000 0.000000
vt 1.000000 0.281250
vt 0.718750 0.281250
vn -0.4431 -0.6490 0.6185
vn 0.4431 0.6490 -0.6185
usemtl m_00dfe9cf-6861-d490-4f7a-e1ccfeffb02d
s 1
f 81/81/21 82/82/21 83/83/21 84/84/21
f 85/85/22 86/86/22 87/87/22 88/88/22
o cube.010
v 1.630357 1.232682 1.506540
v 1.061828 0.625307 1.074363
v 1.019907 0.755677 0.946291
v 1.588436 1.363052 1.378468
v 1.061828 0.625307 1.074363
v 1.630357 1.232682 1.506540
v 1.588436 1.363052 1.378468
v 1.019907 0.755677 0.946291
vt 0.000000 0.906250
vt 0.468750 0.906250
vt 0.468750 1.000000
vt 0.000000 1.000000
vt 0.468750 0.906250
vt 0.000000 0.906250
vt 0.000000 1.000000
vt 0.468750 1.000000
vn 0.7631 -0.3112 -0.5665
vn -0.7631 0.3112 0.5665
usemtl m_00dfe9cf-6861-d490-4f7a-e1ccfeffb02d
s 1
f 89/89/23 90/90/23 91/91/23 92/92/23
f 93/93/24 94/94/24 95/95/24 96/96/24
o cube.011
v 1.076611 0.580858 1.615462
v 1.473213 0.970430 1.529753
v 1.263395 1.071381 1.017706
v 0.866792 0.681809 1.103416
v 1.473213 0.970430 1.529753
v 1.076611 0.580858 1.615462
v 0.866792 0.681809 1.103416
v 1.263395 1.071381 1.017706
vt 1.000000 0.000000
vt 0.718750 0.000000
vt 0.718750 0.281250
vt 1.000000 0.281250
vt 0.718750 0.000000
vt 1.000000 0.000000
vt 1.000000 0.281250
vt 0.718750 0.281250
vn -0.6031 0.6987 0.3849
vn 0.6031 -0.6987 -0.3849
usemtl m_00dfe9cf-6861-d490-4f7a-e1ccfeffb02d
s 1
f 97/97/25 98/98/25 99/99/25 100/100/25
f 101/101/26 102/102/26 103/103/26 104/104/26
o cube.012
v 1.026019 0.957264 1.009022
v 1.350447 0.544424 0.807239
v 1.777906 0.724927 1.125207
v 1.453478 1.137767 1.326990
v 1.350447 0.544424 0.807239
v 1.026019 0.957264 1.009022
v 1.453478 1.137767 1.326990
v 1.777906 0.724927 1.125207
vt 0.421875 0.375000
vt 0.140625 0.375000
vt 0.140625 0.093750
vt 0.421875 0.093750
vt 0.140625 0.375000
vt 0.421875 0.375000
vt 0.421875 0.093750
vt 0.140625 0.093750
vn -0.2998 -0.5986 0.7428
vn 0.2998 0.5986 -0.7428
usemtl m_00dfe9cf-6861-d490-4f7a-e1ccfeffb02d
s 1
f 105/105/27 106/106/27 107/107/27 108/108/27
f 109/109/28 110/110/28 111/111/28 112/112/28
