# Blender v2.91.0 OBJ File: ''
# www.blender.org
mtllib spruce_long_branch.mtl
o cube
v 0.559797 -0.007766 0.641861
v 0.724576 0.027009 -0.280389
v 0.811692 0.191609 -0.258617
v 0.646912 0.156834 0.663632
v 0.724576 0.027009 -0.280389
v 0.559797 -0.007766 0.641861
v 0.646912 0.156834 0.663632
v 0.811692 0.191609 -0.258617
vt 0.000000 0.906250
vt 0.468750 0.906250
vt 0.468750 1.000000
vt 0.000000 1.000000
vt 0.468750 0.906250
vt 0.000000 0.906250
vt 0.000000 1.000000
vt 0.468750 1.000000
vn 0.8679 -0.4775 0.1371
vn -0.8679 0.4775 -0.1371
usemtl m_00dfe9cf-6861-d490-4f7a-e1ccfeffb02d
s 1
f 1/1/1 2/2/1 3/3/1 4/4/1
f 5/5/2 6/6/2 7/7/2 8/8/2
o cube.000
v 0.663242 -0.007762 -0.278036
v 0.697913 0.077618 -0.576640
v 0.761837 0.244992 -0.521360
v 0.727166 0.159612 -0.222756
v 0.697913 0.077618 -0.576640
v 0.663242 -0.007762 -0.278036
v 0.727166 0.159612 -0.222756
v 0.761837 0.244992 -0.521360
vt 0.375000 0.906250
vt 0.531250 0.906250
vt 0.531250 1.000000
vt 0.375000 1.000000
vt 0.531250 0.906250
vt 0.375000 0.906250
vt 0.375000 1.000000
vt 0.531250 1.000000
vn 0.9335 -0.3585 0.0059
vn -0.9335 0.3585 -0.0059
usemtl m_00dfe9cf-6861-d490-4f7a-e1ccfeffb02d
s 1
f 9/9/3 10/10/3 11/11/3 12/12/3
f 13/13/4 14/14/4 15/15/4 16/16/4
o cube.001
v 0.695045 0.086434 -0.589961
v 0.694326 0.262569 -0.848092
v 0.760621 0.407531 -0.749363
v 0.761339 0.231395 -0.491231
v 0.694326 0.262569 -0.848092
v 0.695045 0.086434 -0.589961
v 0.761339 0.231395 -0.491231
v 0.760621 0.407531 -0.749363
vt 0.531250 0.906250
vt 0.687500 0.906250
vt 0.687500 1.000000
vt 0.531250 1.000000
vt 0.687500 0.906250
vt 0.531250 0.906250
vt 0.531250 1.000000
vt 0.687500 1.000000
vn 0.9354 -0.2908 -0.2011
vn -0.9354 0.2908 0.2011
usemtl m_00dfe9cf-6861-d490-4f7a-e1ccfeffb02d
s 1
f 17/17/5 18/18/5 19/19/5 20/20/5
f 21/21/6 22/22/6 23/23/6 24/24/6
o cube.002
v 0.599551 -0.027119 0.363028
v 0.637458 -0.001731 -0.009186
v 0.711379 0.169509 0.010023
v 0.673471 0.144121 0.382237
v 0.637458 -0.001731 -0.009186
v 0.599551 -0.027119 0.363028
v 0.673471 0.144121 0.382237
v 0.711379 0.169509 0.010023
vt 0.187500 0.906250
vt 0.375000 0.906250
vt 0.375000 1.000000
vt 0.187500 1.000000
vt 0.375000 0.906250
vt 0.187500 0.906250
vt 0.187500 1.000000
vt 0.375000 1.000000
vn 0.9134 -0.4017 0.0656
vn -0.9134 0.4017 -0.0656
usemtl m_00dfe9cf-6861-d490-4f7a-e1ccfeffb02d
s 1
f 25/25/7 26/26/7 27/27/7 28/28/7
f 29/29/8 30/30/8 31/31/8 32/32/8
o cube.003
v 0.519237 -0.430759 -0.332392
v 0.298947 -0.297707 0.167784
v 0.626808 0.158786 0.190750
v 0.847098 0.025734 -0.309426
v 0.298947 -0.297707 0.167784
v 0.519237 -0.430759 -0.332392
v 0.847098 0.025734 -0.309426
v 0.626808 0.158786 0.190750
vt 0.281250 0.625000
vt 0.000000 0.625000
vt 0.000000 0.906250
vt 0.281250 0.906250
vt 0.000000 0.625000
vt 0.281250 0.625000
vt 0.281250 0.906250
vt 0.000000 0.906250
vn -0.7120 0.5343 -0.4557
vn 0.7120 -0.5343 0.4557
usemtl m_00dfe9cf-6861-d490-4f7a-e1ccfeffb02d
s 1
f 33/33/9 34/34/9 35/35/9 36/36/9
f 37/37/10 38/38/10 39/39/10 40/40/10
o cube.004
v 0.546928 -0.414491 -0.586706
v 0.660429 -0.410966 -0.035788
v 0.869342 0.109237 -0.082157
v 0.755841 0.105712 -0.633076
v 0.660429 -0.410966 -0.035788
v 0.546928 -0.414491 -0.586706
v 0.755841 0.105712 -0.633076
v 0.869342 0.109237 -0.082157
vt 0.281250 0.343750
vt 0.000000 0.343750
vt 0.000000 0.625000
vt 0.281250 0.625000
vt 0.000000 0.343750
vt 0.281250 0.343750
vt 0.281250 0.625000
vt 0.000000 0.625000
vn -0.9063 0.3804 0.1843
vn 0.9063 -0.3804 -0.1843
usemtl m_00dfe9cf-6861-d490-4f7a-e1ccfeffb02d
s 1
f 41/41/11 42/42/11 43/43/11 44/44/11
f 45/45/12 46/46/12 47/47/12 48/48/12
o cube.005
v 0.663255 0.109166 -0.213260
v 0.278755 -0.298106 -0.265175
v 0.268829 -0.359990 0.293823
v 0.653329 0.047283 0.345737
v 0.278755 -0.298106 -0.265175
v 0.663255 0.109166 -0.213260
v 0.653329 0.047283 0.345737
v 0.268829 -0.359990 0.293823
vt 0.421875 0.375000
vt 0.140625 0.375000
vt 0.140625 0.093750
vt 0.421875 0.093750
vt 0.140625 0.375000
vt 0.421875 0.375000
vt 0.421875 0.093750
vt 0.140625 0.093750
vn -0.7297 0.6809 0.0624
vn 0.7297 -0.6809 -0.0624
usemtl m_00dfe9cf-6861-d490-4f7a-e1ccfeffb02d
s 1
f 49/49/13 50/50/13 51/51/13 52/52/13
f 53/53/14 54/54/14 55/55/14 56/56/14
o cube.006
v 0.602668 0.175724 1.182536
v 0.606314 0.011107 0.677447
v 0.646334 0.185355 0.620946
v 0.642688 0.349972 1.126034
v 0.606314 0.011107 0.677447
v 0.602668 0.175724 1.182536
v 0.642688 0.349972 1.126034
v 0.646334 0.185355 0.620946
vt 0.687500 0.906250
vt 0.953125 0.906250
vt 0.953125 1.000000
vt 0.687500 1.000000
vt 0.953125 0.906250
vt 0.687500 0.906250
vt 0.687500 1.000000
vt 0.953125 1.000000
vn 0.9769 -0.2009 0.0725
vn -0.9769 0.2009 -0.0725
usemtl m_00dfe9cf-6861-d490-4f7a-e1ccfeffb02d
s 1
f 57/57/15 58/58/15 59/59/15 60/60/15
f 61/61/16 62/62/16 63/63/16 64/64/16
o cube.007
v 1.216760 -0.409942 0.938035
v 0.758835 0.141368 1.320811
v 0.496663 0.421002 0.604412
v 0.954588 -0.130309 0.221637
v 0.758835 0.141368 1.320811
v 1.216760 -0.409942 0.938035
v 0.954588 -0.130309 0.221637
v 0.496663 0.421002 0.604412
vt 1.000000 0.000000
vt 0.718750 0.000000
vt 0.718750 0.281250
vt 1.000000 0.281250
vt 0.718750 0.000000
vt 1.000000 0.000000
vt 1.000000 0.281250
vt 0.718750 0.281250
vn -0.7604 -0.6490 0.0250
vn 0.7604 0.6490 -0.0250
usemtl m_00dfe9cf-6861-d490-4f7a-e1ccfeffb02d
s 1
f 65/65/17 66/66/17 67/67/17 68/68/17
f 69/69/18 70/70/18 71/71/18 72/72/18
o cube.008
v 0.626846 -0.039827 0.138852
v 0.658742 0.304294 0.874189
v 0.028244 -0.148825 1.113587
v -0.003653 -0.492946 0.378251
v 0.658742 0.304294 0.874189
v 0.626846 -0.039827 0.138852
v -0.003653 -0.492946 0.378251
v 0.028244 -0.148825 1.113587
vt 0.968750 0.500000
vt 0.562500 0.500000
vt 0.562500 0.906250
vt 0.968750 0.906250
vt 0.562500 0.500000
vt 0.968750 0.500000
vt 0.968750 0.906250
vt 0.562500 0.906250
vn 0.6295 -0.7139 0.3068
vn -0.6295 0.7139 -0.3068
usemtl m_00dfe9cf-6861-d490-4f7a-e1ccfeffb02d
s 1
f 73/73/19 74/74/19 75/75/19 76/76/19
f 77/77/20 78/78/20 79/79/20 80/80/20
o cube.009
v 1.094702 -0.245880 0.319604
v 0.700242 0.148940 0.389777
v 0.633827 0.181691 -0.167828
v 1.028288 -0.213129 -0.238000
v 0.700242 0.148940 0.389777
v 1.094702 -0.245880 0.319604
v 1.028288 -0.213129 -0.238000
v 0.633827 0.181691 -0.167828
vt 1.000000 0.281250
vt 0.718750 0.281250
vt 0.718750 0.562500
vt 1.000000 0.562500
vt 0.718750 0.281250
vt 1.000000 0.281250
vt 1.000000 0.562500
vt 0.718750 0.562500
vn -0.7031 -0.7099 0.0420
vn 0.7031 0.7099 -0.0420
usemtl m_00dfe9cf-6861-d490-4f7a-e1ccfeffb02d
s 1
f 81/81/21 82/82/21 83/83/21 84/84/21
f 85/85/22 86/86/22 87/87/22 88/88/22
o cube.010
v 0.497039 0.764861 1.626860
v 0.595070 0.151134 0.924980
v 0.682988 0.281695 0.823096
v 0.584957 0.895422 1.524976
v 0.595070 0.151134 0.924980
v 0.497039 0.764861 1.626860
v 0.584957 0.895422 1.524976
v 0.682988 0.281695 0.823096
vt 0.000000 0.906250
vt 0.468750 0.906250
vt 0.468750 1.000000
vt 0.000000 1.000000
vt 0.468750 0.906250
vt 0.000000 0.906250
vt 0.000000 1.000000
vt 0.468750 1.000000
vn 0.8770 -0.2942 0.3798
vn -0.8770 0.2942 -0.3798
usemtl m_00dfe9cf-6861-d490-4f7a-e1ccfeffb02d
s 1
f 89/89/23 90/90/23 91/91/23 92/92/23
f 93/93/24 94/94/24 95/95/24 96/96/24
o cube.011
v 0.641891 0.401071 0.764032
v 0.985068 -0.004805 0.948154
v 0.921431 0.180571 1.475404
v 0.578254 0.586446 1.291282
v 0.985068 -0.004805 0.948154
v 0.641891 0.401071 0.764032
v 0.578254 0.586446 1.291282
v 0.921431 0.180571 1.475404
vt 0.421875 0.375000
vt 0.140625 0.375000
vt 0.140625 0.093750
vt 0.421875 0.093750
vt 0.140625 0.375000
vt 0.421875 0.375000
vt 0.421875 0.093750
vt 0.140625 0.093750
vn -0.7842 -0.6089 0.1194
vn 0.7842 0.6089 -0.1194
usemtl m_00dfe9cf-6861-d490-4f7a-e1ccfeffb02d
s 1
f 97/97/25 98/98/25 99/99/25 100/100/25
f 101/101/26 102/102/26 103/103/26 104/104/26
o cube.012
v 0.147966 0.021234 1.115844
v 0.415130 0.418017 1.411805
v 0.751630 0.519094 0.972535
v 0.484465 0.122311 0.676574
v 0.415130 0.418017 1.411805
v 0.147966 0.021234 1.115844
v 0.484465 0.122311 0.676574
v 0.751630 0.519094 0.972535
vt 1.000000 0.000000
vt 0.718750 0.000000
vt 0.718750 0.281250
vt 1.000000 0.281250
vt 0.718750 0.000000
vt 1.000000 0.000000
vt 1.000000 0.281250
vt 0.718750 0.281250
vn -0.6454 0.6857 -0.3366
vn 0.6454 -0.6857 0.3366
usemtl m_00dfe9cf-6861-d490-4f7a-e1ccfeffb02d
s 1
f 105/105/27 106/106/27 107/107/27 108/108/27
f 109/109/28 110/110/28 111/111/28 112/112/28
