# Blender v2.91.0 OBJ File: ''
# www.blender.org
mtllib spruce_branch_1.mtl
o cube
v 0.297042 0.331007 1.031809
v 0.405964 0.428064 0.686352
v 0.468312 0.592207 0.752126
v 0.359390 0.495150 1.097583
v 0.405964 0.428064 0.686352
v 0.297042 0.331007 1.031809
v 0.359390 0.495150 1.097583
v 0.468312 0.592207 0.752126
vt 0.000000 0.906250
vt 0.187500 0.906250
vt 0.187500 1.000000
vt 0.000000 1.000000
vt 0.187500 0.906250
vt 0.000000 0.906250
vt 0.000000 1.000000
vt 0.187500 1.000000
vn 0.8973 -0.4082 0.1682
vn -0.8973 0.4082 -0.1682
usemtl m_00dfe9cf-6861-d490-4f7a-e1ccfeffb02d
s 1
f 1/1/1 2/2/1 3/3/1 4/4/1
f 5/5/2 6/6/2 7/7/2 8/8/2
o cube.000
v 0.483718 0.553936 0.439748
v 0.557768 0.746330 0.204892
v 0.580013 0.886851 0.327021
v 0.505964 0.694456 0.561877
v 0.557768 0.746330 0.204892
v 0.483718 0.553936 0.439748
v 0.505964 0.694456 0.561877
v 0.580013 0.886851 0.327021
vt 0.375000 0.906250
vt 0.531250 0.906250
vt 0.531250 1.000000
vt 0.375000 1.000000
vt 0.531250 0.906250
vt 0.375000 0.906250
vt 0.375000 1.000000
vt 0.531250 1.000000
vn 0.9642 -0.2435 0.1045
vn -0.9642 0.2435 -0.1045
usemtl m_00dfe9cf-6861-d490-4f7a-e1ccfeffb02d
s 1
f 9/9/3 10/10/3 11/11/3 12/12/3
f 13/13/4 14/14/4 15/15/4 16/16/4
o cube.001
v 0.555926 0.759115 0.195068
v 0.572356 1.017074 0.019444
v 0.592745 1.121079 0.174116
v 0.576315 0.863121 0.349740
v 0.572356 1.017074 0.019444
v 0.555926 0.759115 0.195068
v 0.576315 0.863121 0.349740
v 0.592745 1.121079 0.174116
vt 0.531250 0.906250
vt 0.687500 0.906250
vt 0.687500 1.000000
vt 0.531250 1.000000
vt 0.687500 0.906250
vt 0.531250 0.906250
vt 0.531250 1.000000
vt 0.687500 1.000000
vn 0.9927 -0.1045 -0.0606
vn -0.9927 0.1045 0.0606
usemtl m_00dfe9cf-6861-d490-4f7a-e1ccfeffb02d
s 1
f 17/17/5 18/18/5 19/19/5 20/20/5
f 21/21/6 22/22/6 23/23/6 24/24/6
o cube.002
v 0.385698 0.396471 0.750629
v 0.487050 0.560860 0.429181
v 0.524985 0.719220 0.522127
v 0.423633 0.554831 0.843576
v 0.487050 0.560860 0.429181
v 0.385698 0.396471 0.750629
v 0.423633 0.554831 0.843576
v 0.524985 0.719220 0.522127
vt 0.187500 0.906250
vt 0.375000 0.906250
vt 0.375000 1.000000
vt 0.187500 1.000000
vt 0.375000 0.906250
vt 0.187500 0.906250
vt 0.187500 1.000000
vt 0.375000 1.000000
vn 0.9413 -0.3074 0.1396
vn -0.9413 0.3074 -0.1396
usemtl m_00dfe9cf-6861-d490-4f7a-e1ccfeffb02d
s 1
f 25/25/7 26/26/7 27/27/7 28/28/7
f 29/29/8 30/30/8 31/31/8 32/32/8
o cube.003
v 0.614120 0.096003 0.278991
v 0.281032 -0.041232 0.710992
v 0.237253 0.502101 0.849840
v 0.570341 0.639336 0.417838
v 0.281032 -0.041232 0.710992
v 0.614120 0.096003 0.278991
v 0.570341 0.639336 0.417838
v 0.237253 0.502101 0.849840
vt 0.281250 0.625000
vt 0.000000 0.625000
vt 0.000000 0.906250
vt 0.281250 0.906250
vt 0.000000 0.625000
vt 0.281250 0.625000
vt 0.281250 0.906250
vt 0.000000 0.906250
vn -0.8021 0.0864 -0.5910
vn 0.8021 -0.0864 0.5910
usemtl m_00dfe9cf-6861-d490-4f7a-e1ccfeffb02d
s 1
f 33/33/9 34/34/9 35/35/9 36/36/9
f 37/37/10 38/38/10 39/39/10 40/40/10
o cube.004
v 0.560266 0.228229 -0.002211
v 0.570656 0.089769 0.542883
v 0.526877 0.633102 0.681730
v 0.516487 0.771562 0.136637
v 0.570656 0.089769 0.542883
v 0.560266 0.228229 -0.002211
v 0.516487 0.771562 0.136637
v 0.526877 0.633102 0.681730
vt 0.281250 0.343750
vt 0.000000 0.343750
vt 0.000000 0.625000
vt 0.281250 0.625000
vt 0.000000 0.343750
vt 0.281250 0.343750
vt 0.281250 0.625000
vt 0.000000 0.625000
vn -0.9968 -0.0800 -0.0013
vn 0.9968 0.0800 0.0013
usemtl m_00dfe9cf-6861-d490-4f7a-e1ccfeffb02d
s 1
f 41/41/11 42/42/11 43/43/11 44/44/11
f 45/45/12 46/46/12 47/47/12 48/48/12
o cube.005
v 0.439076 0.006947 0.445690
v 0.347113 -0.137393 0.981521
v 0.303335 0.405940 1.120369
v 0.395297 0.550280 0.584538
v 0.347113 -0.137393 0.981521
v 0.439076 0.006947 0.445690
v 0.395297 0.550280 0.584538
v 0.303335 0.405940 1.120369
vt 0.562500 0.625000
vt 0.281250 0.625000
vt 0.281250 0.906250
vt 0.562500 0.906250
vt 0.281250 0.625000
vt 0.562500 0.625000
vt 0.562500 0.906250
vt 0.281250 0.906250
vn -0.9835 -0.0338 -0.1779
vn 0.9835 0.0338 0.1779
usemtl m_00dfe9cf-6861-d490-4f7a-e1ccfeffb02d
s 1
f 49/49/13 50/50/13 51/51/13 52/52/13
f 53/53/14 54/54/14 55/55/14 56/56/14
o cube.006
v 0.632092 0.430884 1.153151
v 0.739638 0.318120 0.812060
v 0.830577 0.480188 0.787154
v 0.723032 0.592952 1.128245
v 0.739638 0.318120 0.812060
v 0.632092 0.430884 1.153151
v 0.723032 0.592952 1.128245
v 0.830577 0.480188 0.787154
vt 0.000000 0.906250
vt 0.187500 0.906250
vt 0.187500 1.000000
vt 0.000000 1.000000
vt 0.187500 0.906250
vt 0.000000 0.906250
vt 0.000000 1.000000
vt 0.187500 1.000000
vn 0.8261 -0.4031 0.3937
vn -0.8261 0.4031 -0.3937
usemtl m_00dfe9cf-6861-d490-4f7a-e1ccfeffb02d
s 1
f 57/57/15 58/58/15 59/59/15 60/60/15
f 61/61/16 62/62/16 63/63/16 64/64/16
o cube.007
v 0.577364 0.656444 1.469069
v 0.667254 0.437006 1.178567
v 0.698621 0.589049 1.073423
v 0.608731 0.808487 1.363925
v 0.667254 0.437006 1.178567
v 0.577364 0.656444 1.469069
v 0.608731 0.808487 1.363925
v 0.698621 0.589049 1.073423
vt 0.000000 0.906250
vt 0.187500 0.906250
vt 0.187500 1.000000
vt 0.000000 1.000000
vt 0.187500 0.906250
vt 0.000000 0.906250
vt 0.000000 1.000000
vt 0.187500 1.000000
vn 0.9563 0.0048 0.2923
vn -0.9563 -0.0048 -0.2923
usemtl m_00dfe9cf-6861-d490-4f7a-e1ccfeffb02d
s 1
f 65/65/17 66/66/17 67/67/17 68/68/17
f 69/69/18 70/70/18 71/71/18 72/72/18
o cube.008
v 0.825552 0.285349 0.539577
v 0.919090 0.315301 0.242912
v 0.969209 0.492803 0.276636
v 0.875671 0.462851 0.573300
v 0.919090 0.315301 0.242912
v 0.825552 0.285349 0.539577
v 0.875671 0.462851 0.573300
v 0.969209 0.492803 0.276636
vt 0.375000 0.906250
vt 0.531250 0.906250
vt 0.531250 1.000000
vt 0.375000 1.000000
vt 0.531250 0.906250
vt 0.375000 0.906250
vt 0.375000 1.000000
vt 0.531250 1.000000
vn 0.9159 -0.3076 0.2577
vn -0.9159 0.3076 -0.2577
usemtl m_00dfe9cf-6861-d490-4f7a-e1ccfeffb02d
s 1
f 73/73/19 74/74/19 75/75/19 76/76/19
f 77/77/20 78/78/20 79/79/20 80/80/20
o cube.009
v 0.918898 0.321347 0.227853
v 0.968886 0.446257 -0.054202
v 1.012737 0.609939 0.026057
v 0.962749 0.485029 0.308112
v 0.968886 0.446257 -0.054202
v 0.918898 0.321347 0.227853
v 0.962749 0.485029 0.308112
v 1.012737 0.609939 0.026057
vt 0.531250 0.906250
vt 0.687500 0.906250
vt 0.687500 1.000000
vt 0.531250 1.000000
vt 0.687500 0.906250
vt 0.531250 0.906250
vt 0.531250 1.000000
vt 0.687500 1.000000
vn 0.9590 -0.2796 0.0462
vn -0.9590 0.2796 -0.0462
usemtl m_00dfe9cf-6861-d490-4f7a-e1ccfeffb02d
s 1
f 81/81/21 82/82/21 83/83/21 84/84/21
f 85/85/22 86/86/22 87/87/22 88/88/22
o cube.010
v 0.717441 0.327686 0.882461
v 0.829481 0.285235 0.527116
v 0.896639 0.460295 0.527378
v 0.784599 0.502746 0.882722
v 0.829481 0.285235 0.527116
v 0.717441 0.327686 0.882461
v 0.784599 0.502746 0.882722
v 0.896639 0.460295 0.527378
vt 0.187500 0.906250
vt 0.375000 0.906250
vt 0.375000 1.000000
vt 0.187500 1.000000
vt 0.375000 0.906250
vt 0.187500 0.906250
vt 0.187500 1.000000
vt 0.375000 1.000000
vn 0.8846 -0.3398 0.3195
vn -0.8846 0.3398 -0.3195
usemtl m_00dfe9cf-6861-d490-4f7a-e1ccfeffb02d
s 1
f 89/89/23 90/90/23 91/91/23 92/92/23
f 93/93/24 94/94/24 95/95/24 96/96/24
o cube.011
v 0.872899 -0.204314 0.642235
v 0.541757 -0.044869 1.068062
v 0.592621 0.491597 0.906744
v 0.923762 0.332152 0.480916
v 0.541757 -0.044869 1.068062
v 0.872899 -0.204314 0.642235
v 0.923762 0.332152 0.480916
v 0.592621 0.491597 0.906744
vt 0.281250 0.625000
vt 0.000000 0.625000
vt 0.000000 0.906250
vt 0.281250 0.906250
vt 0.000000 0.625000
vt 0.281250 0.625000
vt 0.281250 0.906250
vt 0.000000 0.906250
vn -0.8033 -0.1004 -0.5871
vn 0.8033 0.1004 0.5871
usemtl m_00dfe9cf-6861-d490-4f7a-e1ccfeffb02d
s 1
f 97/97/25 98/98/25 99/99/25 100/100/25
f 101/101/26 102/102/26 103/103/26 104/104/26
o cube.012
v 0.828541 -0.228191 0.330914
v 0.840895 -0.067323 0.869779
v 0.891759 0.469143 0.708460
v 0.879404 0.308275 0.169596
v 0.840895 -0.067323 0.869779
v 0.828541 -0.228191 0.330914
v 0.879404 0.308275 0.169596
v 0.891759 0.469143 0.708460
vt 0.281250 0.343750
vt 0.000000 0.343750
vt 0.000000 0.625000
vt 0.281250 0.625000
vt 0.000000 0.343750
vt 0.281250 0.343750
vt 0.281250 0.625000
vt 0.000000 0.625000
vn -0.9957 0.0929 -0.0049
vn 0.9957 -0.0929 0.0049
usemtl m_00dfe9cf-6861-d490-4f7a-e1ccfeffb02d
s 1
f 105/105/27 106/106/27 107/107/27 108/108/27
f 109/109/28 110/110/28 111/111/28 112/112/28
o cube.013
v 0.693432 -0.165719 0.822961
v 0.603517 0.001981 1.352299
v 0.654380 0.538446 1.190981
v 0.744295 0.370746 0.661643
v 0.603517 0.001981 1.352299
v 0.693432 -0.165719 0.822961
v 0.744295 0.370746 0.661643
v 0.654380 0.538446 1.190981
vt 0.562500 0.625000
vt 0.281250 0.625000
vt 0.281250 0.906250
vt 0.562500 0.906250
vt 0.281250 0.625000
vt 0.562500 0.625000
vt 0.562500 0.906250
vt 0.281250 0.906250
vn -0.9830 0.0393 -0.1794
vn 0.9830 -0.0393 0.1794
usemtl m_00dfe9cf-6861-d490-4f7a-e1ccfeffb02d
s 1
f 113/113/29 114/114/29 115/115/29 116/116/29
f 117/117/30 118/118/30 119/119/30 120/120/30
o cube.014
v 0.804786 0.008876 1.384611
v 0.690651 0.435311 1.733227
v 0.592840 0.769982 1.291826
v 0.706975 0.343547 0.943210
v 0.690651 0.435311 1.733227
v 0.804786 0.008876 1.384611
v 0.706975 0.343547 0.943210
v 0.592840 0.769982 1.291826
vt 0.562500 0.625000
vt 0.281250 0.625000
vt 0.281250 0.906250
vt 0.562500 0.906250
vt 0.281250 0.625000
vt 0.562500 0.625000
vt 0.562500 0.906250
vt 0.281250 0.906250
vn -0.9636 -0.2670 0.0111
vn 0.9636 0.2670 -0.0111
usemtl m_00dfe9cf-6861-d490-4f7a-e1ccfeffb02d
s 1
f 121/121/31 122/122/31 123/123/31 124/124/31
f 125/125/32 126/126/32 127/127/32 128/128/32
o cube.015
v 0.228008 0.375000 0.795549
v 0.386490 0.375000 1.135415
v 0.314673 0.544933 1.168903
v 0.156191 0.544933 0.829038
v 0.386490 0.375000 1.135415
v 0.228008 0.375000 0.795549
v 0.156191 0.544933 0.829038
v 0.314673 0.544933 1.168903
vt 0.187500 0.906250
vt 0.000000 0.906250
vt 0.000000 1.000000
vt 0.187500 1.000000
vt 0.000000 0.906250
vt 0.187500 0.906250
vt 0.187500 1.000000
vt 0.000000 1.000000
vn -0.8214 -0.4226 0.3830
vn 0.8214 0.4226 -0.3830
usemtl m_00dfe9cf-6861-d490-4f7a-e1ccfeffb02d
s 1
f 129/129/33 130/130/33 131/131/33 132/132/33
f 133/133/34 134/134/34 135/135/34 136/136/34
o cube.016
v 0.330903 0.420092 1.179619
v 0.438858 0.522291 1.523895
v 0.451571 0.700500 1.467007
v 0.343615 0.598300 1.122731
v 0.438858 0.522291 1.523895
v 0.330903 0.420092 1.179619
v 0.343615 0.598300 1.122731
v 0.451571 0.700500 1.467007
vt 0.187500 0.906250
vt 0.000000 0.906250
vt 0.000000 1.000000
vt 0.187500 1.000000
vt 0.000000 0.906250
vt 0.187500 0.906250
vt 0.187500 1.000000
vt 0.000000 1.000000
vn -0.9553 0.1496 0.2551
vn 0.9553 -0.1496 -0.2551
usemtl m_00dfe9cf-6861-d490-4f7a-e1ccfeffb02d
s 1
f 137/137/35 138/138/35 139/139/35 140/140/35
f 141/141/36 142/142/36 143/143/36 144/144/36
o cube.017
v -0.012883 0.551763 0.278958
v 0.108687 0.429659 0.539664
v 0.085621 0.593807 0.627299
v -0.035948 0.715910 0.366593
v 0.108687 0.429659 0.539664
v -0.012883 0.551763 0.278958
v -0.035948 0.715910 0.366593
v 0.085621 0.593807 0.627299
vt 0.531250 0.906250
vt 0.375000 0.906250
vt 0.375000 1.000000
vt 0.531250 1.000000
vt 0.375000 0.906250
vt 0.531250 0.906250
vt 0.531250 1.000000
vt 0.375000 1.000000
vn -0.9130 -0.2845 0.2925
vn 0.9130 0.2845 -0.2925
usemtl m_00dfe9cf-6861-d490-4f7a-e1ccfeffb02d
s 1
f 145/145/37 146/146/37 147/147/37 148/148/37
f 149/149/38 150/150/38 151/151/38 152/152/38
o cube.018
v -0.078557 0.766369 0.039089
v -0.013611 0.561831 0.266250
v -0.027048 0.698885 0.393497
v -0.091994 0.903424 0.166336
v -0.013611 0.561831 0.266250
v -0.078557 0.766369 0.039089
v -0.091994 0.903424 0.166336
v -0.027048 0.698885 0.393497
vt 0.687500 0.906250
vt 0.531250 0.906250
vt 0.531250 1.000000
vt 0.687500 1.000000
vt 0.531250 0.906250
vt 0.687500 0.906250
vt 0.687500 1.000000
vt 0.531250 1.000000
vn -0.9755 -0.1931 0.1050
vn 0.9755 0.1931 -0.1050
usemtl m_00dfe9cf-6861-d490-4f7a-e1ccfeffb02d
s 1
f 153/153/39 154/154/39 155/155/39 156/156/39
f 157/157/40 158/158/40 159/159/40 160/160/40
o cube.019
v 0.103406 0.433479 0.528340
v 0.258976 0.361926 0.861961
v 0.215064 0.534881 0.919532
v 0.059494 0.606435 0.585911
v 0.258976 0.361926 0.861961
v 0.103406 0.433479 0.528340
v 0.059494 0.606435 0.585911
v 0.215064 0.534881 0.919532
vt 0.375000 0.906250
vt 0.187500 0.906250
vt 0.187500 1.000000
vt 0.375000 1.000000
vt 0.187500 0.906250
vt 0.375000 0.906250
vt 0.375000 1.000000
vt 0.187500 1.000000
vn -0.8792 -0.3357 0.3380
vn 0.8792 0.3357 -0.3380
usemtl m_00dfe9cf-6861-d490-4f7a-e1ccfeffb02d
s 1
f 161/161/41 162/162/41 163/163/41 164/164/41
f 165/165/42 166/166/42 167/167/42 168/168/42
o cube.020
v 0.011280 -0.062500 0.510666
v 0.405541 -0.062500 0.911869
v 0.405541 0.500000 0.911869
v 0.011280 0.500000 0.510666
v 0.405541 -0.062500 0.911869
v 0.011280 -0.062500 0.510666
v 0.011280 0.500000 0.510666
v 0.405541 0.500000 0.911869
vt 0.281250 0.625000
vt 0.000000 0.625000
vt 0.000000 0.906250
vt 0.281250 0.906250
vt 0.000000 0.625000
vt 0.281250 0.625000
vt 0.281250 0.906250
vt 0.000000 0.906250
vn -0.7133 -0.0000 0.7009
vn 0.7133 0.0000 -0.7009
usemtl m_00dfe9cf-6861-d490-4f7a-e1ccfeffb02d
s 1
f 169/169/43 170/170/43 171/171/43 172/172/43
f 173/173/44 174/174/44 175/175/44 176/176/44
o cube.021
v 0.165126 0.014064 1.173113
v 0.278561 0.066156 1.721588
v 0.483134 0.582119 1.630275
v 0.369700 0.530027 1.081799
v 0.278561 0.066156 1.721588
v 0.165126 0.014064 1.173113
v 0.369700 0.530027 1.081799
v 0.483134 0.582119 1.630275
vt 0.281250 0.625000
vt 0.000000 0.625000
vt 0.000000 0.906250
vt 0.281250 0.906250
vt 0.000000 0.625000
vt 0.281250 0.625000
vt 0.281250 0.906250
vt 0.000000 0.906250
vn -0.9094 0.3874 0.1513
vn 0.9094 -0.3874 -0.1513
usemtl m_00dfe9cf-6861-d490-4f7a-e1ccfeffb02d
s 1
f 177/177/45 178/178/45 179/179/45 180/180/45
f 181/181/46 182/182/46 183/183/46 184/184/46
o cube.022
v 0.017135 -0.000000 0.201606
v 0.085686 -0.000000 0.759913
v 0.085686 0.562500 0.759913
v 0.017135 0.562500 0.201606
v 0.085686 -0.000000 0.759913
v 0.017135 -0.000000 0.201606
v 0.017135 0.562500 0.201606
v 0.085686 0.562500 0.759913
vt 0.281250 0.343750
vt 0.000000 0.343750
vt 0.000000 0.625000
vt 0.281250 0.625000
vt 0.000000 0.343750
vt 0.281250 0.343750
vt 0.281250 0.625000
vt 0.000000 0.625000
vn -0.9925 -0.0000 0.1219
vn 0.9925 0.0000 -0.1219
usemtl m_00dfe9cf-6861-d490-4f7a-e1ccfeffb02d
s 1
f 185/185/47 186/186/47 187/187/47 188/188/47
f 189/189/48 190/190/48 191/191/48 192/192/48
o cube.023
v 0.213278 -0.093750 0.667445
v 0.382425 -0.093750 1.203911
v 0.382425 0.468750 1.203911
v 0.213278 0.468750 0.667446
v 0.382425 -0.093750 1.203911
v 0.213278 -0.093750 0.667445
v 0.213278 0.468750 0.667446
v 0.382425 0.468750 1.203911
vt 0.562500 0.625000
vt 0.281250 0.625000
vt 0.281250 0.906250
vt 0.562500 0.906250
vt 0.281250 0.625000
vt 0.562500 0.625000
vt 0.562500 0.906250
vt 0.281250 0.906250
vn -0.9537 -0.0000 0.3007
vn 0.9537 0.0000 -0.3007
usemtl m_00dfe9cf-6861-d490-4f7a-e1ccfeffb02d
s 1
f 193/193/49 194/194/49 195/195/49 196/196/49
f 197/197/50 198/198/50 199/199/50 200/200/50
