# Made in Blockbench 4.2.4
mtllib butter_churn_upper.mtl

o cube
v 0.53125 0.96875 0.53125
v 0.53125 0.96875 0.46875
v 0.53125 -0.03125 0.53125
v 0.53125 -0.03125 0.46875
v 0.46875 0.96875 0.53125
v 0.46875 0.96875 0.46875
v 0.46875 -0.03125 0.53125
v 0.46875 -0.03125 0.46875
vt 0.125 1
vt 0.0625 1
vt 0.0625 0
vt 0.125 0
vt 0.125 0
vt 0.125 1
vt 0.0625 1
vt 0.0625 0
vt 0 1.0625
vt 0.0625 1.0625
vt 0.0625 1.125
vt 0 1.125
vt 0.0625 0
vt 0.0625 1
vt 0 1
vt 0 0
vt 0.1875 1
vt 0.125 1
vt 0.125 0
vt 0.1875 0
vn 1 0 0
vn -1 0 0
vn 0 1 0
vn 0 0 1
vn 0 0 -1
usemtl m_5
f 2/1/1 1/2/1 3/3/1 4/4/1
f 7/5/2 5/6/2 6/7/2 8/8/2
f 5/9/3 1/10/3 2/11/3 6/12/3
f 3/13/4 1/14/4 5/15/4 7/16/4
f 6/17/5 2/18/5 4/19/5 8/20/5