# Made in Blockbench 4.2.5
mtllib short_crystal_wine_glass.mtl

o mouth
v 0.5 0.453125 0.5
v 0.5 0.515625 0.5
v 0.5 0.453125 0.59375
v 0.5 0.515625 0.59375
v 0.5811898816047911 0.453125 0.546875
v 0.5811898816047911 0.515625 0.546875
v 0.5811898816047911 0.453125 0.453125
v 0.5811898816047911 0.515625 0.453125
v 0.5 0.453125 0.40625
v 0.5 0.515625 0.40625
v 0.4188101183952089 0.453125 0.45312499999999994
v 0.4188101183952089 0.515625 0.45312499999999994
v 0.4188101183952089 0.453125 0.546875
v 0.4188101183952089 0.515625 0.546875
v 0.5811898816047911 0.453125 0.453125
v 0.5811898816047911 0.453125 0.546875
v 0.5 0.453125 0.5
vt 0 0.90625
vt 0 0.8125
vt 0.078125 0.859375
vt 0.40625 0.46875
vt 0.5 0.46875
vt 0.5 0.53125
vt 0.40625 0.53125
vt 0.015625 1
vt 0.015625 0.90625
vt 0.09375 0.953125
vt 0.1875 0.8125
vt 0.1875 0.90625
vt 0.109375 0.859375
vt 0.5 0.46875
vt 0.59375 0.46875
vt 0.59375 0.53125
vt 0.5 0.53125
vt 0.171875 0.90625
vt 0.171875 1
vt 0.09375 0.953125
vt 0 0.90625
vt 0 0.8125
vt 0.078125 0.859375
vt 0.40625 0.46875
vt 0.5 0.46875
vt 0.5 0.53125
vt 0.40625 0.53125
vt 0.015625 1
vt 0.015625 0.90625
vt 0.09375 0.953125
vt 0.1875 0.8125
vt 0.1875 0.90625
vt 0.109375 0.859375
vt 0.5 0.46875
vt 0.59375 0.46875
vt 0.59375 0.53125
vt 0.5 0.53125
vt 0.171875 0.90625
vt 0.171875 1
vt 0.09375 0.953125
vt 0 0.90625
vt 0 0.8125
vt 0.078125 0.859375
vt 0.40625 0.46875
vt 0.5 0.46875
vt 0.5 0.53125
vt 0.40625 0.53125
vt 0.015625 1
vt 0.015625 0.90625
vt 0.09375 0.953125
vt 0.1875 0.8125
vt 0.1875 0.90625
vt 0.109375 0.859375
vt 0.5 0.46875
vt 0.59375 0.46875
vt 0.59375 0.53125
vt 0.5 0.53125
vt 0.171875 0.90625
vt 0.171875 1
vt 0.09375 0.953125
vt 0.1875 0.8125
vt 0.1875 0.90625
vt 0.109375 0.859375
vn 0 -1 0
vn 0.49999999999999994 0 0.8660254037844388
vn 0 1 0
vn 0 -1 0
vn 1 0 0
vn 0 1 0
vn 0 -1 0
vn 0.5000000000000003 0 -0.8660254037844387
vn 0 1 0
vn 0 -1 0
vn -0.4999999999999996 0 -0.8660254037844388
vn 0 1 0
vn 0 -1 0
vn -1 0 -1.4802973661668746e-16
vn 0 1 0
vn 0 -1 0
vn -0.49999999999999994 0 0.8660254037844388
vn 0 1 0
vn 0 -1 0
usemtl m_1
f 5/1/1 3/2/1 1/3/1
f 3/4/2 5/5/2 6/6/2 4/7/2
f 4/8/3 6/9/3 2/10/3
f 7/11/4 5/12/4 1/13/4
f 5/14/5 7/15/5 8/16/5 6/17/5
f 6/18/6 8/19/6 2/20/6
f 9/21/7 7/22/7 1/23/7
f 7/24/8 9/25/8 10/26/8 8/27/8
f 8/28/9 10/29/9 2/30/9
f 11/31/10 9/32/10 1/33/10
f 9/34/11 11/35/11 12/36/11 10/37/11
f 10/38/12 12/39/12 2/40/12
f 13/41/13 11/42/13 1/43/13
f 11/44/14 13/45/14 14/46/14 12/47/14
f 12/48/15 14/49/15 2/50/15
f 3/51/16 13/52/16 1/53/16
f 13/54/17 3/55/17 4/56/17 14/57/17
f 14/58/18 4/59/18 2/60/18
f 15/61/19 16/62/19 17/63/19
o top
v 0.5 0.453125 0.5
v 0.5 0.328125 0.578125
v 0.5 0.453125 0.578125
v 0.5676582346706592 0.328125 0.5390625
v 0.5676582346706592 0.453125 0.5390625
v 0.5676582346706592 0.328125 0.4609375
v 0.5676582346706592 0.453125 0.4609375
v 0.5 0.328125 0.421875
v 0.5 0.453125 0.421875
v 0.43234176532934077 0.328125 0.46093749999999994
v 0.43234176532934077 0.453125 0.46093749999999994
v 0.43234176532934077 0.328125 0.5390625
v 0.43234176532934077 0.453125 0.5390625
v 0.5 0.328125 0.5
vt 0.06765625 0.9609375
vt 0 1
vt 0 0.921875
vt 0.40625 0.34375
vt 0.484375 0.34375
vt 0.484375 0.46875
vt 0.40625 0.46875
vt 0 0.921875
vt 0.06765625 0.9609375
vt 0 1
vt 0.06765625 0.921875
vt 0.06765625 1
vt 0 0.9609375
vt 0.484375 0.34375
vt 0.5625 0.34375
vt 0.5625 0.46875
vt 0.484375 0.46875
vt 0.06765625 0.921875
vt 0.06765625 1
vt 0 0.9609375
vt 0 0.921875
vt 0.06765625 0.9609375
vt 0 1
vt 0.40625 0.34375
vt 0.484375 0.34375
vt 0.484375 0.46875
vt 0.40625 0.46875
vt 0.06765625 0.9609375
vt 0 1
vt 0 0.921875
vt 0 0.9609375
vt 0.06765625 0.921875
vt 0.06765625 1
vt 0.06765625 1
vt 0 0.9609375
vt 0.06765625 0.921875
vt 0 1
vt 0 0.921875
vt 0.06765625 0.9609375
vt 0.40625 0.34375
vt 0.484375 0.34375
vt 0.484375 0.46875
vt 0.40625 0.46875
vt 0 1
vt 0 0.921875
vt 0.06765625 0.9609375
vt 0.06765625 1
vt 0 0.9609375
vt 0.06765625 0.921875
vt 0.484375 0.34375
vt 0.5625 0.34375
vt 0.5625 0.46875
vt 0.484375 0.46875
vt 0 0.9609375
vt 0.06765625 0.921875
vt 0.06765625 1
vt 0.484375 0.34375
vt 0.5625 0.34375
vt 0.5625 0.46875
vt 0.484375 0.46875
vn 0 -1 0
vn 0.5 0 0.8660254037844387
vn 0 1 0
vn 0 -1 0
vn 1 0 1.7763568394002506e-16
vn 0 1 0
vn 0 -1 0
vn 0.5000000000000002 0 -0.8660254037844386
vn 0 1 0
vn 0 -1 0
vn 0 1 0
vn 0 -1 0
vn -1 0 0
vn 0 1 0
vn 0 -1 0
vn -0.5 0 0.8660254037844387
vn 0 1 0
vn -0.49999999999999967 0 -0.8660254037844389
usemtl m_1
f 21/64/20 19/65/20 31/66/20
f 19/67/21 21/68/21 22/69/21 20/70/21
f 20/71/22 22/72/22 18/73/22
f 23/74/23 21/75/23 31/76/23
f 21/77/24 23/78/24 24/79/24 22/80/24
f 22/81/25 24/82/25 18/83/25
f 25/84/26 23/85/26 31/86/26
f 23/87/27 25/88/27 26/89/27 24/90/27
f 24/91/28 26/92/28 18/93/28
f 27/94/29 25/95/29 31/96/29
f 26/97/30 28/98/30 18/99/30
f 29/100/31 27/101/31 31/102/31
f 27/103/32 29/104/32 30/105/32 28/106/32
f 28/107/33 30/108/33 18/109/33
f 19/110/34 29/111/34 31/112/34
f 29/113/35 19/114/35 20/115/35 30/116/35
f 30/117/36 20/118/36 18/119/36
f 25/120/37 27/121/37 28/122/37 26/123/37
o middle
v 0.5 0.03125 0.5
v 0.5 0.03125 0.515625
v 0.5 0.1875 0.515625
v 0.5135316469341319 0.03125 0.5078125
v 0.5135316469341319 0.1875 0.5078125
v 0.5135316469341319 0.03125 0.4921875
v 0.5135316469341319 0.1875 0.4921875
v 0.5 0.03125 0.484375
v 0.5 0.1875 0.484375
v 0.48646835306586816 0.03125 0.4921875
v 0.48646835306586816 0.1875 0.4921875
v 0.48646835306586816 0.03125 0.5078125
v 0.48646835306586816 0.1875 0.5078125
v 0.5 0.328125 0.421875
v 0.43178085306586816 0.328125 0.46093749999999994
v 0.5 0.328125 0.5
v 0.43178085306586816 0.328125 0.5390625
v 0.5 0.328125 0.578125
v 0.5682191469341319 0.328125 0.5390625
v 0.5682191469341319 0.328125 0.4609375
vt 0.01353125 0.9921875
vt 0 1
vt 0 0.984375
vt 0.46875 0.03125
vt 0.484375 0.03125
vt 0.484375 0.1875
vt 0.46875 0.1875
vt 0 0.984375
vt 0.01353125 0.9921875
vt 0 1
vt 0.01353125 0.984375
vt 0.01353125 1
vt 0 0.9921875
vt 0.484375 0.03125
vt 0.5 0.03125
vt 0.5 0.1875
vt 0.484375 0.1875
vt 0.01353125 0.984375
vt 0.01353125 1
vt 0 0.9921875
vt 0 0.984375
vt 0.01353125 0.9921875
vt 0 1
vt 0.46875 0.03125
vt 0.484375 0.03125
vt 0.484375 0.1875
vt 0.46875 0.1875
vt 0.01353125 0.9921875
vt 0 1
vt 0 0.984375
vt 0 0.9921875
vt 0.01353125 0.984375
vt 0.01353125 1
vt 0.484375 0.03125
vt 0.5 0.03125
vt 0.5 0.1875
vt 0.484375 0.1875
vt 0.01353125 1
vt 0 0.9921875
vt 0.01353125 0.984375
vt 0 1
vt 0 0.984375
vt 0.01353125 0.9921875
vt 0.46875 0.03125
vt 0.484375 0.03125
vt 0.484375 0.1875
vt 0.46875 0.1875
vt 0 1
vt 0 0.984375
vt 0.01353125 0.9921875
vt 0.01353125 1
vt 0 0.9921875
vt 0.01353125 0.984375
vt 0.484375 0.03125
vt 0.5 0.03125
vt 0.5 0.1875
vt 0.484375 0.1875
vt 0 0.9921875
vt 0.01353125 0.984375
vt 0.01353125 1
vt 0.484375 0.34375
vt 0.40625 0.34375
vt 0.43797954599666056 0.1875
vt 0.4535088852667568 0.1875194356911849
vt 0.5625 0.34375
vt 0.484375 0.34375
vt 0.5152411147332432 0.187519435691185
vt 0.5307704540033394 0.1875
vt 0.484375 0.34375
vt 0.40625 0.34375
vt 0.43797954599666056 0.1875
vt 0.4535088852667568 0.1875194356911849
vt 0.5625 0.34375
vt 0.484375 0.34375
vt 0.5152411147332432 0.187519435691185
vt 0.5307704540033394 0.1875
vt 0.484375 0.34375
vt 0.40625 0.34375
vt 0.43797954599666056 0.1875
vt 0.4535088852667568 0.1875194356911849
vt 0.5625 0.34375
vt 0.484375 0.34375
vt 0.5152411147332432 0.187519435691185
vt 0.5307704540033394 0.1875
vn 0 -1 0
vn 0.5 0 0.8660254037844387
vn 0 1 0
vn 0 -1 0
vn 1 0 1.1102230246251568e-16
vn 0 1 0
vn 0 -1 0
vn 0.5000000000000002 0 -0.8660254037844386
vn 0 1 0
vn 0 -1 0
vn -0.4999999999999997 0 -0.8660254037844388
vn 0 1 0
vn 0 -1 0
vn -1 0 -1.1102230246251562e-16
vn 0 1 0
vn 0 -1 0
vn -0.5 0 0.8660254037844387
vn 0 1 0
vn 0.46361889851417737 -0.3598527801933259 0.8096687554349833
vn 0.932004671541296 -0.36244626115494843 0
vn 0.46355717567341426 -0.3601746709927003 -0.8095609620386768
vn -0.46361889851417704 -0.35985278019332595 -0.8096687554349834
vn -0.9320046715412961 -0.3624462611549485 0
vn -0.46355717567341403 -0.36017467099270034 0.8095609620386768
usemtl m_1
f 35/124/38 33/125/38 32/126/38
f 33/127/39 35/128/39 36/129/39 34/130/39
f 49/131/40 50/132/40 47/133/40
f 37/134/41 35/135/41 32/136/41
f 35/137/42 37/138/42 38/139/42 36/140/42
f 50/141/43 51/142/43 47/143/43
f 39/144/44 37/145/44 32/146/44
f 37/147/45 39/148/45 40/149/45 38/150/45
f 51/151/46 45/152/46 47/153/46
f 41/154/47 39/155/47 32/156/47
f 39/157/48 41/158/48 42/159/48 40/160/48
f 45/161/49 46/162/49 47/163/49
f 43/164/50 41/165/50 32/166/50
f 41/167/51 43/168/51 44/169/51 42/170/51
f 46/171/52 48/172/52 47/173/52
f 33/174/53 43/175/53 32/176/53
f 43/177/54 33/178/54 34/179/54 44/180/54
f 48/181/55 49/182/55 47/183/55
f 50/184/56 49/185/56 34/186/56 36/187/56
f 51/188/57 50/189/57 36/190/57 38/191/57
f 45/192/58 51/193/58 38/194/58 40/195/58
f 46/196/59 45/197/59 40/198/59 42/199/59
f 48/200/60 46/201/60 42/202/60 44/203/60
f 49/204/61 48/205/61 44/206/61 34/207/61
o bottom
v 0.5 0 0.5
v 0.5 0.03125 0.5
v 0.5 0 0.5625
v 0.5 0.03125 0.5625
v 0.5541265877365275 0 0.53125
v 0.5541265877365275 0.03125 0.53125
v 0.5541265877365275 0 0.46875
v 0.5541265877365275 0.03125 0.46875
v 0.5 0 0.4375
v 0.5 0.03125 0.4375
v 0.4458734122634726 0 0.46875
v 0.4458734122634726 0.03125 0.46875
v 0.4458734122634726 0 0.53125
v 0.4458734122634726 0.03125 0.53125
vt 0.03125 0.90625
vt 0.03125 0.84375
vt 0.0859375 0.875
vt 0.4375 0
vt 0.5 0
vt 0.5 0.03125
vt 0.4375 0.03125
vt 0.03125 0.90625
vt 0.03125 0.84375
vt 0.0859375 0.875
vt 0.15625 0.84375
vt 0.15625 0.90625
vt 0.1015625 0.875
vt 0.5 0
vt 0.5625 0
vt 0.5625 0.03125
vt 0.5 0.03125
vt 0.15625 0.84375
vt 0.15625 0.90625
vt 0.1015625 0.875
vt 0.03125 0.90625
vt 0.03125 0.84375
vt 0.0859375 0.875
vt 0.4375 0
vt 0.5 0
vt 0.5 0.03125
vt 0.4375 0.03125
vt 0.03125 0.90625
vt 0.03125 0.84375
vt 0.0859375 0.875
vt 0.15625 0.84375
vt 0.15625 0.90625
vt 0.1015625 0.875
vt 0.5 0
vt 0.5625 0
vt 0.5625 0.03125
vt 0.5 0.03125
vt 0.15625 0.84375
vt 0.15625 0.90625
vt 0.1015625 0.875
vt 0.03125 0.90625
vt 0.03125 0.84375
vt 0.0859375 0.875
vt 0.4375 0
vt 0.5 0
vt 0.5 0.03125
vt 0.4375 0.03125
vt 0.03125 0.90625
vt 0.03125 0.84375
vt 0.0859375 0.875
vt 0.15625 0.84375
vt 0.15625 0.90625
vt 0.1015625 0.875
vt 0.5 0
vt 0.5625 0
vt 0.5625 0.03125
vt 0.5 0.03125
vt 0.15625 0.84375
vt 0.15625 0.90625
vt 0.1015625 0.875
vn 0 -1 0
vn 0.49999999999999994 0 0.8660254037844387
vn 0 1 0
vn 0 -1 0
vn 1 0 1.1102230246251568e-16
vn 0 1 0
vn 0 -1 0
vn 0.5000000000000002 0 -0.8660254037844386
vn 0 1 0
vn 0 -1 0
vn -0.4999999999999997 0 -0.8660254037844389
vn 0 1 0
vn 0 -1 0
vn -1 0 -1.110223024625156e-16
vn 0 1 0
vn 0 -1 0
vn -0.49999999999999994 0 0.8660254037844387
vn 0 1 0
usemtl m_1
f 56/208/62 54/209/62 52/210/62
f 54/211/63 56/212/63 57/213/63 55/214/63
f 55/215/64 57/216/64 53/217/64
f 58/218/65 56/219/65 52/220/65
f 56/221/66 58/222/66 59/223/66 57/224/66
f 57/225/67 59/226/67 53/227/67
f 60/228/68 58/229/68 52/230/68
f 58/231/69 60/232/69 61/233/69 59/234/69
f 59/235/70 61/236/70 53/237/70
f 62/238/71 60/239/71 52/240/71
f 60/241/72 62/242/72 63/243/72 61/244/72
f 61/245/73 63/246/73 53/247/73
f 64/248/74 62/249/74 52/250/74
f 62/251/75 64/252/75 65/253/75 63/254/75
f 63/255/76 65/256/76 53/257/76
f 54/258/77 64/259/77 52/260/77
f 64/261/78 54/262/78 55/263/78 65/264/78
f 65/265/79 55/266/79 53/267/79