# Blender v2.91.0 OBJ File: ''
# www.blender.org
mtllib spruce_dead_long_branch_1.mtl
o cube
v 0.300964 1.134483 -0.575407
v 0.358137 0.835312 0.377079
v 0.559585 1.275223 0.503161
v 0.502413 1.574394 -0.449324
v 0.358137 0.835312 0.377079
v 0.300964 1.134483 -0.575407
v 0.502413 1.574394 -0.449324
v 0.559585 1.275223 0.503161
vt 0.000000 0.000000
vt 1.000000 0.000000
vt 1.000000 0.500000
vt 0.000000 0.500000
vt 1.000000 0.000000
vt 0.000000 0.000000
vt 0.000000 0.500000
vt 1.000000 0.500000
vn -0.9135 0.3693 0.1708
vn 0.9135 -0.3693 -0.1708
usemtl m_fb54af49-740f-260a-2096-91a0c49745a4
s 1
f 1/1/1 2/2/1 3/3/1 4/4/1
f 5/5/2 6/6/2 7/7/2 8/8/2
o cube.000
v 0.276591 0.587605 0.424681
v 0.457021 0.630100 1.407350
v 0.612270 1.102860 1.358400
v 0.431840 1.060365 0.375731
v 0.457021 0.630100 1.407350
v 0.276591 0.587605 0.424681
v 0.431840 1.060365 0.375731
v 0.612270 1.102860 1.358400
vt 0.000000 0.500000
vt 1.000000 0.500000
vt 1.000000 1.000000
vt 0.000000 1.000000
vt 1.000000 0.500000
vt 0.000000 0.500000
vt 0.000000 1.000000
vt 1.000000 1.000000
vn -0.9333 0.3228 0.1574
vn 0.9333 -0.3228 -0.1574
usemtl m_fb54af49-740f-260a-2096-91a0c49745a4
s 1
f 9/9/3 10/10/3 11/11/3 12/12/3
f 13/13/4 14/14/4 15/15/4 16/16/4
