# Blender v2.91.0 OBJ File: ''
# www.blender.org
mtllib spruce_dead_branches_2.mtl
o cube
v 0.563990 0.141515 0.365617
v 0.567466 0.050387 1.361450
v 0.541468 1.045881 1.452638
v 0.537991 1.137009 0.456804
v 0.567466 0.050387 1.361450
v 0.563990 0.141515 0.365617
v 0.537991 1.137009 0.456804
v 0.541468 1.045881 1.452638
vt 0.000000 0.000000
vt 1.000000 0.000000
vt 1.000000 1.000000
vt 0.000000 1.000000
vt 1.000000 0.000000
vt 0.000000 0.000000
vt 0.000000 1.000000
vt 1.000000 1.000000
vn -0.9997 -0.0262 0.0011
vn 0.9997 0.0262 -0.0011
usemtl m_ecd38a7d-207a-6ad7-3e0d-e11676803804
s 1
f 1/1/1 2/2/1 3/3/1 4/4/1
f 5/5/2 6/6/2 7/7/2 8/8/2
o cube.000
v 0.842059 -0.427609 0.609775
v 0.509747 -0.334942 1.548382
v 0.597420 0.658946 1.481298
v 0.929732 0.566279 0.542692
v 0.509747 -0.334942 1.548382
v 0.842059 -0.427609 0.609775
v 0.929732 0.566279 0.542692
v 0.597420 0.658946 1.481298
vt 0.000000 0.000000
vt 1.000000 0.000000
vt 1.000000 1.000000
vt 0.000000 1.000000
vt 1.000000 0.000000
vt 0.000000 0.000000
vt 0.000000 1.000000
vt 1.000000 1.000000
vn -0.9391 0.0600 -0.3384
vn 0.9391 -0.0600 0.3384
usemtl m_1037785d-9a35-b098-70c8-092be8d75334
s 1
f 9/9/3 10/10/3 11/11/3 12/12/3
f 13/13/4 14/14/4 15/15/4 16/16/4
