# Blender v2.91.0 OBJ File: ''
# www.blender.org
mtllib spruce_dead_branches_3.mtl
o cube
v 0.397087 0.413060 0.401134
v 0.307776 0.402928 1.397086
v 0.641342 1.344827 1.436581
v 0.730653 1.354959 0.440628
v 0.307776 0.402928 1.397086
v 0.397087 0.413060 0.401134
v 0.730653 1.354959 0.440628
v 0.641342 1.344827 1.436581
vt 0.000000 0.000000
vt 1.000000 0.000000
vt 1.000000 1.000000
vt 0.000000 1.000000
vt 1.000000 0.000000
vt 0.000000 0.000000
vt 0.000000 1.000000
vt 1.000000 1.000000
vn -0.9385 0.3357 -0.0807
vn 0.9385 -0.3357 0.0807
usemtl m_ecd38a7d-207a-6ad7-3e0d-e11676803804
s 1
f 1/1/1 2/2/1 3/3/1 4/4/1
f 5/5/2 6/6/2 7/7/2 8/8/2
o cube.000
v 0.139884 -0.107574 0.469773
v 0.455054 -0.309967 1.396976
v 0.594429 0.666305 1.562705
v 0.279259 0.868699 0.635502
v 0.455054 -0.309967 1.396976
v 0.139884 -0.107574 0.469773
v 0.279259 0.868699 0.635502
v 0.594429 0.666305 1.562705
vt 0.000000 0.000000
vt 1.000000 0.000000
vt 1.000000 1.000000
vt 0.000000 1.000000
vt 1.000000 0.000000
vt 0.000000 0.000000
vt 0.000000 1.000000
vt 1.000000 1.000000
vn -0.9387 0.0770 0.3359
vn 0.9387 -0.0770 -0.3359
usemtl m_1037785d-9a35-b098-70c8-092be8d75334
s 1
f 9/9/3 10/10/3 11/11/3 12/12/3
f 13/13/4 14/14/4 15/15/4 16/16/4
