# Blender v2.91.0 OBJ File: ''
# www.blender.org
mtllib spruce_dead_branches_1.mtl
o cube
v 0.333418 -0.260506 0.572962
v 0.176349 0.006784 1.523691
v 0.741435 0.820622 1.388244
v 0.898505 0.553331 0.437516
v 0.176349 0.006784 1.523691
v 0.333418 -0.260506 0.572962
v 0.898505 0.553331 0.437516
v 0.741435 0.820622 1.388244
vt 0.000000 0.000000
vt 1.000000 0.000000
vt 1.000000 1.000000
vt 0.000000 1.000000
vt 1.000000 0.000000
vt 0.000000 0.000000
vt 0.000000 1.000000
vt 1.000000 1.000000
vn -0.8099 0.5160 -0.2789
vn 0.8099 -0.5160 0.2789
usemtl m_15e5864b-c804-1f13-82e6-68ca0f9cf5a7
s 1
f 1/1/1 2/2/1 3/3/1 4/4/1
f 5/5/2 6/6/2 7/7/2 8/8/2
